<svg width="26" height="26" viewBox="0 0 26 26" fill="none" xmlns="http://www.w3.org/2000/svg">
<path opacity="0.5" d="M18.7499 9.28516C21.3237 9.29949 22.7175 9.41362 23.6268 10.3229C24.6666 11.3627 24.6666 13.0361 24.6666 16.3831L24.6666 17.5664C24.6666 20.9133 24.6666 22.5869 23.6268 23.6266C22.587 24.6663 20.9135 24.6663 17.5666 24.6663L8.09997 24.6663C4.75301 24.6663 3.07953 24.6663 2.03977 23.6266C1 22.5869 1 20.9133 1 17.5664L1 16.3831C1 13.0361 1 11.3627 2.03977 10.3229C2.94901 9.41362 4.34287 9.29949 6.91664 9.28516" stroke="#00A551" stroke-width="2" stroke-linecap="round"/>
<path d="M12.8342 16.3833L12.8342 1M12.8342 1L16.3841 5.14165M12.8342 1L9.28418 5.14165" stroke="#00A551" stroke-width="2" stroke-linecap="round" stroke-linejoin="round"/>
</svg>
