<svg width="393" height="301" viewBox="0 0 393 301" fill="none" xmlns="http://www.w3.org/2000/svg">
<path d="M196.691 4.88897C196.612 4.79379 196.534 4.70101 196.459 4.6107C196.421 4.65474 196.383 4.69938 196.344 4.74458C195.138 6.14995 193.496 8.08657 191.716 10.2065C189.961 12.3826 187.938 14.8553 186.114 17.081C185.846 17.4076 185.583 17.7286 185.326 18.0426C183.819 19.8808 182.513 21.474 181.689 22.4962L181.689 22.4962L181.686 22.4997L181.401 22.8518H196.247C197.507 22.8518 198.69 22.8528 199.799 22.8538C203.578 22.8571 206.507 22.8596 208.761 22.8183C209.847 22.7984 210.727 22.7676 211.434 22.7285C211.222 22.495 210.991 22.2402 210.732 21.951L210.715 21.9324L210.699 21.9135C209.435 20.4444 205.291 15.5143 201.535 10.8241C199.677 8.50381 197.955 6.40477 196.691 4.88897ZM213.869 22.4189C213.868 22.4184 213.85 22.4244 213.82 22.4386C213.855 22.4266 213.87 22.4195 213.869 22.4189ZM213.023 24.6048C213.035 24.6318 213.044 24.6463 213.045 24.6468C213.046 24.6473 213.04 24.6337 213.023 24.6048Z" fill="#E7FFF0" stroke="#00A551" stroke-width="5"/>
<path d="M176.733 6.75925C177.266 6.17416 177.754 5.62395 178.194 5.11225C176.812 5.35567 174.851 5.67321 172.694 6.02241C170.684 6.34782 168.504 6.70071 166.465 7.04674L166.444 7.05035L166.422 7.05358C164.797 7.30062 163.277 7.55409 161.957 7.79448C162.003 7.82662 162.049 7.85876 162.095 7.8909C163.145 8.62287 164.205 9.3256 165.038 9.8366C165.458 10.0949 165.787 10.2834 166.013 10.3994C166.037 10.4118 166.058 10.4226 166.077 10.4317C166.311 10.4826 166.479 10.5496 166.543 10.575C166.546 10.5758 166.548 10.5767 166.55 10.5775C166.727 10.6478 166.886 10.728 167.008 10.7933C167.256 10.9269 167.521 11.0923 167.773 11.2604C168.287 11.6025 168.895 12.053 169.491 12.5368L169.494 12.5389C170.617 13.4536 171.124 13.49 171.178 13.4882C171.185 13.4851 171.201 13.477 171.226 13.4597C171.31 13.4016 171.492 13.2436 171.737 12.8706C172.488 11.7116 174.786 8.93196 176.718 6.77543L176.725 6.76731L176.733 6.75925Z" fill="#E7FFF0" stroke="#00A551" stroke-width="5"/>
<path d="M216.828 5.5717C216.003 5.4201 215.192 5.27108 214.438 5.13439C214.547 5.2711 214.658 5.41052 214.771 5.55233C215.764 6.79751 216.904 8.22735 217.983 9.63047C219.024 10.8966 220.058 12.036 220.888 12.8395C221.123 13.067 221.328 13.2537 221.5 13.4017C221.516 13.3938 221.533 13.3857 221.55 13.3773C221.986 13.1632 222.467 12.8605 222.857 12.544C223.453 12.0602 224.062 11.6096 224.575 11.2676C224.828 11.0994 225.092 10.934 225.341 10.8005C225.462 10.7351 225.621 10.655 225.799 10.5846L225.805 10.5821C225.872 10.5554 226.055 10.4829 226.307 10.4314C226.326 10.4223 226.348 10.4115 226.373 10.3988C226.597 10.2851 226.925 10.0988 227.345 9.84144C228.176 9.33232 229.229 8.63015 230.272 7.89555C230.321 7.86127 230.369 7.82698 230.417 7.7927C227.559 7.46292 222.784 6.735 219.598 6.07828C218.698 5.91539 217.754 5.74193 216.828 5.5717ZM220.971 13.6095C220.971 13.6096 220.974 13.609 220.98 13.6075C220.974 13.6086 220.971 13.6094 220.971 13.6095Z" fill="#E7FFF0" stroke="#00A551" stroke-width="5"/>
<path d="M139.744 25.0283L139.74 25.0407L139.735 25.053C138.193 29.0367 136.638 32.9635 135.541 35.6748C143.701 31.8495 154.237 28.2143 163.134 26.1441C163.573 26.0359 164.001 25.9266 164.411 25.8182C162.949 24.883 160.938 23.632 159.078 22.5104L159.057 22.4979L159.037 22.4851C150.52 17.1238 146.382 14.5303 144.26 13.422C144.248 13.4507 144.236 13.4799 144.224 13.5096C143.92 14.246 143.521 15.2359 143.056 16.411C142.128 18.7596 140.946 21.8231 139.744 25.0283ZM143.12 12.9077C143.12 12.908 143.126 12.9096 143.138 12.912C143.126 12.9086 143.12 12.9075 143.12 12.9077Z" fill="#E7FFF0" stroke="#00A551" stroke-width="5"/>
<path d="M254.364 34.3923C255.093 34.7032 255.763 35.0032 256.354 35.2859C254.249 29.858 249.298 17.2666 247.59 12.985C247.244 13.1933 246.857 13.4278 246.436 13.6857C244.548 14.8406 241.996 16.4385 239.246 18.1995C236.513 19.975 233.973 21.5904 232.093 22.7647C231.153 23.3515 230.37 23.833 229.807 24.1708C229.528 24.3382 229.287 24.4794 229.103 24.5829C229.015 24.6326 228.913 24.6881 228.816 24.7368C228.771 24.7592 228.691 24.7985 228.595 24.838C228.549 24.8571 228.463 24.8913 228.353 24.9245L228.349 24.926C228.325 24.9333 228.272 24.9495 228.196 24.9673C228.096 25.0221 227.949 25.1109 227.754 25.2401C227.603 25.3401 227.44 25.4534 227.269 25.5767C227.959 25.7585 228.698 25.9493 229.455 26.1402C234.328 27.2971 241.051 29.4193 246.771 31.464C249.64 32.4897 252.293 33.5088 254.364 34.3923Z" fill="#E7FFF0" stroke="#00A551" stroke-width="5"/>
<path d="M121.083 23.0333L121.078 23.0359C119.771 23.7412 118.581 24.3814 117.5 24.9635C115.589 25.9916 114.016 26.8385 112.728 27.5424C114.662 27.9596 116.942 28.4979 118.895 29.0385C120.403 29.4184 121.76 29.7549 122.774 29.9866C122.955 29.5902 123.16 29.1288 123.384 28.6146C124.112 26.9447 125.013 24.7859 125.884 22.6408C126.267 21.6978 126.643 20.761 126.994 19.8732C125.269 20.778 123.245 21.8604 121.083 23.0333ZM122.127 31.3137C122.127 31.314 122.13 31.3091 122.137 31.2981C122.131 31.3079 122.127 31.3134 122.127 31.3137Z" fill="#E7FFF0" stroke="#00A551" stroke-width="5"/>
<path d="M266.668 22.3602L266.672 22.369L266.676 22.3778C267.944 25.4571 269.154 28.5924 269.7 30.1463C269.884 30.1219 270.102 30.0885 270.36 30.0445C271.076 29.8954 271.841 29.711 272.488 29.5302C272.818 29.438 273.101 29.3513 273.323 29.2755C273.528 29.2055 273.625 29.1638 273.645 29.1551C273.649 29.1534 273.65 29.1529 273.648 29.1539C274.041 28.9505 274.559 28.7869 274.95 28.6706C275.41 28.5338 275.969 28.3852 276.578 28.2342C277.532 27.9981 278.654 27.7451 279.801 27.5084C278.429 26.741 276.699 25.8025 274.546 24.6351C273.725 24.1901 272.843 23.7118 271.896 23.197C269.218 21.764 267.189 20.6818 265.65 19.8768C265.964 20.6625 266.307 21.5022 266.668 22.3602ZM269.978 30.9908C269.978 30.9906 269.977 30.987 269.974 30.9803C269.977 30.9876 269.978 30.9909 269.978 30.9908Z" fill="#E7FFF0" stroke="#00A551" stroke-width="5"/>
<path d="M137.44 80.2148C138.145 79.3941 139 78.5153 139.816 77.9814C140.556 77.4596 141.684 76.6657 143.064 76.6388C144.48 76.6112 145.619 77.3962 146.329 77.8858L146.339 77.8929C147.161 78.4276 148.021 79.3125 148.728 80.1477C149.486 81.0425 150.255 82.1047 150.848 83.1382C151.202 83.7332 151.498 84.1875 151.747 84.5288C152.191 84.0378 152.769 83.5184 153.499 83.2019C154.657 82.6995 155.874 82.8376 156.892 83.4862C157.721 84.0147 158.328 84.8214 158.789 85.5485C159.279 86.3231 159.775 87.291 160.296 88.4106L160.3 88.4182C162.113 92.3444 162.844 96.1158 162.345 100.765C161.861 105.282 160.221 110.561 157.489 117.54C157.247 118.212 156.258 121.042 155.343 123.802L155.338 123.815L153.96 127.894L155.586 131.13C156.745 133.367 158.421 136.433 159.307 137.882L159.332 137.923L159.355 137.964C159.486 138.198 159.63 138.454 159.782 138.725C160.592 140.167 161.64 142.033 162.258 143.234C163.405 145.278 167.682 152.07 171.55 157.907C172.859 159.838 174.871 162.488 176.633 164.665C177.333 165.531 177.979 166.303 178.513 166.913C179.255 166.305 180.197 165.5 181.25 164.573C183.654 162.456 186.553 159.777 188.804 157.53L188.817 157.516L188.83 157.503C189.943 156.425 192.571 153.333 194.759 150.588C194.761 150.586 194.763 150.583 194.765 150.581L197.896 146.583L197.226 144.556L197.214 144.517L197.202 144.478C196.678 142.7 195.145 138.179 193.818 134.387C191.969 129.213 190.924 126.238 190.351 123.915C189.748 121.466 189.667 119.732 189.627 117.106C189.542 112.95 190.088 110.338 191.785 106.481L191.788 106.473C192.334 105.244 192.853 104.156 193.383 103.332C193.844 102.615 194.682 101.484 196.099 101.144C197.708 100.759 198.958 101.61 199.631 102.194C199.806 102.346 199.98 102.513 200.154 102.693C201.082 101.082 202.46 99.3897 203.761 98.0635C204.52 97.2902 205.321 96.5712 206.077 96.0247C206.454 95.7527 206.866 95.4889 207.293 95.2835C207.674 95.1003 208.292 94.8507 209.02 94.8507C209.85 94.8507 210.528 95.1948 210.876 95.3923C211.297 95.631 211.702 95.9327 212.068 96.2366C212.805 96.8497 213.592 97.6496 214.327 98.4912C215.446 99.7714 216.653 101.386 217.44 102.869C217.744 102.633 218.047 102.413 218.336 102.22C218.618 102.032 218.93 101.841 219.241 101.687L219.246 101.684C219.441 101.587 220.047 101.287 220.775 101.287C221.575 101.287 222.149 101.651 222.327 101.768C222.585 101.936 222.798 102.127 222.953 102.278C223.272 102.588 223.584 102.967 223.87 103.35C224.446 104.125 225.079 105.144 225.64 106.256C226.519 107.901 227.12 109.331 227.455 111.108C227.777 112.819 227.828 114.742 227.79 117.322C227.788 121.246 227.329 125.055 226.333 127.32L226.325 127.338L226.317 127.355C225.687 128.729 223.86 133.82 222.298 138.666L219.886 146.142L222.476 149.691C222.477 149.691 222.477 149.692 222.477 149.692C224.351 152.235 230.145 158.609 235.895 164.632C238.744 167.617 241.536 170.467 243.759 172.65C244.872 173.743 245.828 174.655 246.57 175.328C246.942 175.665 247.245 175.928 247.478 176.119C247.529 176.16 247.573 176.196 247.611 176.225C248.285 175.749 249.425 174.646 251.737 172.217L251.749 172.205L251.761 172.193C255.424 168.447 258.29 165.224 260.175 162.795C261.123 161.572 261.774 160.612 262.154 159.925C262.236 159.775 262.299 159.652 262.345 159.553C261.864 158.241 260.758 155.255 259.549 152.164L259.545 152.152C257.997 148.134 256.533 143.675 255.452 139.832C254.912 137.911 254.461 136.122 254.143 134.603C253.836 133.137 253.617 131.759 253.617 130.738C253.617 129.787 253.869 128.588 254.161 127.485C254.471 126.315 254.893 125.01 255.357 123.75C255.821 122.491 256.341 121.238 256.857 120.177C257.326 119.21 257.926 118.113 258.602 117.415L258.621 117.395C259.072 116.928 260.321 115.636 262.2 116.033C262.96 116.194 263.55 116.59 263.939 116.89C264.203 117.094 264.471 117.331 264.741 117.584C265.723 115.941 267.618 113.564 268.999 112.222C269.542 111.68 270.058 111.173 270.529 110.787C270.99 110.41 271.656 109.935 272.526 109.749C273.499 109.541 274.331 109.77 274.954 110.051C275.492 110.293 276.037 110.653 276.479 110.946L276.491 110.954L276.495 110.957C277.354 111.527 278.284 112.506 279.062 113.423C279.885 114.394 280.726 115.522 281.408 116.579C281.411 116.583 281.414 116.587 281.416 116.591L282.197 117.775C282.816 117.272 283.44 116.826 283.979 116.504C284.251 116.342 284.589 116.158 284.94 116.027C285.102 115.967 285.402 115.867 285.771 115.835C286.024 115.812 287.054 115.752 287.885 116.61L287.906 116.632L287.926 116.655C288.628 117.416 289.23 118.614 289.703 119.692C290.22 120.871 290.736 122.273 291.194 123.701C292.075 126.453 292.87 129.713 292.87 131.784C292.87 133.025 292.448 135.072 291.92 137.212C291.364 139.466 290.603 142.154 289.771 144.851C288.154 150.09 286.163 155.713 284.81 158.188C284.685 158.455 284.55 158.806 284.447 159.154C284.397 159.321 284.361 159.469 284.337 159.59C284.428 159.803 284.577 160.108 284.791 160.502C285.237 161.322 285.882 162.377 286.638 163.525C288.16 165.835 290.01 168.337 291.374 169.858L291.378 169.862C293.324 172.041 294.393 173.325 300.539 181.526C303.613 185.577 306.703 189.469 307.472 190.354C308.472 191.403 311.612 195.141 314.64 198.819C318.665 203.698 322.125 207.566 324.607 210.014C325.031 210.432 325.415 210.797 325.759 211.112C325.885 210.733 326.016 210.351 326.146 209.985C327.236 206.591 328.376 200.428 329.246 193.636C330.114 186.859 330.685 179.671 330.685 174.343C330.685 166.519 329.654 156.508 328.113 147.428C326.562 138.292 324.554 130.463 322.717 126.748C322.346 126.068 322.028 125.336 321.797 124.679C321.625 124.191 321.418 123.518 321.36 122.873C321.328 122.776 321.279 122.634 321.207 122.443C321.035 121.983 320.778 121.345 320.45 120.566C319.798 119.014 318.901 116.983 317.939 114.869C315.989 110.587 313.867 106.173 312.973 104.658C303.29 88.2959 294.589 77.7375 281.357 66.5132C280.637 65.9042 279.987 65.3539 279.397 64.8541C276.445 62.3548 274.987 61.1205 273.712 60.1485C272.383 59.1346 271.275 58.4233 268.769 56.8151C268.457 56.6149 268.124 56.4008 267.766 56.1706L267.754 56.1633C247.357 42.8996 223.992 35.6411 200.023 35.0864C193.363 35.0056 186.529 35.0102 184.715 35.1578C178.816 35.703 169.235 37.7298 160.533 40.0507C156.197 41.207 152.136 42.4215 148.917 43.5372C147.307 44.0955 145.934 44.6199 144.856 45.0908C143.75 45.5736 143.11 45.9346 142.829 46.1449C142.358 46.5157 141.61 46.8993 141.042 47.1752C140.349 47.5114 139.516 47.878 138.711 48.1857C133.509 50.326 126.399 54.7029 119.132 60.1241C111.879 65.5353 104.625 71.8704 99.1468 77.8067L99.1456 77.8081C79.6528 98.9012 67.5639 124.656 63.2737 154.346L63.2736 154.347C61.2824 168.119 61.2872 180.014 63.1906 192.294C63.9585 197.014 65.1133 202.684 66.1712 207.167C66.5541 208.789 66.9196 210.236 67.245 211.414C68.3616 210.123 69.9573 208.16 72.3123 205.207L72.3148 205.204C75.6605 201.022 79.9497 195.703 81.7545 193.513C87.6989 186.252 119.603 143.035 123.989 136.257C124.681 135.103 125.965 133.281 126.962 132.074C129.375 128.945 129.974 128.004 130.11 126.838C130.181 126.231 130.13 125.419 129.841 124.047C129.55 122.669 129.066 120.925 128.378 118.466C123.906 102.849 123.211 99.2586 124.283 93.8108L124.284 93.8028C124.789 91.2828 126.032 87.7889 127.156 85.9361L128.777 83.1427L130.357 80.421L132.651 82.5759L134.364 84.185L134.407 84.2257L134.449 84.2685C134.471 84.2921 134.494 84.3154 134.517 84.3385C134.755 83.9868 135.011 83.5911 135.272 83.1676C135.893 82.1592 136.673 81.1083 137.44 80.2148ZM262.465 159.246C262.465 159.246 262.461 159.258 262.457 159.279C262.464 159.256 262.466 159.245 262.465 159.246ZM284.258 159.382C284.258 159.382 284.26 159.389 284.265 159.404C284.261 159.39 284.259 159.383 284.258 159.382ZM321.401 123.015C321.402 123.015 321.398 123 321.388 122.966C321.395 122.997 321.401 123.015 321.401 123.015ZM65.4286 213.295C65.4285 213.295 65.4334 213.293 65.4434 213.286C65.4337 213.291 65.4286 213.295 65.4286 213.295Z" fill="#E7FFF0" stroke="#00A551" stroke-width="5"/>
<path d="M274.482 43.5405L274.469 43.5437L274.457 43.5467L272.505 44.02L272.717 44.1557C280.772 49.2173 289.547 55.9921 295.453 61.7628C295.868 62.1571 296.274 62.5382 296.664 62.9008C296.579 60.8129 296.459 58.2963 296.321 55.67C295.97 49.0321 295.508 41.8239 295.206 39.0781C295.176 38.8441 295.144 38.622 295.111 38.4141C294.805 38.4809 294.489 38.5496 294.177 38.6175L294.016 38.6524C292.584 38.9641 289.291 39.755 286.732 40.3958C284.719 40.9619 280.984 41.9021 277.518 42.7745C276.462 43.0403 275.431 43.2998 274.482 43.5405Z" fill="#E7FFF0" stroke="#00A551" stroke-width="5"/>
<path d="M96.3804 48.9431L96.3802 48.948C96.1404 54.3375 95.8051 59.9491 95.5504 63.1307C95.6777 63.0065 95.8055 62.8805 95.9336 62.753L95.9434 62.7432L95.9534 62.7336C102.744 56.1237 109.992 50.4222 119.514 44.1999C118.579 43.9985 117.588 43.777 116.599 43.55L116.566 43.5425L116.533 43.534C113.13 42.6546 107.231 41.2107 103.504 40.3281L103.497 40.3264L103.49 40.3246C102.472 40.077 101.6 39.8541 100.842 39.6601C99.5018 39.3175 98.5137 39.0647 97.6889 38.9244C97.3927 38.874 97.1769 38.8505 97.0245 38.8404C97.02 38.8567 97.0154 38.8737 97.0108 38.8915C96.9079 39.2866 96.8166 39.8844 96.7415 40.7939C96.6408 42.0121 96.5853 43.5334 96.5135 45.5042C96.4764 46.5235 96.4348 47.663 96.3804 48.9431ZM96.7092 38.8418C96.7094 38.842 96.7136 38.8414 96.7212 38.8397C96.7128 38.8408 96.709 38.8417 96.7092 38.8418Z" fill="#E7FFF0" stroke="#00A551" stroke-width="5"/>
<path d="M82.6704 54.0143C82.7264 52.7783 82.7778 51.5926 82.8213 50.5029C81.2296 52.1643 79.3129 54.2019 77.2758 56.4C75.3274 58.532 73.4877 60.5413 71.9333 62.2368C73.9949 61.9649 76.4187 61.6721 78.4609 61.4711L78.4817 61.469L78.5025 61.4673L82.253 61.1613L82.6704 54.0143Z" fill="#E7FFF0" stroke="#00A551" stroke-width="5"/>
<path d="M314.952 56.2041L309.772 50.8104C309.903 52.9878 309.997 55.544 309.997 57.6157V61.1294L313.8 61.4821L313.8 61.4821L313.814 61.4834C315.963 61.695 318.571 62.0086 320.724 62.2926C319.084 60.5476 317.094 58.4489 314.955 56.2069C314.954 56.206 314.953 56.205 314.952 56.2041Z" fill="#E7FFF0" stroke="#00A551" stroke-width="5"/>
<path d="M80.8083 75.4623L80.7859 75.4645L80.7635 75.4662C76.5656 75.7846 71.5239 76.3034 67.3872 76.8029C65.3186 77.0526 63.4924 77.2956 62.1209 77.504C61.7378 77.5622 61.3959 77.6169 61.0981 77.6674C61.1668 78.2652 61.3071 79.1313 61.5584 80.371C62.3083 84.0707 63.8902 90.3917 66.6821 101.208L66.9969 100.61L67.0004 100.603L67.004 100.597C71.5857 92.0247 79.0082 80.9925 83.9933 75.342L84.0314 75.2988L84.0714 75.2575C84.083 75.2455 84.095 75.2331 84.1073 75.2202C82.92 75.2933 81.7028 75.3783 80.8083 75.4623ZM61.0498 76.7124C61.051 76.7057 61.0514 76.7022 61.0513 76.7021C61.0512 76.702 61.0506 76.7053 61.0498 76.7124Z" fill="#E7FFF0" stroke="#00A551" stroke-width="5"/>
<path d="M310.707 78.1849L310.707 78.1849L310.714 78.1939C315.902 84.8362 322.204 94.4194 326.258 101.886C326.994 98.8463 328.177 94.1423 329.446 89.3144C330.411 85.643 331.22 82.2603 331.756 79.7784C331.888 79.1667 332.002 78.616 332.097 78.1335C331.97 78.131 331.84 78.1297 331.708 78.1297C329.945 78.1297 324.695 77.5357 320.007 76.9003L320.001 76.8995C315.996 76.3477 311.297 75.8715 308.785 75.7475L310.707 78.1849ZM332.427 76.1539C332.427 76.1537 332.427 76.1556 332.427 76.1595C332.427 76.156 332.427 76.1541 332.427 76.1539Z" fill="#E7FFF0" stroke="#00A551" stroke-width="5"/>
<path d="M143.618 88.619C143.618 88.6186 143.613 88.6237 143.603 88.6354C143.613 88.6252 143.618 88.6193 143.618 88.619ZM144.716 94.5241C144.268 92.8038 143.48 91.1564 142.713 90.0398C142.409 90.5821 142.083 91.2106 141.766 91.8652C141.327 92.7726 140.929 93.6835 140.646 94.4295C140.504 94.8043 140.403 95.1077 140.341 95.3309C140.313 95.4308 140.299 95.4934 140.293 95.5245C140.28 96.2597 140.124 97.1091 139.624 97.8677C139.047 98.7422 138.14 99.289 137.111 99.3972C136.037 99.51 135.059 99.1431 134.243 98.6159C134.265 98.8356 134.292 99.0696 134.324 99.3185C134.528 100.906 134.907 102.93 135.48 105.396L135.482 105.405L135.484 105.413C136.239 108.77 137.847 114.311 138.988 117.613C138.988 117.614 138.989 117.615 138.989 117.615L140.584 122.207H142.776H144.982L147.005 115.68L147.006 115.678C147.604 113.753 148.206 111.847 148.726 110.203C149.443 107.932 150.002 106.162 150.175 105.537L150.184 105.505L150.194 105.472C150.585 104.19 150.916 102.14 151.075 100.096C151.114 99.5906 151.14 99.1129 151.156 98.6704C150.929 98.8666 150.69 99.061 150.463 99.2224C150.343 99.3081 150.176 99.4202 149.984 99.5214C149.981 99.5229 149.977 99.5247 149.973 99.5268C149.867 99.5834 149.361 99.8533 148.692 99.8533C147.646 99.8533 146.991 99.24 146.835 99.0915C146.587 98.8561 146.412 98.6086 146.304 98.4448C146.079 98.101 145.881 97.702 145.718 97.3347C145.379 96.5748 145.032 95.601 144.737 94.6001L144.726 94.5623L144.716 94.5241ZM132.164 96.8596C132.164 96.86 132.171 96.8641 132.184 96.8703C132.17 96.8623 132.164 96.8591 132.164 96.8596ZM134.228 96.0459C134.23 96.0407 134.231 96.0379 134.231 96.0378C134.231 96.0377 134.23 96.0403 134.228 96.0459Z" fill="#E7FFF0" stroke="#00A551" stroke-width="5"/>
<path d="M51.6586 98.3092L51.6428 98.2625L51.6289 98.2152C51.2968 97.0875 50.8608 95.4876 50.511 93.9616C49.4835 95.9433 48.2725 98.378 47.0213 100.996C45.7084 103.775 44.4899 106.387 43.5122 108.517C43.8596 108.374 44.2149 108.227 44.5754 108.076C47.8228 106.715 51.2666 105.168 52.8866 104.308C52.9044 104.169 52.9176 103.946 52.9018 103.609C52.8498 102.494 52.4869 100.761 51.6586 98.3092ZM52.8549 104.475C52.8462 104.492 52.8431 104.503 52.8438 104.504C52.8444 104.504 52.8487 104.495 52.8549 104.475Z" fill="#E7FFF0" stroke="#00A551" stroke-width="5"/>
<path d="M341.923 95.276L341.922 95.2803C340.691 100.331 340.032 103.241 339.806 104.892C340.013 104.962 340.226 105.039 340.441 105.12C341.263 105.429 342.22 105.838 343.125 106.263L343.148 106.274L343.17 106.285C344.457 106.921 346.271 107.766 347.838 108.496C348.342 108.731 348.82 108.954 349.247 109.154C348.75 108.076 348.149 106.785 347.427 105.241L347.426 105.241L347.421 105.23C346.775 103.83 346 102.164 345.223 100.493C344.105 98.0907 342.983 95.6783 342.231 94.031C342.129 94.4334 342.026 94.8495 341.923 95.276Z" fill="#E7FFF0" stroke="#00A551" stroke-width="5"/>
<path d="M208.699 109.021C208.548 108.711 208.403 108.43 208.267 108.182C207.741 109.254 207.111 110.707 206.613 112.043L206.606 112.062L206.599 112.081C206.188 113.133 205.801 114.06 205.409 114.791C205.058 115.445 204.493 116.362 203.54 116.91C202.306 117.618 201.067 117.39 200.184 116.959C200.045 116.891 199.908 116.815 199.774 116.733C199.91 117.73 200.143 119.053 200.495 120.82L200.495 120.822C201.095 123.845 202.334 128.505 203.59 132.699C204.216 134.788 204.837 136.732 205.373 138.27C205.726 139.282 206.011 140.025 206.215 140.508C206.22 140.509 206.224 140.51 206.229 140.511C206.816 140.619 207.653 140.691 208.552 140.691H210.446L213.092 132.153L213.093 132.152C214.799 126.663 215.893 122.61 216.459 119.617C216.69 118.396 216.821 117.409 216.88 116.613C216.785 116.676 216.689 116.736 216.594 116.792C215.832 117.237 214.56 117.706 213.172 117.055C212.05 116.528 211.438 115.498 211.093 114.834C210.7 114.074 210.325 113.103 209.935 112.015L209.926 111.99L209.918 111.965C209.607 111.036 209.164 109.971 208.699 109.021ZM197.792 115.136C197.792 115.136 197.794 115.137 197.798 115.139C197.794 115.137 197.792 115.136 197.792 115.136Z" fill="#E7FFF0" stroke="#00A551" stroke-width="5"/>
<path d="M50.5946 147.704C51.3882 143.394 52.6948 137.882 54.0736 132.784C55.571 127.247 57.2097 121.987 58.4263 119.256L58.4305 119.246L58.4348 119.237C58.8136 118.405 59.1568 117.602 59.4581 116.855C59.0618 117.031 58.652 117.215 58.2338 117.403C48.0303 122.002 45.8794 123.067 43.9917 124.003C42.6658 124.768 40.3757 125.683 38.759 126.188C38.3433 126.333 37.9418 126.494 37.5809 126.657C37.6255 126.746 37.6725 126.839 37.7221 126.936C38.3685 128.197 39.3372 129.875 40.4689 131.629L40.4689 131.629L40.474 131.637C45.1039 138.874 47.7812 143.095 49.3019 145.559C49.8705 146.48 50.2902 147.177 50.5946 147.704Z" fill="#E7FFF0" stroke="#00A551" stroke-width="5"/>
<path d="M341.801 147.843L341.915 148.49L343.522 145.909C344.929 143.647 346.299 141.483 347.378 139.811C348.397 138.23 349.281 136.891 349.637 136.462L349.698 136.389L349.763 136.322C349.761 136.323 349.78 136.303 349.822 136.252C349.866 136.197 349.923 136.124 349.992 136.031C350.13 135.845 350.296 135.606 350.478 135.332C350.837 134.789 351.221 134.157 351.531 133.59C352.289 132.116 353.728 129.725 354.738 128.119L354.75 128.1L354.762 128.082L355.154 127.483C353.813 126.791 348.746 124.409 343.789 122.248L343.767 122.239L343.745 122.228C343.101 121.933 342.448 121.633 341.796 121.334C338.411 119.783 335.057 118.245 333.255 117.342C337.07 126.873 339.514 135.63 341.796 147.815L341.799 147.829L341.801 147.843Z" fill="#E7FFF0" stroke="#00A551" stroke-width="5"/>
<path d="M273.403 123.365C273.333 123.234 273.263 123.107 273.194 122.984C273.17 123.038 273.145 123.093 273.12 123.149C272.682 124.132 272.172 125.362 271.67 126.599C271.142 127.939 270.581 129.191 270.078 130.14C269.832 130.605 269.562 131.068 269.286 131.445C269.154 131.627 268.959 131.873 268.708 132.099L268.703 132.104C268.557 132.235 267.89 132.837 266.857 132.837C265.969 132.837 265.326 132.397 265.136 132.266C265.038 132.198 264.945 132.127 264.856 132.055C264.985 135.323 266.015 139.579 269.947 152.371L269.95 152.379L269.952 152.386L270.786 155.162L273.019 155.034L275.532 154.89L276.472 152.079C278.211 146.766 279.513 142.329 280.377 138.786C281.139 135.663 281.53 133.355 281.619 131.796C281.48 131.905 281.333 132.006 281.178 132.098C280.259 132.646 279.046 132.837 277.879 132.245C276.902 131.749 276.337 130.885 276.01 130.219C275.658 129.503 275.409 128.666 275.228 127.781C275.029 126.813 274.291 125.017 273.403 123.365ZM265.097 128.723C265.097 128.724 265.096 128.725 265.096 128.726C265.099 128.719 265.1 128.717 265.097 128.723ZM274.121 121.367C274.121 121.367 274.12 121.368 274.118 121.369C274.119 121.368 274.12 121.367 274.121 121.367Z" fill="#E7FFF0" stroke="#00A551" stroke-width="5"/>
<path d="M34.9139 147.402C34.2563 146.311 33.6164 145.276 33.0254 144.345C33.012 144.421 32.9987 144.498 32.9853 144.575C32.4082 148.555 31.7527 153.916 31.2796 158.326C31.195 159.114 31.1166 159.869 31.0457 160.579C32.9392 158.844 35.4005 156.549 36.8566 155.113L36.8804 155.089L36.9048 155.067L38.6711 153.415L34.9352 147.437L34.9244 147.42L34.9139 147.402Z" fill="#E7FFF0" stroke="#00A551" stroke-width="5"/>
<path d="M359.445 145.873L359.44 145.881L359.435 145.888C357.587 148.833 355.427 152.421 354.574 153.864L354.061 154.756L354.562 155.253L354.565 155.256C357.167 157.842 359.539 160.101 361.41 161.795C361.234 159.579 360.982 156.888 360.699 154.17C360.376 151.064 360.016 147.945 359.687 145.483C359.608 145.609 359.528 145.739 359.445 145.873Z" fill="#E7FFF0" stroke="#00A551" stroke-width="5"/>
<path d="M45.3365 166.237L45.311 166.262L45.2848 166.286C44.9551 166.591 44.4833 167.027 43.9069 167.559C41.892 169.421 38.5994 172.462 35.6351 175.213L35.6348 175.214L30.761 179.735L31.0293 179.984C32.024 180.883 33.7486 182.322 35.2572 183.581C35.5606 183.834 35.8553 184.08 36.1335 184.312C37.4319 185.337 39.0224 186.757 40.1118 187.729C40.4468 188.028 40.7344 188.284 40.9516 188.474L40.9924 188.51L41.0316 188.547C41.954 189.427 44.9131 191.941 47.601 194.005L47.6192 194.019L47.6371 194.033C48.306 194.566 48.9725 195.106 49.6074 195.63C48.3618 184.851 47.9399 173.929 48.6492 166.233C48.7608 165.022 48.8633 163.863 48.9536 162.8C47.6968 163.975 46.3068 165.287 45.3365 166.237Z" fill="#E7FFF0" stroke="#00A551" stroke-width="5"/>
<path d="M344.013 170.218L344.013 170.227L344.013 170.236C344.25 177.812 344.015 185.017 343.142 192.082C342.948 193.881 342.77 195.575 342.619 197.06C344.928 195.203 347.941 192.739 351.207 190.031L351.207 190.031L351.215 190.024L361.94 181.211L358.885 178.341C356.444 176.097 353.828 173.614 352.573 172.422C352.379 172.238 352.218 172.085 352.095 171.968L352.085 171.959L352.076 171.95C350.285 170.217 347.339 167.53 344.782 165.268C344.465 164.987 344.154 164.714 343.854 164.451C343.878 166.122 343.931 168.102 344.013 170.218Z" fill="#E7FFF0" stroke="#00A551" stroke-width="5"/>
<path d="M113.813 186.653L111.481 187.555C111.303 187.094 111.298 186.669 111.297 186.57L111.297 186.56C111.295 186.387 111.305 186.221 111.316 186.09C111.339 185.82 111.381 185.507 111.431 185.183C111.533 184.523 111.695 183.653 111.897 182.649C112.132 181.482 112.429 180.098 112.766 178.591C112.464 179.166 112.167 179.681 111.879 180.123C111.524 180.668 111.056 181.303 110.479 181.75C110.2 181.966 109.646 182.338 108.875 182.412C107.912 182.505 107.045 182.097 106.487 181.431C106.036 180.893 105.876 180.304 105.807 179.965C105.73 179.583 105.708 179.197 105.708 178.849V178.791L105.71 178.734C105.72 178.527 105.739 178.295 105.767 178.042C105.184 178.836 104.727 179.451 104.508 179.729C82.07 210.022 55.8658 238.16 30.9405 258.735L30.935 258.739C20.3484 267.428 9.72153 275.079 4.06671 277.874L4.06672 277.874L4.05817 277.878L2.50079 278.64V288.103C2.50079 288.484 2.5006 288.852 2.50042 289.207C2.49907 291.856 2.49807 293.79 2.5785 295.25C2.6236 296.068 2.69064 296.649 2.7751 297.065C2.81154 297.244 2.84705 297.371 2.87571 297.457C2.93101 297.463 3.00301 297.469 3.09505 297.473C3.81027 297.503 4.81096 297.385 6.51501 297.185C6.67915 297.165 6.84982 297.145 7.02739 297.124L7.02739 297.124L7.03601 297.123C14.488 296.276 26.2071 292.755 35.1397 288.654C40.1935 286.243 48.4879 282.238 52.2083 280.396C78.778 266.997 101.581 265.236 128.557 274.474L128.565 274.477L128.572 274.479C131.23 275.409 133.879 276.361 136.007 277.166C137.956 277.902 139.727 278.608 140.542 279.068C141.596 279.608 144.581 280.997 147.314 282.174C150.143 283.312 153.505 284.766 154.778 285.342L154.804 285.354L154.83 285.366C156.892 286.355 169.092 291.228 173.684 292.917L173.684 292.917C179.089 294.906 185.867 296.178 192.543 296.589C199.238 297.001 205.622 296.535 210.273 295.194L210.285 295.19C216.744 293.363 225.46 290.275 229.122 288.579C229.824 288.239 230.563 287.911 231.212 287.66C231.538 287.535 231.871 287.417 232.182 287.327C232.373 287.272 232.695 287.185 233.061 287.148C233.102 287.136 233.156 287.118 233.226 287.094C233.488 287.006 233.859 286.867 234.322 286.684C235.242 286.319 236.431 285.812 237.649 285.262L237.654 285.259C244.099 282.363 244.862 282.05 251.821 279.187C252.637 278.852 253.537 278.481 254.542 278.067L254.553 278.063C274.385 270.011 286.741 267.611 301.639 269.369L301.651 269.37C315.072 271.021 324.433 273.863 350.475 284.5C364.686 290.278 367.763 291.39 374.632 293.783C378.163 294.973 382.022 296.143 385.229 297.014C386.835 297.45 388.257 297.805 389.382 298.049C389.475 298.069 389.565 298.089 389.653 298.107C389.789 296.367 389.849 293.487 389.849 288.988V278.382L386.118 275.77C386.113 275.767 386.108 275.763 386.103 275.76C383.294 273.851 377.721 269.63 373.633 266.218C373.126 265.805 372.62 265.393 372.122 264.987C368.579 262.099 365.394 259.502 364.582 258.92L364.49 258.855L364.405 258.782C363.455 257.963 362.282 256.982 361.827 256.646L361.66 256.522L361.515 256.373C361.526 256.384 361.478 256.336 361.315 256.19C361.172 256.062 360.98 255.892 360.741 255.684C360.263 255.268 359.624 254.719 358.866 254.071C358.159 253.467 357.355 252.782 356.491 252.046L356.305 251.888C355.37 251.092 354.372 250.241 353.358 249.375L353.355 249.372C328.415 227.985 311.089 210.669 292.001 187.8C292.009 188.008 292.013 188.213 292.013 188.412C292.013 189.211 291.957 190.314 291.61 191.18C291.512 191.442 291.307 191.928 290.894 192.368C290.345 192.953 289.591 193.294 288.761 193.304C288.073 193.313 287.491 193.093 287.111 192.917C286.7 192.728 286.284 192.475 285.87 192.196C284.39 191.201 281.956 189.191 277.894 185.762C277.874 185.802 277.853 185.843 277.832 185.884C277.403 186.728 276.867 187.877 276.15 189.439C275.758 190.349 275.287 191.336 274.615 192.123C273.833 193.038 272.809 193.654 271.503 193.819C270.358 193.964 269.165 193.736 268.006 193.407C267.752 193.335 267.487 193.255 267.211 193.166C267.547 193.434 267.881 193.7 268.21 193.965C270.332 195.668 272.334 197.312 273.793 198.557C274.518 199.176 275.135 199.718 275.571 200.129C275.779 200.325 275.997 200.538 276.171 200.736C276.244 200.819 276.399 200.998 276.538 201.229C276.597 201.327 276.755 201.598 276.846 201.978C276.919 202.283 277.077 203.265 276.363 204.146C275.727 204.948 274.852 205.073 274.587 205.098C274.219 205.133 273.915 205.083 273.771 205.056C273.456 204.996 273.161 204.892 272.955 204.813C272.508 204.643 271.965 204.388 271.392 204.097C270.229 203.507 268.714 202.65 267.119 201.662C264.025 199.823 259.242 197.033 256.453 195.431C253.648 193.9 250.688 192.049 249.802 191.337L249.68 191.239L249.571 191.126C249.487 191.039 249.39 190.95 249.29 190.867C249.189 190.784 249.095 190.715 249.018 190.663C249.016 190.662 249.014 190.661 249.013 190.66C248.903 190.63 248.832 190.603 248.817 190.597L248.814 190.596C248.688 190.55 248.575 190.501 248.493 190.464C248.324 190.386 248.133 190.29 247.944 190.19C247.557 189.986 247.053 189.703 246.476 189.369C245.317 188.698 243.794 187.778 242.178 186.76C240.763 185.879 239.638 185.193 238.738 184.679C239.274 188.378 239.604 191.415 239.716 193.583C239.776 194.741 239.782 195.777 239.687 196.562C239.645 196.906 239.556 197.475 239.285 198.011C239.146 198.285 238.847 198.777 238.263 199.139C237.573 199.568 236.772 199.636 236.07 199.419L235.961 199.385L235.856 199.341C235.479 199.185 235.179 198.943 235.165 198.932C235.055 198.848 234.938 198.752 234.826 198.658C234.598 198.465 234.309 198.209 233.974 197.907C233.302 197.299 232.389 196.45 231.309 195.429C229.145 193.385 226.272 190.618 223.228 187.633C220.203 184.668 217.36 181.949 215.212 179.958C214.441 179.244 213.768 178.631 213.211 178.136C213.155 178.255 213.099 178.38 213.045 178.511C213.044 178.514 213.042 178.516 213.041 178.519L213.036 178.532C211.606 182.048 210.519 184.72 209.672 186.697C208.842 188.633 208.174 190.07 207.579 191.008C207.29 191.463 206.886 192.021 206.32 192.438C205.64 192.939 204.685 193.251 203.633 192.957C202.8 192.724 202.247 192.19 201.99 191.927C201.718 191.647 201.453 191.313 201.258 191.067L201.251 191.058C201.174 190.969 201.093 190.884 201.014 190.807C200.957 190.752 200.906 190.707 200.863 190.67C200.665 190.618 200.539 190.563 200.528 190.559C200.384 190.502 200.253 190.438 200.153 190.388C199.946 190.284 199.71 190.151 199.466 190.008C198.971 189.718 198.324 189.314 197.579 188.831C197.191 188.58 196.772 188.304 196.327 188.008C197.733 189.871 199.114 191.682 200.282 193.192C201.843 195.209 202.9 196.524 203.187 196.821L203.245 196.881L203.298 196.944C203.925 197.684 204.891 199.032 205.479 200.225C205.492 200.248 205.506 200.274 205.52 200.3C205.614 200.47 205.735 200.688 205.822 200.864C205.879 200.978 205.97 201.169 206.044 201.389L206.048 201.401C206.089 201.518 206.317 202.175 206.113 202.954C205.972 203.491 205.621 204.097 204.963 204.494C204.373 204.851 203.801 204.877 203.49 204.86C202.933 204.831 202.5 204.626 202.368 204.563L202.366 204.562C202.002 204.39 201.605 204.13 201.237 203.877C199.87 202.935 197.052 200.762 191.714 196.647C191.069 196.15 190.387 195.624 189.666 195.069L189.661 195.065C185.929 192.172 180.848 188.214 178.334 186.184C175.863 184.189 173.039 182.062 172.181 181.471C171.146 180.758 168.209 178.456 165.633 176.279C164.943 175.734 164.281 175.222 163.675 174.765C163.583 176.094 163.515 177.703 163.488 179.452L163.487 179.465L163.487 179.478L163.254 188.248L163.039 196.294L158.657 189.542L154.376 182.945L154.375 182.945C153.686 181.882 153.1 180.975 152.593 180.192C149.972 176.141 149.499 175.409 148.05 173.561L143.241 183.619C143.24 183.621 143.239 183.623 143.238 183.625C141.444 187.413 139.784 190.846 138.549 193.328C137.932 194.566 137.414 195.584 137.035 196.295C136.849 196.644 136.679 196.953 136.539 197.184C136.476 197.289 136.381 197.443 136.271 197.59C136.228 197.647 136.101 197.815 135.91 197.988C135.825 198.065 135.6 198.263 135.257 198.419C134.943 198.563 134.051 198.879 133.061 198.367L132.321 197.985L131.958 197.235C131.858 197.027 131.809 196.85 131.796 196.804L131.795 196.802C131.775 196.729 131.762 196.668 131.754 196.632C131.738 196.558 131.727 196.491 131.72 196.447C131.705 196.354 131.691 196.249 131.678 196.146C131.652 195.935 131.62 195.652 131.585 195.313C131.514 194.631 131.422 193.674 131.319 192.515C131.114 190.199 130.86 187.05 130.626 183.619C130.385 180.597 130.144 177.787 129.938 175.584C128.446 176.974 126.591 178.75 124.596 180.712L124.588 180.719L124.581 180.727C122.15 183.077 119.893 185.164 118.208 186.616C117.376 187.332 116.631 187.939 116.053 188.347C115.791 188.533 115.433 188.772 115.059 188.937C114.914 189.001 114.481 189.189 113.922 189.196C113.613 189.201 113.099 189.153 112.566 188.838C111.979 188.491 111.608 187.96 111.433 187.42L113.813 186.653ZM113.813 186.653C113.844 186.75 114.034 186.684 114.357 186.477C114.398 186.451 114.441 186.423 114.486 186.392C114.84 186.152 115.321 185.777 115.906 185.29L115.992 175.711C115.305 178.637 114.701 181.368 114.302 183.373C113.816 183.778 113.436 184.075 113.168 184.264C113.034 184.358 112.976 184.392 112.976 184.393C112.976 184.393 112.997 184.382 113.036 184.364L113.038 184.364C113.065 184.351 113.385 184.203 113.852 184.197C113.931 184.196 114.028 184.199 114.139 184.211C113.877 185.593 113.75 186.49 113.813 186.653ZM238.196 194.956C238.241 194.99 238.232 194.98 238.183 194.946C238.189 194.95 238.193 194.954 238.196 194.956ZM234.707 196.065C234.706 196.067 234.708 196.06 234.711 196.043C234.708 196.056 234.707 196.063 234.707 196.065ZM2.71704 297.431C2.71681 297.431 2.71992 297.433 2.72708 297.434C2.72085 297.432 2.71727 297.431 2.71704 297.431ZM232.983 287.171C232.985 287.17 232.987 287.17 232.989 287.169C232.945 287.178 232.939 287.182 232.983 287.171ZM389.449 299.623C389.449 299.623 389.451 299.617 389.455 299.603C389.451 299.616 389.449 299.623 389.449 299.623Z" fill="#E7FFF0" stroke="#00A551" stroke-width="5"/>
<path d="M31.7987 198.179C31.7891 198.17 31.7797 198.162 31.7702 198.154C31.9747 199.569 32.2325 201.179 32.5165 202.778C33.115 206.145 33.9503 210.857 34.4747 214.137C34.7059 213.729 34.9417 213.312 35.1789 212.893C36.8114 210.009 38.513 207.003 39.2608 205.738L39.6961 204.98L36.4541 202.224L36.437 202.209L36.4202 202.194C35.1066 201.036 33.7909 199.897 32.7327 198.984C32.3951 198.692 32.08 198.421 31.7987 198.179Z" fill="#E7FFF0" stroke="#00A551" stroke-width="5"/>
<path d="M360.515 199.718L360.51 199.723C358.213 201.701 355.059 204.392 353.496 205.587C352.948 206.03 352.637 206.287 352.445 206.465C352.511 206.638 352.625 206.907 352.826 207.305C353.223 208.093 353.812 209.122 354.662 210.604L354.726 210.716C355.628 212.199 356.73 214.133 357.621 215.741C357.851 214.347 358.146 212.827 358.462 211.449C359.307 207.475 359.996 203.672 360.434 200.72C360.489 200.35 360.54 199.996 360.586 199.657C360.563 199.677 360.539 199.698 360.515 199.718Z" fill="#E7FFF0" stroke="#00A551" stroke-width="5"/>
<path d="M53.9363 215.421C53.4006 213.295 52.9484 211.576 52.5622 210.202C51.823 211.189 50.2546 213.848 48.9184 216.379C48.2077 217.726 47.3425 219.311 46.5457 220.767C46.4657 220.913 46.3863 221.058 46.308 221.202C45.5995 222.496 44.9694 223.647 44.559 224.425L44.545 224.451L44.5304 224.477C44.4572 224.608 44.3851 224.737 44.314 224.864C43.113 227.013 42.2127 228.624 41.5491 229.864C40.9955 230.899 40.6506 231.595 40.4443 232.077C40.6405 232.176 40.8929 232.287 41.1885 232.401C41.7589 232.622 42.3989 232.822 42.94 232.958C43.3512 233.027 43.4708 233.013 43.5246 233.004C43.5657 232.997 43.7436 232.964 44.1847 232.671C45.1951 231.999 46.7526 230.555 49.9348 227.431C52.6818 224.713 54.2218 223.089 55.0386 222.01C55.3179 221.641 55.4569 221.407 55.5231 221.278C55.454 221.023 55.3516 220.652 55.228 220.205C54.8772 218.935 54.3557 217.047 53.9398 215.435L53.938 215.428L53.9363 215.421ZM40.2191 232.709C40.2193 232.709 40.2203 232.704 40.2216 232.694C40.2195 232.704 40.2189 232.709 40.2191 232.709ZM55.5784 221.149C55.5777 221.149 55.5743 221.158 55.5704 221.175C55.5772 221.157 55.5791 221.149 55.5784 221.149Z" fill="#E7FFF0" stroke="#00A551" stroke-width="5"/>
<path d="M340.136 210.806C340.028 210.596 339.923 210.391 339.821 210.192C339.16 212.423 338.19 215.601 337.362 218.29L337.36 218.294L335.871 223.097L337.017 224.2L337.02 224.202C338.144 225.287 341.301 228.152 343.943 230.482L343.945 230.484L347.727 233.825L349.555 233.272C350.213 233.054 350.857 232.801 351.393 232.554C351.202 232.08 350.942 231.486 350.603 230.761C349.519 228.443 347.76 225.06 345.315 220.608L345.309 220.597L345.303 220.586C343.315 216.879 341.478 213.407 340.136 210.806Z" fill="#E7FFF0" stroke="#00A551" stroke-width="5"/>
</svg>
