<svg width="34" height="29" viewBox="0 0 34 29" fill="none" xmlns="http://www.w3.org/2000/svg">
<g filter="url(#filter0_d_2051_3498)">
<path d="M29 5L24.2523 7.63763C21.6053 9.10813 20.2819 9.84347 18.8803 10.1317C17.6397 10.3868 16.3603 10.3868 15.1197 10.1317C13.7182 9.84347 12.3947 9.10813 9.74773 7.63763L5 5M9.26667 19.6667H24.7333C26.2268 19.6667 26.9736 19.6667 27.544 19.376C28.0457 19.1204 28.4537 18.7124 28.7093 18.2107C29 17.6403 29 16.8935 29 15.4V5.26667C29 3.7732 29 3.02645 28.7093 2.45603C28.4537 1.95425 28.0457 1.54631 27.544 1.29065C26.9736 1 26.2268 1 24.7333 1H9.26667C7.7732 1 7.02645 1 6.45603 1.29065C5.95425 1.54631 5.54631 1.95425 5.29065 2.45603C5 3.02645 5 3.77319 5 5.26667V15.4C5 16.8935 5 17.6403 5.29065 18.2107C5.54631 18.7124 5.95425 19.1204 6.45603 19.376C7.02645 19.6667 7.77319 19.6667 9.26667 19.6667Z" stroke="#00A551" stroke-width="2" stroke-linecap="round" stroke-linejoin="round" shape-rendering="crispEdges"/>
</g>
<defs>
<filter id="filter0_d_2051_3498" x="0" y="0" width="34" height="28.666" filterUnits="userSpaceOnUse" color-interpolation-filters="sRGB">
<feFlood flood-opacity="0" result="BackgroundImageFix"/>
<feColorMatrix in="SourceAlpha" type="matrix" values="0 0 0 0 0 0 0 0 0 0 0 0 0 0 0 0 0 0 127 0" result="hardAlpha"/>
<feOffset dy="4"/>
<feGaussianBlur stdDeviation="2"/>
<feComposite in2="hardAlpha" operator="out"/>
<feColorMatrix type="matrix" values="0 0 0 0 0 0 0 0 0 0 0 0 0 0 0 0 0 0 0.25 0"/>
<feBlend mode="normal" in2="BackgroundImageFix" result="effect1_dropShadow_2051_3498"/>
<feBlend mode="normal" in="SourceGraphic" in2="effect1_dropShadow_2051_3498" result="shape"/>
</filter>
</defs>
</svg>
