<svg width="64" height="48" viewBox="0 0 64 48" fill="none" xmlns="http://www.w3.org/2000/svg">
<path d="M10.7934 34.2285C16.7626 32.5819 19.4522 43.8529 28 39.5C35.944 35.4545 25.3434 30.9424 33.4351 27.027C39.8161 23.9395 49.4425 35.9342 57.3121 32.5C64.4823 29.371 57.3121 11.9995 57.3121 11.9995" stroke="#00A551"/>
<path d="M5.79344 28.2402C11.7626 26.5936 14.4522 37.8647 23 33.5117C30.944 29.4662 20.3434 24.9541 28.4351 21.0387C34.8161 17.9512 44.4425 29.9459 52.3121 26.5117C59.4823 23.3827 52.3121 6.01126 52.3121 6.01126" stroke="#00A551" stroke-opacity="0.31"/>
<path d="M3.79344 25.2402C9.76263 23.5936 12.4522 34.8647 21 30.5117C28.944 26.4662 18.3434 21.9541 26.4351 18.0387C32.8161 14.9512 42.4425 26.9459 50.3121 23.5117C57.4823 20.3827 50.3121 3.01126 50.3121 3.01126" stroke="#00A551" stroke-opacity="0.31"/>
<path d="M8.79344 31.2402C14.7626 29.5936 17.4522 40.8647 26 36.5117C33.944 32.4662 23.3434 27.9541 31.4351 24.0387C37.8161 20.9512 47.4425 32.9459 55.3121 29.5117C62.4823 26.3827 55.3121 9.01126 55.3121 9.01126" stroke="#00A551" stroke-opacity="0.31"/>
<path d="M1.79344 23.2402C7.76263 21.5936 10.4522 32.8647 19 28.5117C26.944 24.4662 16.3434 19.9541 24.4351 16.0387C30.8161 12.9512 40.4425 24.9459 48.3121 21.5117C55.4823 18.3827 48.3121 1.01126 48.3121 1.01126" stroke="#00A551" stroke-opacity="0.31"/>
</svg>
