<svg width="23" height="24" viewBox="0 0 23 24" fill="none" xmlns="http://www.w3.org/2000/svg">
<path d="M8.50808 23.7481L8.42247 23.7478C8.20687 23.7367 7.99517 23.6839 7.79917 23.5921C7.57705 23.4881 7.38053 23.3365 7.22353 23.148C7.22352 23.148 7.22352 23.148 7.22351 23.148L0.715084 15.3341L0.71027 15.3284L0.705118 15.3229C0.548497 15.1563 0.427602 14.9595 0.349867 14.7445C0.272133 14.5295 0.239202 14.3008 0.2531 14.0726C0.266998 13.8444 0.327431 13.6215 0.430683 13.4175C0.533934 13.2135 0.677822 13.0328 0.853498 12.8864C1.02917 12.7401 1.23292 12.6313 1.45222 12.5666C1.67152 12.502 1.90172 12.4828 2.12868 12.5104C2.35564 12.538 2.57456 12.6117 2.77197 12.7271C2.96938 12.8424 3.14111 12.9969 3.2766 13.1811L3.28107 13.1871L3.28589 13.1929L8.02695 18.8841L8.25635 19.1594L8.43554 18.849L18.6901 1.08741C18.9123 0.702625 19.2784 0.421899 19.7076 0.306991C20.1369 0.192083 20.5942 0.252406 20.979 0.474689C21.3638 0.696973 21.6445 1.06301 21.7594 1.49227C21.8743 1.92154 21.814 2.37887 21.5917 2.76366L21.5917 2.76368L9.95695 22.9099C9.82207 23.1434 9.63285 23.341 9.40533 23.4858C9.17781 23.6305 8.91872 23.7183 8.65005 23.7416L8.64794 23.7418C8.60145 23.7462 8.55477 23.7483 8.50808 23.7481Z" fill="#00A551" stroke="#FDFDFD" stroke-width="0.5"/>
</svg>
