<svg width="19" height="24" viewBox="0 0 19 24" fill="none" xmlns="http://www.w3.org/2000/svg">
<path d="M16.3068 18.273L13.1825 16.1773C13.0506 16.0834 12.8961 16.0263 12.7349 16.0119C12.5737 15.9975 12.4115 16.0263 12.2651 16.0954L11.0656 16.7038C10.9151 16.7778 10.7463 16.8062 10.5799 16.7857C10.4134 16.7651 10.2566 16.6964 10.1287 16.588C7.88605 14.7323 6.38501 12.1324 5.8992 9.26238C5.86932 9.09738 5.88824 8.92724 5.95364 8.77283C6.01904 8.61843 6.12809 8.48646 6.2674 8.39313L7.35956 7.59877C7.49494 7.5096 7.60408 7.38592 7.67571 7.24049C7.74733 7.09506 7.77885 6.93315 7.76701 6.77147L7.5143 3.01787L7.45659 2.0564C7.44617 1.91803 7.40463 1.7838 7.33507 1.66373C7.22352 1.46886 7.0432 1.32269 6.82946 1.25388C6.24005 1.0577 5.61234 1.00499 4.99846 1.10015C4.38459 1.1953 3.80229 1.43557 3.29993 1.80098L3.0546 1.98771L2.92751 2.08512C2.86836 2.1278 2.81155 2.17364 2.75735 2.22244L2.6008 2.37293C0.534446 4.39242 0.923148 9.46952 3.5859 14.511L4.396 15.9141C7.42677 20.7341 11.6293 23.6093 14.4239 22.8719L14.6325 22.8116C14.7015 22.7892 14.7692 22.7632 14.8354 22.7335L14.9839 22.6733L15.2683 22.5542C15.8357 22.3016 16.3346 21.9173 16.7236 21.4331C17.1126 20.949 17.3805 20.3791 17.5051 19.7706C17.5524 19.5511 17.5159 19.3219 17.4029 19.1278C17.3337 19.0076 17.2383 18.9045 17.1236 18.8263L16.3068 18.273Z" stroke="#00A551" stroke-width="2" stroke-miterlimit="10"/>
</svg>
