<svg width="24" height="22" viewBox="0 0 24 22" fill="none" xmlns="http://www.w3.org/2000/svg">
<path fill-rule="evenodd" clip-rule="evenodd" d="M12.0004 17.454C15.0129 17.454 17.455 15.0119 17.455 11.9995C17.455 8.98703 15.0129 6.54492 12.0004 6.54492C8.98799 6.54492 6.5459 8.98703 6.5459 11.9995C6.5459 15.0119 8.98799 17.454 12.0004 17.454ZM12.0004 15.2799C10.1887 15.2799 8.71997 13.8112 8.71997 11.9995C8.71997 10.1877 10.1887 8.71899 12.0004 8.71899C13.8122 8.71899 15.2809 10.1877 15.2809 11.9995C15.2809 13.8112 13.8122 15.2799 12.0004 15.2799Z" fill="#00A551"/>
<path fill-rule="evenodd" clip-rule="evenodd" d="M9.33987 0C7.83813 0 6.52909 1.02206 6.16486 2.47897L5.6937 4.36364H3.27273C1.46525 4.36364 0 5.82889 0 7.63636V18.5455C0 20.353 1.46525 21.8182 3.27273 21.8182H20.7273C22.5348 21.8182 24 20.353 24 18.5455V7.63636C24 5.82889 22.5348 4.36364 20.7273 4.36364H18.3063L17.8352 2.47897C17.4709 1.02206 16.1619 0 14.6601 0H9.33987ZM8.28154 3.00814C8.40295 2.52251 8.83929 2.18182 9.33987 2.18182H14.6601C15.1607 2.18182 15.5971 2.52251 15.7185 3.00814L16.1896 4.8928C16.4325 5.86408 17.3051 6.54545 18.3063 6.54545H20.7273C21.3298 6.54545 21.8182 7.03388 21.8182 7.63636V18.5455C21.8182 19.148 21.3298 19.6364 20.7273 19.6364H3.27273C2.67024 19.6364 2.18182 19.148 2.18182 18.5455V7.63636C2.18182 7.03388 2.67024 6.54545 3.27273 6.54545H5.6937C6.69487 6.54545 7.56755 5.86408 7.81037 4.8928L8.28154 3.00814Z" fill="#00A551"/>
</svg>
