<svg width="24" height="26" viewBox="0 0 24 26" fill="none" xmlns="http://www.w3.org/2000/svg">
<path d="M18.4333 16.334V16.234H18.3333H17H16.9V16.334V19.0006C16.9 19.2046 16.9813 19.3992 17.1236 19.543L17.124 19.5434L18.6667 21.0847L18.7374 21.1554L18.808 21.0847L19.7507 20.142L19.8214 20.0713L19.7507 20.0006L18.4333 18.6832V16.334Z" fill="#00A551" stroke="#00A551" stroke-width="0.2"/>
<path d="M17.667 23.5667C15.1489 23.5667 13.1003 21.5181 13.1003 19C13.1003 16.4819 15.1489 14.4333 17.667 14.4333C20.1851 14.4333 22.2337 16.4819 22.2337 19C22.2337 21.5181 20.1851 23.5667 17.667 23.5667ZM17.667 12.9C14.3038 12.9 11.567 15.6368 11.567 19C11.567 22.3632 14.3038 25.1 17.667 25.1C21.0302 25.1 23.767 22.3632 23.767 19C23.767 15.6368 21.0302 12.9 17.667 12.9Z" fill="#00A551" stroke="#00A551" stroke-width="0.2"/>
<path d="M19 2.23334H17.1V1.66666C17.1 1.24343 16.7566 0.9 16.3333 0.9C15.9101 0.9 15.5667 1.24343 15.5667 1.66666V2.23334H6.43332V1.66666C6.43332 1.24343 6.08989 0.9 5.66666 0.9C5.24345 0.9 4.9 1.24343 4.9 1.66666V2.23334H3C1.84211 2.23334 0.9 3.17543 0.9 4.33334V23.6667V23.7667H1H10.3333H10.4333V23.6667V22.3333V22.2333H10.3333H2.43332V7.76666H19.5667V11.6667V11.7667H19.6667H21H21.1V11.6667V4.33334C21.1 3.17543 20.1579 2.23334 19 2.23334ZM19.5667 6.23334H2.43332V4.33334C2.43332 4.0207 2.68842 3.76666 3 3.76666H4.9V4.33334C4.9 4.75657 5.24345 5.1 5.66666 5.1C6.08989 5.1 6.43332 4.75657 6.43332 4.33334V3.76666H15.5667V4.33334C15.5667 4.75657 15.9101 5.1 16.3333 5.1C16.7566 5.1 17.1 4.75657 17.1 4.33334V3.76666H19C19.3116 3.76666 19.5667 4.02069 19.5667 4.33334V6.23334Z" fill="#00A551" stroke="#00A551" stroke-width="0.2"/>
</svg>
