<svg width="19" height="26" viewBox="0 0 19 26" fill="none" xmlns="http://www.w3.org/2000/svg">
<path d="M4.01932 25.1H14.8889C15.7162 25.1 16.5096 24.7714 17.0946 24.1864C17.6796 23.6014 18.0082 22.808 18.0082 21.9807V4.01932C18.0082 3.19203 17.6796 2.39862 17.0946 1.81363C16.5096 1.22864 15.7162 0.9 14.8889 0.9H4.01932C3.19203 0.9 2.39862 1.22864 1.81363 1.81363C1.22864 2.39862 0.9 3.19203 0.9 4.01932V21.9807C0.9 22.808 1.22864 23.6014 1.81363 24.1864C2.39862 24.7714 3.19203 25.1 4.01932 25.1ZM2.80904 2.80904C3.13003 2.48806 3.56538 2.30773 4.01932 2.30773H14.8889C15.3428 2.30773 15.7782 2.48806 16.0992 2.80904C16.4202 3.13003 16.6005 3.56538 16.6005 4.01932V21.9807C16.6005 22.4346 16.4202 22.87 16.0992 23.191C15.7782 23.5119 15.3428 23.6923 14.8889 23.6923H4.01932C3.56538 23.6923 3.13003 23.5119 2.80904 23.191C2.48806 22.87 2.30773 22.4346 2.30773 21.9807V4.01932C2.30773 3.56538 2.48806 3.13003 2.80904 2.80904Z" fill="#00A551" stroke="#00A551" stroke-width="0.2"/>
<path d="M7.05061 13.0514C7.76219 13.5269 8.59878 13.7807 9.45459 13.7807C10.6022 13.7807 11.7028 13.3248 12.5143 12.5133C13.3258 11.7018 13.7816 10.6012 13.7816 9.45362C13.7816 8.59781 13.5279 7.76122 13.0524 7.04964C12.5769 6.33806 11.9012 5.78345 11.1105 5.45594C10.3198 5.12844 9.44979 5.04275 8.61043 5.20971C7.77106 5.37667 7.00006 5.78878 6.39491 6.39393C5.78976 6.99908 5.37764 7.77009 5.21068 8.60945C5.04372 9.44882 5.12941 10.3188 5.45692 11.1095C5.78442 11.9002 6.33903 12.576 7.05061 13.0514ZM7.83271 7.02629C8.31279 6.70551 8.87721 6.53429 9.45459 6.53429C10.2288 6.53429 10.9714 6.84186 11.5189 7.38934C12.0663 7.93682 12.3739 8.67936 12.3739 9.45362C12.3739 10.031 12.2027 10.5954 11.8819 11.0755C11.5611 11.5556 11.1052 11.9298 10.5718 12.1507C10.0383 12.3717 9.45136 12.4295 8.88506 12.3168C8.31877 12.2042 7.7986 11.9262 7.39032 11.5179C6.98205 11.1096 6.70401 10.5894 6.59136 10.0231C6.47872 9.45686 6.53653 8.86988 6.75749 8.33644C6.97845 7.803 7.35262 7.34707 7.83271 7.02629Z" fill="#00A551" stroke="#00A551" stroke-width="0.2"/>
<path d="M5.8314 20.8761H13.0778C13.2645 20.8761 13.4435 20.8019 13.5755 20.6699C13.7075 20.5379 13.7816 20.3589 13.7816 20.1722C13.7816 19.9855 13.7075 19.8065 13.5755 19.6745C13.4435 19.5425 13.2645 19.4684 13.0778 19.4684H5.8314C5.64473 19.4684 5.4657 19.5425 5.3337 19.6745C5.2017 19.8065 5.12754 19.9855 5.12754 20.1722C5.12754 20.3589 5.2017 20.5379 5.3337 20.6699C5.4657 20.8019 5.64473 20.8761 5.8314 20.8761Z" fill="#00A551" stroke="#00A551" stroke-width="0.2"/>
</svg>
