<svg width="18" height="24" viewBox="0 0 18 24" fill="none" xmlns="http://www.w3.org/2000/svg">
<path d="M9 4C6.243 4 4 6.243 4 9C4 11.757 6.243 14 9 14C11.757 14 14 11.757 14 9C14 6.243 11.757 4 9 4ZM9 12C7.346 12 6 10.654 6 9C6 7.346 7.346 6 9 6C10.654 6 12 7.346 12 9C12 10.654 10.654 12 9 12ZM9 2C12.86 2 16 5.14 16 9C16 14.271 11.281 19.256 8.991 21.365C6.299 18.889 2 13.901 2 9C2 5.14 5.14 2 9 2ZM9 0C4.029 0 0 4.029 0 9C0 17 9 24 9 24C9 24 18 17.016 18 9C18 4.029 13.971 0 9 0Z" fill="#00A551"/>
</svg>
