<svg width="486" height="264" viewBox="0 0 486 264" fill="none" xmlns="http://www.w3.org/2000/svg">
<circle cx="404.557" cy="91.0898" r="81" fill="#E7FFF0"/>
<path d="M236.557 187.591C222.35 225.911 192.27 214.521 142.557 196.091C92.844 177.66 -9.64966 211.911 4.55709 173.591C18.7638 135.27 98.3446 77.1607 148.057 95.5911C197.77 114.021 250.764 149.27 236.557 187.591Z" fill="#E7FFF0"/>
<path d="M387.046 197.141V197.141C381.905 207.977 372.016 215.806 360.288 218.322L359.409 218.51" stroke="#00A551" stroke-linecap="round"/>
<path d="M399.958 190.177V190.177C393.538 210.135 375.806 224.319 354.926 226.197L342.784 227.289" stroke="#00A551" stroke-linecap="round"/>
<path d="M465.068 35.23C469.722 49.9618 465.143 66.1983 453.742 80.5857C442.346 94.9678 424.195 107.404 401.973 114.424C379.75 121.444 357.749 121.691 340.159 116.466C322.562 111.239 309.487 100.579 304.833 85.8474C300.179 71.1156 304.758 54.8791 316.159 40.4917C327.555 26.1096 345.706 13.6732 367.929 6.65323C390.151 -0.366703 412.152 -0.614069 429.742 4.61128C447.339 9.8386 460.415 20.4982 465.068 35.23Z" stroke="#00A551" stroke-opacity="0.22" stroke-width="2"/>
</svg>
