<svg width="184" height="244" viewBox="0 0 184 244" fill="none" xmlns="http://www.w3.org/2000/svg">
<circle cx="102.557" cy="91.0898" r="81" fill="#E7FFF0"/>
<path d="M85.0465 197.141V197.141C79.9053 207.977 70.0156 215.806 58.2881 218.322L57.4087 218.51" stroke="#00A551" stroke-linecap="round"/>
<path d="M97.9577 190.177V190.177C91.5385 210.135 73.8058 224.319 52.9256 226.197L40.7837 227.289" stroke="#00A551" stroke-linecap="round"/>
<path d="M163.068 35.23C167.722 49.9618 163.143 66.1983 151.742 80.5857C140.346 94.9678 122.195 107.404 99.9728 114.424C77.7505 121.444 55.7492 121.691 38.1589 116.466C20.5621 111.239 7.48676 100.579 2.83306 85.8474C-1.82064 71.1156 2.75838 54.8791 14.159 40.4917C25.5554 26.1096 43.7062 13.6732 65.9286 6.65323C88.151 -0.366703 110.152 -0.614069 127.742 4.61128C145.339 9.8386 158.415 20.4982 163.068 35.23Z" stroke="#00A551" stroke-opacity="0.22" stroke-width="2"/>
</svg>
