<svg width="20" height="20" viewBox="0 0 20 20" fill="none" xmlns="http://www.w3.org/2000/svg">
<mask id="path-1-inside-1_2043_4547" fill="white">
<path d="M19.8507 9.40942L18.0289 7.58755L10.7695 0.32039C10.6679 0.218815 10.5474 0.13824 10.4147 0.0832671C10.282 0.0282943 10.1397 0 9.99608 0C9.85244 0 9.7102 0.0282943 9.5775 0.0832671C9.44479 0.13824 9.32421 0.218815 9.22265 0.32039L1.95236 7.58286L0.125807 9.40942C0.0430072 9.49828 -0.0020696 9.6158 7.30291e-05 9.73724C0.00221566 9.85868 0.0514104 9.97455 0.137293 10.0604C0.223176 10.1463 0.339041 10.1955 0.460479 10.1976C0.581917 10.1998 0.699445 10.1547 0.788304 10.0719L1.81486 9.04536V18.9063C1.81486 19.1963 1.9301 19.4745 2.13521 19.6796C2.34033 19.8848 2.61853 20 2.90861 20H7.17578C7.46586 20 7.74406 19.8848 7.94917 19.6796C8.15429 19.4745 8.26952 19.1963 8.26952 18.9063V12.6563C8.26952 12.6148 8.28599 12.5751 8.31529 12.5458C8.34459 12.5165 8.38433 12.5 8.42577 12.5H11.5508C11.5922 12.5 11.6319 12.5165 11.6612 12.5458C11.6905 12.5751 11.707 12.6148 11.707 12.6563V18.9063C11.707 19.1963 11.8222 19.4745 12.0274 19.6796C12.2325 19.8848 12.5107 20 12.8008 20H17.0726C17.2162 20 17.3585 19.9717 17.4912 19.9167C17.6239 19.8618 17.7444 19.7812 17.846 19.6796C17.9476 19.5781 18.0281 19.4575 18.0831 19.3248C18.1381 19.1921 18.1664 19.0499 18.1664 18.9063V9.05004L19.1882 10.0719C19.2771 10.1547 19.3946 10.1998 19.5161 10.1976C19.6375 10.1955 19.7534 10.1463 19.8392 10.0604C19.9251 9.97455 19.9743 9.85868 19.9765 9.73724C19.9786 9.6158 19.9335 9.49828 19.8507 9.40942ZM17.2289 18.9063C17.2289 18.9477 17.2124 18.9874 17.1831 19.0167C17.1538 19.046 17.1141 19.0625 17.0726 19.0625H12.8008C12.7593 19.0625 12.7196 19.046 12.6903 19.0167C12.661 18.9874 12.6445 18.9477 12.6445 18.9063V12.6563C12.6445 12.3662 12.5293 12.088 12.3242 11.8829C12.119 11.6778 11.8408 11.5625 11.5508 11.5625H8.42577C8.13569 11.5625 7.8575 11.6778 7.65238 11.8829C7.44726 12.088 7.33203 12.3662 7.33203 12.6563V18.9063C7.33203 18.9477 7.31557 18.9874 7.28626 19.0167C7.25696 19.046 7.21722 19.0625 7.17578 19.0625H2.90861C2.86717 19.0625 2.82743 19.046 2.79812 19.0167C2.76882 18.9874 2.75236 18.9477 2.75236 18.9063V8.10942L9.87733 0.982888C9.90661 0.953786 9.94621 0.937451 9.98749 0.937451C10.0288 0.937451 10.0684 0.953786 10.0976 0.982888L17.2273 8.11255L17.2289 18.9063Z"/>
</mask>
<path d="M19.8507 9.40942L18.0289 7.58755L10.7695 0.32039C10.6679 0.218815 10.5474 0.13824 10.4147 0.0832671C10.282 0.0282943 10.1397 0 9.99608 0C9.85244 0 9.7102 0.0282943 9.5775 0.0832671C9.44479 0.13824 9.32421 0.218815 9.22265 0.32039L1.95236 7.58286L0.125807 9.40942C0.0430072 9.49828 -0.0020696 9.6158 7.30291e-05 9.73724C0.00221566 9.85868 0.0514104 9.97455 0.137293 10.0604C0.223176 10.1463 0.339041 10.1955 0.460479 10.1976C0.581917 10.1998 0.699445 10.1547 0.788304 10.0719L1.81486 9.04536V18.9063C1.81486 19.1963 1.9301 19.4745 2.13521 19.6796C2.34033 19.8848 2.61853 20 2.90861 20H7.17578C7.46586 20 7.74406 19.8848 7.94917 19.6796C8.15429 19.4745 8.26952 19.1963 8.26952 18.9063V12.6563C8.26952 12.6148 8.28599 12.5751 8.31529 12.5458C8.34459 12.5165 8.38433 12.5 8.42577 12.5H11.5508C11.5922 12.5 11.6319 12.5165 11.6612 12.5458C11.6905 12.5751 11.707 12.6148 11.707 12.6563V18.9063C11.707 19.1963 11.8222 19.4745 12.0274 19.6796C12.2325 19.8848 12.5107 20 12.8008 20H17.0726C17.2162 20 17.3585 19.9717 17.4912 19.9167C17.6239 19.8618 17.7444 19.7812 17.846 19.6796C17.9476 19.5781 18.0281 19.4575 18.0831 19.3248C18.1381 19.1921 18.1664 19.0499 18.1664 18.9063V9.05004L19.1882 10.0719C19.2771 10.1547 19.3946 10.1998 19.5161 10.1976C19.6375 10.1955 19.7534 10.1463 19.8392 10.0604C19.9251 9.97455 19.9743 9.85868 19.9765 9.73724C19.9786 9.6158 19.9335 9.49828 19.8507 9.40942ZM17.2289 18.9063C17.2289 18.9477 17.2124 18.9874 17.1831 19.0167C17.1538 19.046 17.1141 19.0625 17.0726 19.0625H12.8008C12.7593 19.0625 12.7196 19.046 12.6903 19.0167C12.661 18.9874 12.6445 18.9477 12.6445 18.9063V12.6563C12.6445 12.3662 12.5293 12.088 12.3242 11.8829C12.119 11.6778 11.8408 11.5625 11.5508 11.5625H8.42577C8.13569 11.5625 7.8575 11.6778 7.65238 11.8829C7.44726 12.088 7.33203 12.3662 7.33203 12.6563V18.9063C7.33203 18.9477 7.31557 18.9874 7.28626 19.0167C7.25696 19.046 7.21722 19.0625 7.17578 19.0625H2.90861C2.86717 19.0625 2.82743 19.046 2.79812 19.0167C2.76882 18.9874 2.75236 18.9477 2.75236 18.9063V8.10942L9.87733 0.982888C9.90661 0.953786 9.94621 0.937451 9.98749 0.937451C10.0288 0.937451 10.0684 0.953786 10.0976 0.982888L17.2273 8.11255L17.2289 18.9063Z" fill="#F87A69"/>
<path d="M19.8507 9.40942L20.5823 8.72769L20.5703 8.71479L20.5578 8.70231L19.8507 9.40942ZM18.0289 7.58755L17.3214 8.29428L17.3218 8.29466L18.0289 7.58755ZM10.7695 0.32039L11.477 -0.386336L11.4767 -0.386681L10.7695 0.32039ZM9.22265 0.32039L9.92937 1.02788L9.92979 1.02746L9.22265 0.32039ZM1.95236 7.58286L1.24564 6.87537L1.24526 6.87575L1.95236 7.58286ZM0.125807 9.40942L-0.5813 8.70231L-0.593776 8.71479L-0.605804 8.72769L0.125807 9.40942ZM0.788304 10.0719L1.47003 10.8035L1.48293 10.7915L1.49541 10.779L0.788304 10.0719ZM1.81486 9.04536H2.81486V6.63114L1.10776 8.33825L1.81486 9.04536ZM2.90861 20V21V20ZM8.26952 18.9063H7.26952H8.26952ZM12.8008 20V21V20ZM18.1664 9.05004L18.8735 8.34294L17.1664 6.63583V9.05004H18.1664ZM19.1882 10.0719L18.4811 10.779L18.4936 10.7915L18.5065 10.8035L19.1882 10.0719ZM17.2289 18.9063H18.2289V18.9061L17.2289 18.9063ZM12.6445 12.6563H11.6445H12.6445ZM8.42577 11.5625V10.5625V11.5625ZM2.75236 8.10942L2.04517 7.40239L1.75236 7.69527V8.10942H2.75236ZM9.87733 0.982888L9.17233 0.273677L9.17015 0.275858L9.87733 0.982888ZM9.98749 0.937451V-0.0625486V0.937451ZM10.0976 0.982888L10.8048 0.275778L10.8026 0.27368L10.0976 0.982888ZM17.2273 8.11255L18.2273 8.1124L18.2272 7.69827L17.9344 7.40544L17.2273 8.11255ZM20.5578 8.70231L18.736 6.88044L17.3218 8.29466L19.1436 10.1165L20.5578 8.70231ZM18.7363 6.88082L11.477 -0.386336L10.062 1.02712L17.3214 8.29428L18.7363 6.88082ZM11.4767 -0.386681C11.2822 -0.581125 11.0514 -0.735369 10.7974 -0.840603L10.032 1.00714C10.0433 1.01185 10.0537 1.01875 10.0624 1.02746L11.4767 -0.386681ZM10.7974 -0.840603C10.5433 -0.945837 10.2711 -1 9.99608 -1V1C10.0084 1 10.0206 1.00243 10.032 1.00714L10.7974 -0.840603ZM9.99608 -1C9.72111 -1 9.44883 -0.945837 9.19479 -0.840603L9.9602 1.00714C9.97158 1.00243 9.98377 1 9.99608 1V-1ZM9.19479 -0.840603C8.94075 -0.735369 8.70993 -0.581125 8.5155 -0.386681L9.92979 1.02746C9.93849 1.01875 9.94883 1.01185 9.9602 1.00714L9.19479 -0.840603ZM8.51592 -0.387097L1.24564 6.87537L2.65909 8.29035L9.92937 1.02788L8.51592 -0.387097ZM1.24526 6.87575L-0.5813 8.70231L0.832914 10.1165L2.65947 8.28997L1.24526 6.87575ZM-0.605804 8.72769C-0.865243 9.00612 -1.00648 9.37438 -0.999771 9.75488L0.999917 9.7196C1.00235 9.85723 0.951258 9.99043 0.857418 10.0911L-0.605804 8.72769ZM-0.999771 9.75488C-0.993058 10.1354 -0.838915 10.4984 -0.569814 10.7675L0.8444 9.35332C0.941736 9.45066 0.997489 9.58197 0.999917 9.7196L-0.999771 9.75488ZM-0.569814 10.7675C-0.300713 11.0366 0.0623319 11.1908 0.442838 11.1975L0.47812 9.1978C0.615751 9.20023 0.747066 9.25599 0.8444 9.35332L-0.569814 10.7675ZM0.442838 11.1975C0.823349 11.2042 1.1916 11.063 1.47003 10.8035L0.106582 9.3403C0.207286 9.24647 0.340485 9.19538 0.47812 9.1978L0.442838 11.1975ZM1.49541 10.779L2.52197 9.75246L1.10776 8.33825L0.0811976 9.36481L1.49541 10.779ZM0.814862 9.04536V18.9063H2.81486V9.04536H0.814862ZM0.814862 18.9063C0.814862 19.4615 1.03545 19.9941 1.42811 20.3868L2.84232 18.9725C2.82474 18.955 2.81486 18.9311 2.81486 18.9063H0.814862ZM1.42811 20.3868C1.82076 20.7794 2.35331 21 2.90861 21V19C2.88374 19 2.8599 18.9901 2.84232 18.9725L1.42811 20.3868ZM2.90861 21H7.17578V19H2.90861V21ZM7.17578 21C7.73107 21 8.26363 20.7794 8.65628 20.3868L7.24207 18.9725C7.22449 18.9901 7.20064 19 7.17578 19V21ZM8.65628 20.3868C9.04893 19.9941 9.26952 19.4615 9.26952 18.9063H7.26952C7.26952 18.9311 7.25965 18.955 7.24207 18.9725L8.65628 20.3868ZM9.26952 18.9063V12.6563H7.26952V18.9063H9.26952ZM9.26952 12.6563C9.26952 12.8801 9.18063 13.0947 9.0224 13.2529L7.60818 11.8387C7.39135 12.0555 7.26952 12.3496 7.26952 12.6563H9.26952ZM9.0224 13.2529C8.86416 13.4111 8.64955 13.5 8.42577 13.5V11.5C8.11911 11.5 7.82502 11.6219 7.60818 11.8387L9.0224 13.2529ZM8.42577 13.5H11.5508V11.5H8.42577V13.5ZM11.5508 13.5C11.327 13.5 11.1124 13.4111 10.9541 13.2529L12.3684 11.8387C12.1515 11.6218 11.8574 11.5 11.5508 11.5V13.5ZM10.9541 13.2529C10.7959 13.0947 10.707 12.8801 10.707 12.6563H12.707C12.707 12.3496 12.5852 12.0555 12.3684 11.8387L10.9541 13.2529ZM10.707 12.6563V18.9063H12.707V12.6563H10.707ZM10.707 18.9063C10.707 19.4616 10.9276 19.9941 11.3203 20.3868L12.7345 18.9725C12.7169 18.955 12.707 18.9311 12.707 18.9063H10.707ZM11.3203 20.3868C11.7129 20.7794 12.2455 21 12.8008 21V19C12.7759 19 12.7521 18.9901 12.7345 18.9725L11.3203 20.3868ZM12.8008 21H17.0726V19H12.8008V21ZM17.0726 21C17.3476 21 17.6198 20.9458 17.8739 20.8406L17.1085 18.9929C17.0971 18.9976 17.0849 19 17.0726 19V21ZM17.8739 20.8406C18.1279 20.7354 18.3587 20.5812 18.5531 20.3868L17.1389 18.9725C17.1302 18.9812 17.1199 18.9882 17.1085 18.9929L17.8739 20.8406ZM18.5531 20.3868C18.7475 20.1923 18.9018 19.9615 19.007 19.7075L17.1592 18.9421C17.1545 18.9535 17.1476 18.9638 17.1389 18.9725L18.5531 20.3868ZM19.007 19.7075C19.1122 19.4535 19.1664 19.1812 19.1664 18.9063H17.1664C17.1664 18.9186 17.1639 18.9308 17.1592 18.9421L19.007 19.7075ZM19.1664 18.9063V9.05004H17.1664V18.9063H19.1664ZM17.4593 9.75715L18.4811 10.779L19.8953 9.36481L18.8735 8.34294L17.4593 9.75715ZM18.5065 10.8035C18.7849 11.063 19.1532 11.2042 19.5337 11.1975L19.4984 9.1978C19.636 9.19538 19.7692 9.24647 19.87 9.3403L18.5065 10.8035ZM19.5337 11.1975C19.9142 11.1908 20.2772 11.0366 20.5463 10.7675L19.1321 9.35332C19.2295 9.25599 19.3608 9.20023 19.4984 9.1978L19.5337 11.1975ZM20.5463 10.7675C20.8154 10.4984 20.9696 10.1354 20.9763 9.75488L18.9766 9.7196C18.979 9.58197 19.0348 9.45065 19.1321 9.35332L20.5463 10.7675ZM20.9763 9.75488C20.983 9.37438 20.8418 9.00612 20.5823 8.72769L19.1191 10.0911C19.0253 9.99043 18.9742 9.85723 18.9766 9.7196L20.9763 9.75488ZM16.2289 18.9063C16.2289 18.6825 16.3178 18.4679 16.476 18.3096L17.8902 19.7238C18.107 19.507 18.2289 19.2129 18.2289 18.9063H16.2289ZM16.476 18.3096C16.6342 18.1514 16.8488 18.0625 17.0726 18.0625V20.0625C17.3793 20.0625 17.6734 19.9407 17.8902 19.7238L16.476 18.3096ZM17.0726 18.0625H12.8008V20.0625H17.0726V18.0625ZM12.8008 18.0625C13.0245 18.0625 13.2392 18.1514 13.3974 18.3096L11.9832 19.7238C12.2 19.9407 12.4941 20.0625 12.8008 20.0625V18.0625ZM13.3974 18.3096C13.5556 18.4679 13.6445 18.6825 13.6445 18.9063H11.6445C11.6445 19.2129 11.7663 19.507 11.9832 19.7238L13.3974 18.3096ZM13.6445 18.9063V12.6563H11.6445V18.9063H13.6445ZM13.6445 12.6563C13.6445 12.101 13.4239 11.5684 13.0313 11.1758L11.617 12.59C11.6346 12.6076 11.6445 12.6314 11.6445 12.6563H13.6445ZM13.0313 11.1758C12.6386 10.7831 12.1061 10.5625 11.5508 10.5625V12.5625C11.5756 12.5625 11.5995 12.5724 11.617 12.59L13.0313 11.1758ZM11.5508 10.5625H8.42577V12.5625H11.5508V10.5625ZM8.42577 10.5625C7.87048 10.5625 7.33792 10.7831 6.94527 11.1758L8.35949 12.59C8.37707 12.5724 8.40091 12.5625 8.42577 12.5625V10.5625ZM6.94527 11.1758C6.55262 11.5684 6.33203 12.101 6.33203 12.6563H8.33203C8.33203 12.6314 8.3419 12.6076 8.35949 12.59L6.94527 11.1758ZM6.33203 12.6563V18.9063H8.33203V12.6563H6.33203ZM6.33203 18.9063C6.33203 18.6825 6.42092 18.4679 6.57916 18.3096L7.99337 19.7238C8.21022 19.507 8.33203 19.2129 8.33203 18.9063H6.33203ZM6.57916 18.3096C6.73738 18.1514 6.95199 18.0625 7.17578 18.0625V20.0625C7.48245 20.0625 7.77654 19.9407 7.99337 19.7238L6.57916 18.3096ZM7.17578 18.0625H2.90861V20.0625H7.17578V18.0625ZM2.90861 18.0625C3.1324 18.0625 3.34701 18.1514 3.50523 18.3096L2.09102 19.7238C2.30785 19.9407 2.60194 20.0625 2.90861 20.0625V18.0625ZM3.50523 18.3096C3.66346 18.4679 3.75236 18.6825 3.75236 18.9063H1.75236C1.75236 19.2129 1.87418 19.507 2.09102 19.7238L3.50523 18.3096ZM3.75236 18.9063V8.10942H1.75236V18.9063H3.75236ZM3.45954 8.81645L10.5845 1.68992L9.17015 0.275858L2.04517 7.40239L3.45954 8.81645ZM10.5823 1.69209C10.4242 1.84924 10.2104 1.93745 9.98749 1.93745V-0.0625486C9.68202 -0.0625486 9.38897 0.0583274 9.17233 0.27368L10.5823 1.69209ZM9.98749 1.93745C9.76458 1.93745 9.55073 1.84925 9.39264 1.69209L10.8026 0.27368C10.586 0.0583236 10.2929 -0.0625486 9.98749 -0.0625486V1.93745ZM9.39054 1.68999L16.5202 8.81965L17.9344 7.40544L10.8047 0.275781L9.39054 1.68999ZM16.2273 8.11269L16.2289 18.9064L18.2289 18.9061L18.2273 8.1124L16.2273 8.11269Z" fill="#00A551" mask="url(#path-1-inside-1_2043_4547)"/>
</svg>
