<svg width="16" height="18" viewBox="0 0 16 18" fill="none" xmlns="http://www.w3.org/2000/svg">
<path d="M8.00259 18.0003C7.29535 18.0003 6.61708 17.7086 6.11698 17.1893C5.61689 16.67 5.33594 15.9657 5.33594 15.2313C5.33594 15.0477 5.40618 14.8716 5.5312 14.7418C5.65622 14.612 5.82579 14.5391 6.0026 14.5391H10.0026C10.1794 14.5391 10.349 14.612 10.474 14.7418C10.599 14.8716 10.6692 15.0477 10.6692 15.2313C10.6692 15.9657 10.3883 16.67 9.8882 17.1893C9.3881 17.7086 8.70983 18.0003 8.00259 18.0003ZM6.84926 15.9236C6.96647 16.1334 7.1347 16.3075 7.33711 16.4286C7.53952 16.5497 7.76901 16.6134 8.00259 16.6134C8.23618 16.6134 8.46566 16.5497 8.66807 16.4286C8.87048 16.3075 9.03871 16.1334 9.15592 15.9236H6.84926Z" fill="#00A551"/>
<path d="M9.33625 2.76903H6.66959C6.49278 2.76903 6.32321 2.69609 6.19819 2.56627C6.07317 2.43645 6.00293 2.26037 6.00293 2.07677C6.00293 1.52598 6.21364 0.997742 6.58871 0.608272C6.96378 0.218802 7.47249 0 8.00292 0C8.53335 0 9.04206 0.218802 9.41713 0.608272C9.7922 0.997742 10.0029 1.52598 10.0029 2.07677C10.0029 2.26037 9.93267 2.43645 9.80765 2.56627C9.68263 2.69609 9.51306 2.76903 9.33625 2.76903Z" fill="#00A551"/>
<path d="M15.3362 15.9222H0.669594C0.492784 15.9222 0.323216 15.8492 0.198192 15.7194C0.0731688 15.5896 0.00293109 15.4135 0.00293109 15.2299C0.00234643 14.4481 0.183935 13.6778 0.532198 12.9846C0.880461 12.2915 1.38506 11.6962 2.00292 11.2494V7.61507C2.00289 5.96986 2.62953 4.39142 3.74611 3.2242C4.86268 2.05698 6.37854 1.39573 7.96289 1.38477H8.03622C9.62751 1.38477 11.1536 2.04117 12.2788 3.20958C13.4041 4.37799 14.0362 5.96269 14.0362 7.61507V11.2494C14.6479 11.7 15.146 12.297 15.4884 12.9899C15.8307 13.6828 16.0072 14.4511 16.0029 15.2299C16.0029 15.4135 15.9326 15.5896 15.8076 15.7194C15.6826 15.8492 15.513 15.9222 15.3362 15.9222ZM1.40292 14.5376H14.6029C14.5084 14.0577 14.317 13.6041 14.0412 13.2067C13.7654 12.8093 13.4115 12.4772 13.0029 12.2324C12.9011 12.1714 12.8167 12.0836 12.7582 11.9778C12.6997 11.8721 12.6691 11.7521 12.6695 11.6302V7.61507C12.6695 6.32989 12.1779 5.09734 11.3027 4.18858C10.4275 3.27982 9.24056 2.76928 8.00289 2.76928C6.76522 2.76928 5.57824 3.27982 4.70308 4.18858C3.82791 5.09734 3.33625 6.32989 3.33625 7.61507V11.6302C3.33671 11.7521 3.30613 11.8721 3.2476 11.9778C3.18906 12.0836 3.10465 12.1714 3.00292 12.2324C2.59432 12.4772 2.24042 12.8093 1.96461 13.2067C1.68879 13.6041 1.49735 14.0577 1.40292 14.5376Z" fill="#00A551"/>
</svg>
