<svg width="16" height="16" viewBox="0 0 16 16" fill="none" xmlns="http://www.w3.org/2000/svg">
<path d="M8 0C3.57962 0 0 3.57962 0 8C0 12.4204 3.59236 16 8 16C12.4076 16 16 12.4076 16 8C16 3.59236 12.4204 0 8 0ZM8 0.968153C9.73248 0.968153 11.3121 1.59236 12.535 2.63694L10.5987 4.56051C9.87261 4.01274 8.96815 3.68153 8 3.68153C7.03185 3.68153 6.11465 4.01274 5.40127 4.56051L3.46497 2.63694C4.6879 1.6051 6.26752 0.968153 8 0.968153ZM11.3376 8C11.3376 9.83439 9.84713 11.3376 8 11.3376C6.15287 11.3376 4.66242 9.83439 4.66242 8C4.66242 6.1656 6.1656 4.66242 8 4.66242C9.83439 4.66242 11.3376 6.1656 11.3376 8ZM0.968153 8C0.968153 6.20382 1.64331 4.56051 2.76433 3.32484L4.6879 5.24841C4.06369 6 3.69427 6.95541 3.69427 8C3.69427 8.98089 4.02548 9.88535 4.57325 10.5987L2.63694 12.535C1.6051 11.3121 0.968153 9.73248 0.968153 8ZM8 15.0318C6.20382 15.0318 4.56051 14.3567 3.32484 13.2357L5.24841 11.3121C6 11.9363 6.95541 12.3057 8 12.3057C9.04459 12.3057 10.0127 11.9363 10.7516 11.3121L12.6752 13.2357C11.4395 14.3439 9.79618 15.0318 8 15.0318ZM13.3631 12.535L11.4395 10.5987C11.9873 9.87261 12.3185 8.96815 12.3185 8C12.3185 6.95541 11.949 5.98726 11.3248 5.24841L13.2484 3.32484C14.3567 4.57325 15.0446 6.20382 15.0446 8C15.0318 9.73248 14.3949 11.3121 13.3631 12.535Z" fill="#00A551"/>
</svg>
