<svg width="16" height="16" viewBox="0 0 16 16" fill="none" xmlns="http://www.w3.org/2000/svg">
<path fill-rule="evenodd" clip-rule="evenodd" d="M2.13921 2.672L4.63666 0L5.50949 0.933839L2.12951 4.55005L0.00292969 2.2752L0.885799 1.33063L2.13921 2.672ZM16.0029 2.96038H6.6415V1.5403H16.0029V2.96038Z" fill="#00A551"/>
<path fill-rule="evenodd" clip-rule="evenodd" d="M2.13921 14.1212L4.63666 11.4492L5.50949 12.3831L2.12951 15.9993L0.00292969 13.7244L0.885799 12.7798L2.13921 14.1212ZM16.0029 14.4096H6.6415V12.9895H16.0029V14.4096Z" fill="#00A551"/>
<path fill-rule="evenodd" clip-rule="evenodd" d="M2.13921 8.39661L4.63666 5.72461L5.50949 6.65845L2.12951 10.2747L0.00292969 7.99981L0.885799 7.05524L2.13921 8.39661ZM16.0029 8.68499H6.6415V7.26491H16.0029V8.68499Z" fill="#00A551"/>
</svg>
