<svg width="19" height="22" viewBox="0 0 19 22" fill="none" xmlns="http://www.w3.org/2000/svg">
<path d="M9.57229 11.0001C10.5612 11.0001 11.5279 10.7068 12.3502 10.1574C13.1724 9.60799 13.8133 8.82709 14.1917 7.91345C14.5702 6.99982 14.6692 5.99448 14.4762 5.02457C14.2833 4.05466 13.8071 3.16374 13.1078 2.46448C12.4086 1.76521 11.5177 1.289 10.5477 1.09608C9.57784 0.903149 8.5725 1.00217 7.65886 1.38061C6.74523 1.75905 5.96433 2.39991 5.41492 3.22216C4.86551 4.04441 4.57227 5.01112 4.57227 6.00003C4.57227 7.32612 5.09905 8.59789 6.03674 9.53558C6.97443 10.4733 8.2462 11.0001 9.57229 11.0001ZM9.57229 2.42858C10.2787 2.42858 10.9692 2.63804 11.5565 3.03048C12.1438 3.42291 12.6016 3.9807 12.8719 4.63329C13.1422 5.28589 13.2129 6.00399 13.0751 6.69678C12.9373 7.38957 12.5972 8.02594 12.0977 8.52542C11.5982 9.0249 10.9618 9.36504 10.269 9.50285C9.57625 9.64065 8.85815 9.56993 8.20556 9.29961C7.55296 9.0293 6.99518 8.57154 6.60274 7.98422C6.21031 7.39689 6.00084 6.70639 6.00084 6.00003C6.00084 5.05282 6.37712 4.14441 7.0469 3.47463C7.71667 2.80486 8.62508 2.42858 9.57229 2.42858Z" fill="#00A551" stroke="white" stroke-width="0.6"/>
<path d="M10.2858 12.4277H8.85718C6.77333 12.4277 4.77482 13.2555 3.30132 14.729C1.82781 16.2026 1 18.2011 1 20.2849C1 20.4744 1.07526 20.656 1.20921 20.79C1.34317 20.924 1.52485 20.9992 1.71429 20.9992H17.4287C17.6181 20.9992 17.7998 20.924 17.9337 20.79C18.0677 20.656 18.1429 20.4744 18.1429 20.2849C18.1429 18.2011 17.3151 16.2026 15.8416 14.729C14.3681 13.2555 12.3696 12.4277 10.2858 12.4277ZM2.47144 19.5706C2.64708 17.9996 3.39538 16.5485 4.57336 15.4943C5.75134 14.4402 7.27642 13.8571 8.85718 13.8563H10.2858C11.8665 13.8571 13.3916 14.4402 14.5696 15.4943C15.7476 16.5485 16.4959 17.9996 16.6715 19.5706H2.47144Z" fill="#00A551" stroke="white" stroke-width="0.6"/>
</svg>
