<svg width="33" height="33" viewBox="0 0 33 33" fill="none" xmlns="http://www.w3.org/2000/svg">
<g filter="url(#filter0_d_2242_2314)">
<path d="M16.0177 1.06505C9.94265 1.08795 5.03638 6.03135 5.05928 12.1064C5.08218 18.1815 10.0256 23.0878 16.1007 23.0649C22.1758 23.042 27.082 18.0986 27.0591 12.0235C27.0362 5.94843 22.0928 1.04216 16.0177 1.06505Z" stroke="#00A551" stroke-width="2"/>
<path d="M16.0386 6.56411L16.0635 13.1641" stroke="#00A551" stroke-width="2" stroke-linecap="round"/>
<path d="M16.0792 17.5655C15.4717 17.5677 14.9774 17.0771 14.9751 16.4696C14.9728 15.8621 15.4634 15.3678 16.0709 15.3655C16.6784 15.3632 17.1728 15.8538 17.175 16.4613C17.1773 17.0688 16.6867 17.5632 16.0792 17.5655Z" fill="#0FAA5B"/>
</g>
<defs>
<filter id="filter0_d_2242_2314" x="0.0595703" y="0.0644531" width="32" height="32" filterUnits="userSpaceOnUse" color-interpolation-filters="sRGB">
<feFlood flood-opacity="0" result="BackgroundImageFix"/>
<feColorMatrix in="SourceAlpha" type="matrix" values="0 0 0 0 0 0 0 0 0 0 0 0 0 0 0 0 0 0 127 0" result="hardAlpha"/>
<feOffset dy="4"/>
<feGaussianBlur stdDeviation="2"/>
<feComposite in2="hardAlpha" operator="out"/>
<feColorMatrix type="matrix" values="0 0 0 0 0 0 0 0 0 0 0 0 0 0 0 0 0 0 0.25 0"/>
<feBlend mode="normal" in2="BackgroundImageFix" result="effect1_dropShadow_2242_2314"/>
<feBlend mode="normal" in="SourceGraphic" in2="effect1_dropShadow_2242_2314" result="shape"/>
</filter>
</defs>
</svg>
