<svg width="12" height="12" viewBox="0 0 12 12" fill="none" xmlns="http://www.w3.org/2000/svg">
<circle cx="6" cy="6" r="6" fill="#F2B600"/>
<path d="M6 10C5.20888 10 4.43552 9.76541 3.77772 9.32588C3.11992 8.88636 2.60723 8.26164 2.30448 7.53074C2.00173 6.79983 1.92252 5.99557 2.07686 5.21964C2.2312 4.44372 2.61216 3.73099 3.17157 3.17157C3.73099 2.61216 4.44372 2.2312 5.21964 2.07686C5.99557 1.92252 6.79983 2.00173 7.53074 2.30448C8.26164 2.60723 8.88636 3.11992 9.32588 3.77772C9.76541 4.43552 10 5.20888 10 6C10 7.06087 9.57858 8.07828 8.82843 8.82843C8.07828 9.57858 7.06087 10 6 10ZM6 2.61539C5.33059 2.61539 4.67621 2.81389 4.11961 3.1858C3.56301 3.5577 3.1292 4.08631 2.87303 4.70477C2.61685 5.32322 2.54982 6.00376 2.68042 6.66031C2.81102 7.31686 3.13337 7.91994 3.60672 8.39329C4.08006 8.86663 4.68315 9.18899 5.3397 9.31958C5.99625 9.45018 6.67678 9.38315 7.29524 9.12698C7.9137 8.87081 8.4423 8.43699 8.81421 7.88039C9.18611 7.3238 9.38462 6.66942 9.38462 6C9.38462 5.10235 9.02803 4.24146 8.39329 3.60672C7.75855 2.97198 6.89766 2.61539 6 2.61539Z" fill="white"/>
<path d="M7.69239 7.9997C7.65189 7.99993 7.61175 7.99217 7.57426 7.97686C7.53677 7.96155 7.50268 7.93899 7.47393 7.91047L5.78162 6.21816C5.7531 6.18941 5.73054 6.15531 5.71523 6.11783C5.69992 6.08034 5.69215 6.04019 5.69239 5.9997V3.53816C5.69239 3.45656 5.72481 3.37829 5.78251 3.32059C5.84021 3.26289 5.91848 3.23047 6.00008 3.23047C6.08169 3.23047 6.15995 3.26289 6.21765 3.32059C6.27536 3.37829 6.30777 3.45656 6.30777 3.53816V5.87355L7.91085 7.47355C7.93969 7.50215 7.96258 7.53618 7.9782 7.57368C7.99382 7.61117 8.00186 7.65139 8.00186 7.69201C8.00186 7.73263 7.99382 7.77284 7.9782 7.81034C7.96258 7.84783 7.93969 7.88187 7.91085 7.91047C7.8821 7.93899 7.848 7.96155 7.81051 7.97686C7.77303 7.99217 7.73288 7.99993 7.69239 7.9997Z" fill="white"/>
</svg>
