<svg width="251" height="461" viewBox="0 0 251 461" fill="none" xmlns="http://www.w3.org/2000/svg">
<path d="M101.889 0.548627C101.103 0.793617 97.761 0.94061 94.5177 0.842615C88.9649 0.744619 88.5226 0.793617 86.9501 1.92057L85.3285 3.09652L85.5742 6.57538C85.6725 8.4863 86.4587 12.1612 87.3432 14.758C89.4563 21.3238 89.358 23.3327 86.7044 29.5554C83.0189 38.2281 82.7732 41.7559 85.4759 47.1457C88.1295 52.4375 87.3924 54.8874 81.2498 60.7672C76.9255 64.981 75.6969 68.0189 77.2694 70.9588C77.6626 71.6937 80.3161 74.5846 83.2154 77.4265C87.982 82.0813 89.8494 84.4332 89.8494 85.6582C89.8494 85.9032 88.6209 86.9321 87.1467 87.9121C85.525 88.99 84.5422 89.921 84.7388 90.264C84.9353 90.607 84.8862 90.656 84.4931 90.46C83.756 90.019 82.1343 91.9299 81.7412 93.6938C81.4955 94.6738 82.1835 97.5157 84.0017 103.003C85.4267 107.413 86.7535 111.186 86.9501 111.382C87.6381 112.215 89.4071 111.186 89.702 109.716C90.0459 107.854 90.7831 107.364 90.6848 109.079C90.5374 110.892 92.4538 111.578 93.7806 110.255C95.0583 108.981 95.9428 109.03 97.7119 110.353C98.9404 111.235 99.3335 111.333 100.464 110.794C101.496 110.353 101.692 109.961 101.496 108.981C101.397 108.344 101.545 107.609 101.84 107.413C102.134 107.217 102.773 106.482 103.265 105.747C103.953 104.669 104.002 104.179 103.51 103.199C102.921 101.877 102.626 101.73 99.53 101.191C98.4981 101.044 97.8101 100.701 97.9576 100.456C98.105 100.211 98.5472 98.2996 98.8912 96.1927C99.4318 93.1549 99.4318 92.2239 98.9404 91.6359C97.3187 89.676 97.7119 86.1481 99.7266 84.1392C100.808 83.1103 100.513 82.1793 98.9895 81.4443C97.3679 80.7094 97.8101 78.6025 99.874 77.5735C100.709 77.1325 101.938 76.3975 102.577 75.9076C103.216 75.3686 104.493 74.9766 105.427 74.9766C106.655 74.9766 107.196 74.6826 107.589 73.8497C108.523 71.7917 115.402 69.4888 115.402 71.2038C115.402 72.2327 117.073 73.5067 118.351 73.5067C119.874 73.5067 122.773 74.5846 122.773 75.1236C122.773 75.3686 122.282 75.4176 121.692 75.2216C117.466 73.8986 115.255 74.5846 113.879 77.6225C113.388 78.7984 112.601 79.9254 112.159 80.0724C111.717 80.2684 111.471 80.7094 111.668 81.1504C111.815 81.5423 111.766 81.7383 111.471 81.5913C109.8 80.5624 109.702 87.2261 111.225 93.8408C112.257 98.0057 112.159 100.603 111.029 101.632C110.488 102.121 109.948 103.395 109.8 104.522C109.653 105.649 109.407 107.511 109.211 108.638C108.965 110.451 109.063 110.745 110.194 111.48C111.275 112.166 111.619 112.215 112.257 111.676C112.896 111.186 113.093 111.186 113.437 111.725C114.174 112.901 113.339 115.302 111.373 117.654C110.341 118.928 109.506 120.349 109.506 120.839C109.506 121.329 109.014 122.211 108.474 122.799C107.196 124.171 107.54 125.298 109.358 125.935C110.144 126.229 111.078 126.571 111.471 126.718C111.963 126.914 111.668 127.306 110.341 127.943C109.358 128.482 108.277 129.315 107.933 129.805C107.638 130.344 107.098 130.638 106.803 130.54C105.771 130.099 100.267 133.186 99.9232 134.362C99.1369 137.204 98.5472 138.184 97.6136 138.184C97.073 138.184 95.9428 138.968 95.1074 139.899C94.272 140.83 93.3875 141.614 93.1418 141.614C92.3064 141.614 88.3752 146.073 87.6381 147.837C86.7044 150.042 86.7044 150.874 87.6872 151.952C88.7683 153.177 88.2769 154.353 85.2302 157.44C82.1835 160.478 81.6921 161.311 80.6601 164.79C80.267 166.211 79.3333 168.122 78.6454 169.053C77.9083 169.984 77.3677 170.964 77.466 171.16C77.5151 171.405 77.3677 171.454 77.122 171.307C76.5323 170.915 75.8444 171.944 75.8444 173.218C75.8444 173.855 74.9598 174.639 73.1416 175.667C71.6674 176.549 70.4881 177.48 70.5372 177.774C70.6355 178.117 70.4389 178.313 70.1441 178.215C69.8001 178.166 69.3087 179.342 69.0139 180.91C68.6207 182.772 67.9819 184.144 67.0482 185.075C64.4438 187.721 61.9376 191.494 60.66 194.679C59.5298 197.374 59.4315 198.06 59.9229 199.138C60.4634 200.264 60.3651 200.558 59.3823 201.636C58.5961 202.469 58.3504 203.204 58.4978 204.282C58.5961 205.066 58.5961 205.703 58.3995 205.654C57.8098 205.458 55.402 208.447 55.6477 209.084C55.7951 209.427 55.6477 209.672 55.3037 209.574C54.9597 209.525 54.026 210.848 53.2398 212.514C52.2078 214.621 50.3896 216.973 47.5395 219.864C42.9694 224.567 38.6942 230.3 40.8073 229.026C41.1512 228.781 41.2004 228.879 41.0038 229.271C40.7581 229.614 40.5124 229.761 40.365 229.614C40.2176 229.467 39.3331 230.006 38.3994 230.79C36.6303 232.358 34.1733 232.75 32.306 231.77C31.7163 231.427 31.0775 231.427 30.5861 231.672C29.7507 232.162 28.4239 235.249 28.4239 236.817C28.4239 237.307 27.8833 238.238 27.1954 238.875C25.5737 240.541 23.1167 240.541 21.5442 238.875C20.9054 238.189 20.1192 237.65 19.8243 237.65C18.9398 237.65 15.156 241.864 15.156 242.844C15.156 243.285 15.6474 243.726 16.1879 243.873C17.5147 244.216 20.07 249.458 20.07 251.81C20.07 252.692 19.1855 255.289 18.1535 257.543C16.4336 261.12 16.0405 261.659 14.9594 261.659C14.2714 261.659 13.6818 261.806 13.6326 262.002C13.4852 262.933 13.1412 265.922 13.0429 266.657C12.9938 267.098 12.8464 267.441 12.699 267.441C11.8144 267.343 11.1265 267.784 8.91514 269.842C7.53921 271.165 6.065 272.88 5.62273 273.712C4.83649 275.378 4.0011 279.396 3.36227 285.178C2.87087 289.49 1.9372 294.341 1.29838 295.713C1.05268 296.252 0.806974 300.563 0.708693 305.267C0.610412 309.971 0.36471 314.577 0.119008 315.508C-0.372396 317.86 0.708693 326.532 2.42861 333.441C2.67431 334.519 3.01829 336.822 3.16571 338.488C3.26399 340.203 3.60798 342.016 3.85368 342.506C4.14852 342.996 4.34508 343.927 4.34508 344.515C4.34508 345.103 4.93477 347.258 5.62273 349.316C6.3107 351.374 6.94952 353.775 6.99866 354.755C7.09695 355.686 7.39179 357.009 7.68663 357.695C9.75053 362.448 11.0282 366.907 11.7161 371.708C11.9618 373.619 12.5515 375.971 12.9447 377C14.0257 379.597 15.5 386.163 16.1388 391.259C16.8267 396.501 19.4803 404.929 22.1339 410.025C24.0012 413.7 24.0995 414.092 27.1954 429.967C27.5394 431.829 27.8342 435.21 27.7851 437.415C27.7851 440.061 27.9816 441.678 28.4239 442.217C28.7679 442.609 29.0627 443.687 29.0136 444.519C28.9644 446.675 29.6524 447.753 31.618 448.586C33.1905 449.223 33.3379 449.468 33.3379 451.281C33.3379 452.604 33.5836 453.388 34.075 453.535C35.0087 453.927 35.0087 455.691 34.075 456.965C33.1414 458.19 33.1414 459.317 34.1242 460.15C34.8121 460.738 35.1561 460.542 36.5812 458.876C37.5149 457.798 38.3502 456.573 38.4977 456.132C38.6451 455.691 40.5616 453.388 42.822 451.036C45.0333 448.684 46.9498 446.185 47.0972 445.499C47.2447 444.666 47.7361 444.127 48.5714 443.932C49.5051 443.736 49.8491 443.246 50.0948 441.972C50.4879 439.424 51.5199 438.101 53.8295 437.072C54.9597 436.582 56.1391 435.7 56.4339 435.112C56.7288 434.524 57.4167 433.642 57.9081 433.152C58.3995 432.662 58.9401 431.535 59.1366 430.653C59.3332 429.722 59.972 428.448 60.5617 427.762C62.5765 425.459 63.805 422.568 63.805 420.167C63.805 418.551 64.0507 417.62 64.5912 417.228C65.1318 416.836 65.4266 415.856 65.4757 414.386C65.4757 413.161 65.7214 411.985 65.9671 411.74C66.2129 411.495 66.262 411.593 66.0654 411.985C65.8689 412.279 65.918 412.573 66.2129 412.573C67.6379 412.573 68.3259 407.82 67.0974 406.595C66.1146 405.615 65.7214 401.45 66.5568 400.764C67.7853 399.735 67.8836 398.314 66.7534 397.138L65.6723 396.011L66.7043 394.983C67.2448 394.444 67.5888 393.66 67.4414 393.268C67.2939 392.876 67.5396 392.484 68.031 392.386C68.5224 392.337 69.7018 390.916 70.6846 389.299C72.6994 385.967 76.6306 382.684 78.6454 382.684C79.579 382.684 80.1687 382.243 80.955 380.92C81.8886 379.352 82.1343 379.205 83.6086 379.499C84.4439 379.695 85.4267 380.038 85.7216 380.283C86.6061 380.969 90.8322 383.174 91.3236 383.174C91.5693 383.174 92.0607 382.831 92.4538 382.439C93.0927 381.851 93.0927 381.361 92.503 378.911C92.159 377.343 91.6184 376.02 91.3236 375.922C91.0779 375.824 90.8322 375.432 90.8322 375.089C90.8322 374.697 90.3899 374.158 89.8002 373.864C88.3752 373.08 87.8346 371.316 88.7683 370.631C90.3408 369.504 88.9157 363.085 87.1467 363.085C86.1639 363.085 86.1639 358.038 87.1467 355.245C87.5398 354.118 87.8838 352.452 87.8838 351.619C87.8838 349.953 88.9157 348.189 90.6848 346.768C91.3236 346.23 92.3555 344.809 92.9944 343.584C94.5669 340.497 96.1885 339.125 101.299 336.381L105.623 334.029L107.049 335.695C108.424 337.361 108.424 337.361 110.538 336.724C111.717 336.381 113.584 335.891 114.665 335.695C117.27 335.254 117.515 335.058 119.383 332.314C124.493 324.817 124.886 322.857 121.987 319.379C121.004 318.252 119.481 316.782 118.597 316.145C116.582 314.675 113.732 308.795 112.7 303.797C112.012 300.367 112.012 299.877 112.896 296.203C114.223 290.617 114.911 286.599 114.911 284.541C114.911 282.924 115.255 282.483 118.203 280.033C120.022 278.563 121.692 277.338 121.987 277.338C122.233 277.338 123.461 278.416 124.69 279.739C126.361 281.552 127.442 282.238 128.867 282.532C130.587 282.826 130.931 282.728 131.963 281.552C132.602 280.817 133.093 279.935 133.093 279.641C133.093 279.298 133.879 278.318 134.813 277.387C135.747 276.505 136.533 275.525 136.533 275.231C136.434 273.32 134.96 268.715 134.125 267.833C133.339 267 132.995 265.824 132.798 263.031C132.552 260.287 132.208 258.964 131.422 257.984L130.341 256.612L127.688 257.886C126.213 258.572 124.886 259.062 124.69 258.964C123.707 258.327 122.773 255.093 122.823 252.398C122.872 250.242 122.675 249.066 121.987 248.087C121.496 247.303 120.857 245.294 120.513 243.628C119.923 240.541 119.923 240.492 121.348 238.924C122.135 238.042 122.577 237.111 122.38 236.915C122.184 236.67 122.282 236.67 122.626 236.817C123.461 237.307 125.329 234.71 125.083 233.387C124.985 232.799 125.083 232.407 125.329 232.554C125.82 232.848 126.066 232.211 126.459 229.271C126.705 227.262 126.557 226.821 125.476 225.449C124.346 224.175 123.805 223.931 121.987 223.931C120.66 223.931 118.793 223.441 117.27 222.706C115.894 222.02 114.321 221.481 113.781 221.481C112.307 221.481 109.997 224.126 109.997 225.792C109.997 227.213 109.948 227.262 108.179 226.87C106.901 226.576 105.673 225.743 104.395 224.322L102.478 222.216L102.773 217.316C103.166 210.995 105.427 202.518 107.491 199.579C109.162 197.276 109.358 196.737 108.424 197.276C108.031 197.472 107.933 197.423 108.179 197.178C108.424 196.933 108.867 196.737 109.162 196.737C109.506 196.688 109.702 196.443 109.653 196.1C109.555 195.757 109.751 195.561 110.095 195.659C110.439 195.708 111.029 195.071 111.471 194.287C111.864 193.454 112.847 192.229 113.584 191.494C114.321 190.759 114.911 189.73 114.911 189.142C114.911 188.603 115.255 188.162 115.648 188.162C116.68 188.162 117.565 186.055 117.171 184.487C116.975 183.801 116.189 182.821 115.402 182.331C113.781 181.4 113.928 180.518 115.55 181.351C116.975 182.135 117.466 181.106 117.221 177.774C117.073 174.933 115.796 172.679 114.764 173.316C114.518 173.463 114.42 173.365 114.616 173.071C114.764 172.777 114.714 172.434 114.42 172.238C113.633 171.748 113.83 171.111 114.911 170.768C116.729 170.18 117.073 168.71 116.14 165.574C115.304 162.781 115.304 162.634 116.14 161.703C116.631 161.164 117.417 160.723 117.909 160.723C118.793 160.723 120.316 158.518 120.316 157.195C120.316 156.852 120.759 156.019 121.25 155.333C122.036 154.353 122.282 154.255 122.97 154.794C123.412 155.137 123.658 155.578 123.56 155.774C123.167 156.46 124.297 158.273 125.132 158.273C125.624 158.273 126.754 157.391 127.688 156.264C129.063 154.5 129.211 154.108 128.719 153.079C127.884 151.217 128.031 150.874 129.604 151.021C130.39 151.07 130.98 151.266 130.832 151.462C130.734 151.658 131.52 152.54 132.602 153.471C134.027 154.647 134.715 155.627 134.862 156.803C135.206 158.861 135.845 159.743 137.024 159.743C138.007 159.743 140.12 157.195 140.71 155.333C140.906 154.647 141.398 153.667 141.742 153.128C142.626 151.854 142.626 150.972 141.594 149.846C140.906 149.062 140.857 148.866 141.496 148.327C141.938 148.033 142.774 146.906 143.462 145.877C144.1 144.897 145.034 143.917 145.525 143.77C146.066 143.623 146.312 143.182 146.164 142.79C146.017 142.398 146.066 142.153 146.312 142.349C147.196 142.888 149.752 140.095 150.538 137.694C151.226 135.587 152.503 133.774 152.946 134.313C152.995 134.411 153.634 135.979 154.322 137.743C155.403 140.536 155.452 141.124 154.911 142.153C154.223 143.427 154.42 149.944 155.255 152.736C155.845 154.598 156.533 154.941 158.449 154.108C159.629 153.618 160.464 152.442 162.725 147.837C164.248 144.701 165.526 141.663 165.526 141.026C165.526 139.458 168.376 133.921 169.359 133.578C169.801 133.431 171.324 132.353 172.749 131.226C174.125 130.05 176.926 127.747 178.941 126.082C180.956 124.416 183.265 122.75 184.002 122.358C186.066 121.329 188.032 120.937 188.376 121.525C188.818 122.26 190.686 122.113 191.767 121.28C192.307 120.888 193.683 120.545 194.862 120.545C196.042 120.545 197.418 120.3 197.958 119.957C199.776 118.83 207.295 122.211 207.295 124.171C207.295 125.004 210.489 127.992 210.931 127.551C211.128 127.355 211.128 127.551 210.98 127.943C210.784 128.482 211.275 129.217 212.455 130.148C213.438 130.932 214.813 132.108 215.501 132.745C216.239 133.382 217.565 134.117 218.548 134.362C220.121 134.803 220.366 134.754 221.398 133.529C222.037 132.843 222.528 131.863 222.528 131.422C222.528 129.56 221.447 124.22 220.956 123.632C220.612 123.191 220.759 122.505 221.546 121.28C222.283 120.055 222.578 119.075 222.381 118.144C222.185 117.115 222.332 116.478 223.02 115.89C223.56 115.4 224.003 114.518 224.003 113.979C224.003 113.342 225.231 111.823 227.197 110.01C229.506 107.854 230.391 106.678 230.391 105.796C230.391 105.11 230.931 104.032 231.619 103.395C232.357 102.709 232.848 101.681 232.848 100.848C232.848 99.9166 233.143 99.3286 233.732 99.1816C234.175 99.0346 234.912 98.6916 235.305 98.4466C235.698 98.2017 236.533 97.8097 237.123 97.5647C238.253 97.0747 238.499 96.4867 238.991 93.3509C239.187 91.8319 239.629 91.1949 240.71 90.558C242.332 89.627 242.774 87.4221 241.448 86.9321C240.416 86.5401 240.514 85.6092 241.693 84.8742C242.283 84.5312 242.578 83.9922 242.381 83.6982C242.185 83.3553 242.234 83.3063 242.578 83.5023C242.922 83.6982 243.413 83.1593 243.855 82.0813C244.249 81.1504 244.937 80.3664 245.33 80.3664C245.968 80.3664 247.099 78.9944 247.099 78.2105C247.099 78.0635 246.509 77.4265 245.772 76.7405C244.543 75.6136 244.543 75.5156 245.526 75.8096C246.312 76.0056 247.05 75.6136 248.327 74.3396C249.261 73.4087 250.047 72.3307 250.047 71.9877C250.047 71.5957 249.163 70.7628 248.081 70.0768C247 69.4398 245.231 68.0679 244.199 67.0389C242.578 65.422 242.283 64.785 242.037 62.3841C241.497 57.1903 239.285 55.4754 232.553 54.8874C229.162 54.5934 226.46 54.0054 223.61 52.9765C221.349 52.1435 218.843 51.4575 218.008 51.4575C215.895 51.4575 213.536 53.0745 211.472 55.9164C210.489 57.2393 209.211 58.4153 208.622 58.5623C208.032 58.7092 206.46 59.0033 205.182 59.2972C203.855 59.5912 201.152 60.6692 199.089 61.7471C197.074 62.8251 194.862 63.7071 194.224 63.7071C191.865 63.7071 189.31 62.1391 185.427 58.2683C181.545 54.4464 181.349 54.3484 177.565 53.4175C172.16 52.1435 165.034 49.6936 163.56 48.5667C162.872 48.0767 162.282 47.2927 162.184 46.8517C162.086 46.4107 163.265 43.4219 164.739 40.188C167.835 33.5243 168.13 31.5644 166.508 27.3505C165.034 23.5777 159.432 16.767 159.825 19.2169C159.973 20.3438 160.661 21.0788 161.201 20.7848C161.496 20.5888 161.594 20.6378 161.447 20.9318C161.25 21.1768 161.693 22.1567 162.381 23.0877C164.543 25.8806 166.017 29.5064 166.017 31.9073C166.017 33.5243 165.476 35.2882 163.904 38.5221C159.874 46.7537 159.776 48.3217 163.216 50.0366C165.87 51.3595 165.771 51.2126 164.838 52.5355C164.395 53.1235 164.051 54.0544 164.051 54.5444C164.051 55.7694 161.938 58.3663 157.172 62.9721C154.616 65.471 153.241 67.1859 153.241 67.9209C153.241 71.8407 149.408 74.6826 146.066 73.2617C145.083 72.8697 144.199 72.0367 143.904 71.3018C143.609 70.5668 142.97 69.8808 142.43 69.7338C141.299 69.4398 141.25 69.3418 141.987 68.0679C142.331 67.4309 142.774 67.1859 143.363 67.3819C144.739 67.8229 147.344 65.422 147.344 63.7071C147.344 62.8741 147.737 62.0901 148.376 61.6981C149.26 61.1102 149.408 60.4732 149.457 57.3373C149.506 54.3974 149.653 53.5155 150.39 53.0255C150.882 52.6825 151.275 51.9475 151.275 51.4575C151.275 50.7716 151.57 50.5266 152.258 50.6246C152.946 50.6736 153.535 50.2326 154.125 49.2526C154.567 48.4197 155.255 47.5867 155.599 47.3907C155.894 47.1947 156.189 46.3618 156.189 45.5778C156.189 44.4508 156.435 44.1078 157.172 44.1078C158.302 44.1078 158.499 42.7359 157.417 42.3439C156.68 42.0499 155.206 37.6401 155.206 35.6802C155.206 32.6913 154.223 30.8784 151.373 28.8695C149.85 27.7425 147.344 25.5376 145.869 23.9697C144.346 22.3527 142.774 21.0788 142.331 21.0788C141.889 21.0788 140.611 21.8628 139.432 22.7937C137.614 24.3617 137.073 24.5576 134.862 24.4596C133.339 24.4106 131.57 24.7046 130.439 25.1946C128.13 26.2236 125.869 25.9296 122.921 24.2147C121.791 23.5777 120.513 23.0387 120.071 23.0387C119.678 23.0387 118.498 22.2547 117.515 21.2748C115.845 19.6088 115.599 19.5109 113.486 19.8048C111.717 20.0498 110.783 20.5398 109.014 22.3037C106.508 24.8026 104.542 25.1456 102.233 23.6267C101.496 23.1367 100.464 22.4997 99.9232 22.2057C98.8912 21.6668 98.8912 21.5198 99.4809 17.5509C99.874 14.66 99.2843 13.6801 95.2548 10.5442C92.9452 8.68229 92.3064 7.89833 92.3064 6.86937C92.3064 4.95845 91.3236 4.32147 88.9157 4.71346C86.6553 5.05644 86.3604 4.56646 87.9329 3.14552C88.8666 2.36155 89.6528 2.21456 93.9772 2.36155C96.6799 2.41055 100.66 2.21456 102.773 1.92057C107.589 1.1366 109.014 1.72458 112.061 5.74241C113.24 7.31035 114.616 8.6333 115.108 8.73129C115.599 8.82929 117.171 8.33931 118.547 7.65334L121.103 6.37939L124.493 7.35935C126.41 7.89833 132.405 9.36827 137.81 10.6912C148.081 13.1901 153.29 15.199 157.024 17.9919C159.481 19.8538 159.481 19.8538 159.481 18.8249C159.481 17.7959 156.287 15.493 152.503 13.6801C148.13 11.6222 122.97 5.00744 120.562 5.25243C120.022 5.35043 118.646 5.88941 117.466 6.47738L115.353 7.60434L114.518 6.52638C114.076 5.9874 113.044 4.66446 112.257 3.6845C109.604 0.303637 106.213 -0.774319 101.889 0.548627ZM91.5693 6.91837C91.2745 8.09432 91.5693 8.4863 93.8789 10.2012C98.6947 13.7781 99.5792 15.346 98.6947 18.6289C97.9576 21.3728 98.3998 22.4017 100.955 23.5777C103.461 24.7536 104.002 25.3906 102.921 25.7826C101.938 26.1746 101.938 27.3995 102.872 28.6245C104.641 30.9764 102.724 33.1813 100.316 31.6134C99.7266 31.2214 98.9404 30.8784 98.5472 30.8784C97.4661 30.8784 95.3531 33.4263 94.6651 35.5332C94.0755 37.2481 93.8298 37.4931 92.6012 37.3951C90.9796 37.2971 89.358 35.9252 88.1295 33.5733C87.2449 31.9563 87.2449 31.9563 88.7683 28.4775C90.8813 23.7247 90.8813 20.8828 88.6209 13.7291C87.0975 8.92728 86.3604 4.71346 87.1958 5.49742C87.3432 5.64442 88.0312 5.64442 88.7683 5.44843C90.9796 4.81145 91.9133 5.30143 91.5693 6.91837ZM117.319 21.8138C118.351 22.7447 119.481 23.5287 119.776 23.5287C120.12 23.5287 121.348 24.0677 122.528 24.7536C125.329 26.4196 128.965 26.8605 131.078 25.7826C131.963 25.2926 133.142 24.9986 133.732 24.9986C136.729 25.2436 138.056 24.9006 139.629 23.5287C140.562 22.6957 141.791 22.0587 142.331 22.0587C143.658 22.0587 147.982 27.0565 147.54 28.1345C147.147 29.1145 148.769 29.8494 149.309 28.9185C149.604 28.4285 150.194 28.6735 151.717 29.8494C153.781 31.5154 153.978 31.8093 154.469 35.2882C154.666 36.5132 155.108 38.6691 155.452 40.041C155.845 41.6089 155.992 43.1279 155.747 43.9608C155.55 44.7448 155.452 45.5778 155.55 45.8718C155.648 46.1658 155.255 46.5577 154.666 46.7047C153.928 46.9007 153.683 47.2437 153.928 47.8317C154.322 48.8606 152.749 50.8206 152.209 49.9386C151.766 49.1546 150.783 49.8406 150.783 50.9676C150.783 51.4575 150.341 52.1925 149.801 52.5845C148.72 53.3685 148.032 55.6224 148.769 56.0634C149.604 56.6023 148.72 60.4732 147.54 61.7961C146.901 62.4821 146.361 63.4131 146.361 63.9521C146.361 64.834 145.034 66.6469 144.395 66.6469C144.199 66.6469 143.904 65.667 143.756 64.491C143.314 61.5022 142.626 60.2282 140.562 58.6602C139.285 57.6803 138.449 57.3863 137.761 57.6313C137.221 57.8273 135.452 58.0233 133.83 58.0723C132.208 58.1703 130.439 58.3663 129.899 58.5133C129.211 58.7582 128.277 58.4643 127.049 57.6313C126.017 56.9453 124.493 56.0144 123.609 55.5734C122.773 55.1324 121.25 54.1034 120.316 53.3685C119.383 52.5845 118.105 51.9475 117.515 51.9475C116.778 51.9475 116.189 51.5065 115.845 50.7716C115.009 49.0076 111.225 46.0678 109.8 46.0678C108.67 46.0678 108.523 45.8718 108.523 44.1568C108.523 41.7559 107.589 40.972 105.329 41.364C104.297 41.5599 102.872 41.462 101.889 41.119C100.218 40.482 100.12 40.531 98.2033 42.3929C97.1222 43.4219 96.3851 44.4018 96.4833 44.5488C96.6308 44.6468 97.6136 43.9608 98.6455 42.9319C100.316 41.315 100.66 41.119 101.643 41.6579C102.233 41.9519 103.707 42.1479 104.985 42.0499L107.294 41.9029L107.589 43.9608C107.884 46.4107 108.08 46.6557 109.702 46.8027C111.176 46.9987 113.584 48.7137 115.157 50.7716C115.796 51.6045 116.926 52.4865 117.663 52.6335C118.4 52.8295 119.678 53.5645 120.513 54.2504C121.348 54.9364 122.724 55.8184 123.511 56.2103C124.346 56.6023 125.673 57.3863 126.557 58.0233C127.982 59.0522 128.572 59.1502 132.208 59.0032C134.469 58.9052 137.024 58.6602 137.909 58.5133C139.285 58.2683 139.776 58.4153 141.005 59.5912C142.528 61.0612 142.872 61.8941 141.693 61.4532C140.808 61.1102 140.12 62.5801 140.857 63.3151C141.25 63.7071 141.594 63.7071 142.135 63.2661C142.724 62.7761 142.872 62.9721 143.167 64.246C143.462 65.422 143.314 66.01 142.724 66.402C141.643 67.1859 139.481 70.4688 139.481 71.3018C139.481 72.1347 136.385 72.7227 132.012 72.6737C128.375 72.6247 126.705 72.2327 126.705 71.4487C126.705 71.1548 127 71.1548 127.442 71.5467C127.982 71.9877 128.179 71.9877 128.179 71.5957C128.179 70.7138 126.656 70.3218 126.213 71.1058C125.968 71.4487 125.869 71.9387 126.017 72.1347C126.361 72.7227 123.904 73.1637 122.38 72.7717C121.643 72.6247 120.218 72.3307 119.186 72.1837C117.761 71.9877 117.171 71.5957 116.582 70.5178C115.992 69.3418 115.55 69.0968 114.076 69.0968C111.766 69.0968 106.901 71.4487 107.245 72.3797C107.393 72.7717 107.294 72.9187 107.049 72.7717C106.754 72.6247 106.557 72.7227 106.557 72.9677C106.557 73.2617 105.967 73.5067 105.23 73.5067C104.444 73.5067 103.068 73.9966 102.134 74.5846C101.201 75.1726 99.7757 76.0056 98.9404 76.3975C98.0558 76.8875 97.2696 77.8185 96.9256 78.7494C96.5816 79.9744 96.2868 80.2194 95.8445 79.7784C95.4514 79.3864 95.1074 79.3864 94.5669 79.8764C94.1246 80.2194 93.928 80.6604 94.0755 80.9054C94.4686 81.5913 93.1909 81.3953 91.0288 80.4154C89.8985 79.9254 88.5226 78.7984 87.9329 77.9655C87.3432 77.1325 86.5078 76.4465 86.1639 76.4465C85.7707 76.4465 85.3285 76.0056 85.181 75.4176C84.9353 74.6336 84.5914 74.4866 83.7068 74.6826C82.8223 74.9276 82.1343 74.4866 80.3161 72.5267C77.8591 69.9298 77.3677 67.7739 78.7928 65.863C79.6282 64.736 79.7265 64.0011 78.9402 64.491C78.5962 64.687 78.5471 64.638 78.7437 64.246C78.9402 63.9521 79.2842 63.8051 79.4808 63.9031C80.0213 64.246 86.6553 57.3863 87.5889 55.5244C88.8174 53.0745 88.5717 50.1346 86.901 46.8027C86.1147 45.1858 85.2793 43.1279 85.1319 42.2459C84.7879 40.531 85.4267 36.6112 86.4096 34.0633L86.9992 32.5933L87.9329 34.4552C90.0459 38.5221 95.2548 39.551 95.2548 35.9252C95.2548 35.2882 95.9919 33.9653 96.8765 32.9853C98.4981 31.2704 98.5472 31.2214 99.8249 32.0543C101.299 33.0833 103.56 32.9363 104.248 31.8093C104.641 31.2214 104.493 30.4374 103.707 28.9185C102.724 26.9095 102.724 26.7626 103.51 26.1746C103.953 25.8316 104.935 25.3906 105.673 25.2436C106.41 25.0476 108.031 23.9697 109.211 22.7937C111.275 20.8338 112.257 20.3438 114.518 20.1478C115.009 20.1478 116.238 20.8828 117.319 21.8138ZM148.818 28.4285C148.818 28.6735 148.621 28.9185 148.326 28.9185C148.081 28.9185 147.835 28.6735 147.835 28.4285C147.835 28.1345 148.081 27.9385 148.326 27.9385C148.621 27.9385 148.818 28.1345 148.818 28.4285ZM174.862 54.2014C180.907 55.8184 181.054 55.9164 183.609 58.5623C186.165 61.2081 187.098 61.8941 186.361 60.6202C186.115 60.2282 186.214 60.2282 186.803 60.7182C187.246 61.0612 187.491 61.5512 187.393 61.7961C186.951 62.4821 190.882 64.736 192.995 65.03C194.273 65.226 195.403 65.765 196.288 66.6959C197.909 68.4109 197.663 69.7828 195.256 72.4777C194.174 73.6537 193.536 74.8786 193.536 75.7116C193.536 76.4465 193.093 77.6715 192.504 78.4555C191.816 79.4354 191.521 80.4154 191.668 81.3953C191.816 82.1793 191.717 82.8163 191.521 82.8163C191.324 82.8163 190.342 83.6003 189.31 84.5312C187.59 86.1481 187.491 86.4421 187.393 89.578C187.197 94.6248 186.607 98.1527 185.771 99.1326C185.133 99.8186 185.083 100.309 185.526 101.387C186.017 102.709 185.919 102.856 184.248 103.64C181.349 104.963 178.99 106.776 178.351 108.099C177.958 108.932 177.516 109.275 176.926 109.079C175.894 108.736 175.403 109.079 174.076 110.99C173.29 112.068 172.897 113.832 172.504 117.703C171.865 123.583 172.16 125.543 173.192 122.995C173.978 121.182 174.076 118.781 173.437 118.34C172.602 117.85 173.486 113.097 174.764 111.284C175.403 110.304 176.14 109.569 176.435 109.667C177.418 109.912 178.744 109.226 179.039 108.246C179.236 107.707 180.612 106.482 182.135 105.502C184.248 104.13 185.427 103.738 187.393 103.64C188.769 103.591 190.145 103.444 190.44 103.248C191.472 102.611 191.963 104.228 192.307 109.52C192.553 112.852 192.946 115.302 193.388 115.988C194.027 116.968 194.027 117.213 193.241 118.242C192.012 119.81 189.899 120.741 188.818 120.153C187.934 119.663 184.838 120.202 183.02 121.133C181.496 121.917 179.776 123.583 180.022 124.024C180.169 124.22 180.022 124.563 179.727 124.759C179.334 124.955 179.285 124.906 179.481 124.563C179.678 124.22 179.678 123.975 179.432 123.975C179.088 123.975 177.712 125.102 170.882 130.785C168.72 132.598 168.621 132.598 167.491 131.177C166.656 130.197 166.558 130.148 166.214 130.981C166.066 131.471 166.115 132.108 166.459 132.451C167.295 133.284 167.098 134.166 166.017 134.509C165.28 134.754 165.083 135.097 165.28 135.783C165.476 136.322 165.378 137.008 165.132 137.351C164.838 137.694 164.494 138.821 164.297 139.899C163.953 141.908 162.626 145.289 161.3 147.494C160.906 148.18 160.268 149.405 159.874 150.189C159.53 151.021 158.793 152.099 158.253 152.589C157.27 153.422 157.221 153.422 156.779 152.54C156.533 152.05 156.189 149.797 156.091 147.494C155.894 144.358 156.042 143.084 156.582 142.202C157.221 141.222 157.172 140.83 156.189 138.429C155.403 136.518 155.255 135.538 155.599 135.097C156.189 134.362 156.582 131.373 156.091 131.373C154.96 131.324 152.749 132.01 152.749 132.353C152.749 132.598 152.307 132.549 151.766 132.206C150.489 131.373 149.309 132.353 150.243 133.48C150.636 133.921 150.636 134.264 150.341 134.509C150.046 134.656 149.604 135.685 149.309 136.763C148.916 138.086 147.933 139.556 146.41 141.026L144.051 143.329L144.002 141.908C144.002 141.026 144.69 139.311 145.673 137.694C147.54 134.705 147.737 133.088 146.508 131.716C145.869 130.981 145.82 130.589 146.263 129.56C147.737 126.424 149.997 124.416 153.339 123.338C153.83 123.142 154.322 122.309 154.518 121.28C154.715 120.251 155.354 119.124 156.14 118.536C156.828 117.997 157.516 116.919 157.663 116.233C157.811 115.449 158.302 114.861 158.843 114.763C159.383 114.616 159.629 114.763 159.432 115.106C158.941 115.89 160.562 116.38 161.25 115.694C161.693 115.204 161.644 114.959 161.103 114.518C160.661 114.175 160.415 113.489 160.513 112.999C160.612 112.46 160.317 111.725 159.825 111.333C158.941 110.696 158.941 110.598 160.366 109.471C161.201 108.834 161.988 108.295 162.135 108.295C162.331 108.295 162.872 107.462 163.314 106.433C164.395 104.179 169.604 98.5446 171.619 97.4667C172.454 96.9767 174.076 96.3887 175.206 96.0947C178.007 95.3108 180.071 93.4978 181.693 90.215L183.069 87.4711L181.693 85.5602C180.022 83.3063 179.825 83.6492 181.3 86.0991L182.381 87.8141L181.251 89.823C179.236 93.4978 176.779 95.5558 174.273 95.5558C173.634 95.5558 172.356 96.0947 171.373 96.6827C169.015 98.1037 163.314 104.375 162.921 105.943C162.725 106.629 161.693 107.756 160.612 108.491C158.449 109.912 158.253 110.451 159.481 111.823C160.268 112.705 160.268 112.803 158.744 113.979C157.86 114.665 157.172 115.596 157.172 116.086C157.172 116.527 156.533 117.409 155.698 117.997C154.911 118.634 154.223 119.418 154.223 119.81C154.223 120.937 153.142 122.995 152.503 122.995C151.275 122.995 148.72 124.612 148.228 125.739C147.933 126.376 147.491 126.914 147.245 126.914C147.049 126.914 146.459 127.698 146.017 128.629C145.231 130.246 145.28 130.393 146.115 132.01L147.049 133.725L144.887 138.135C143.658 140.536 142.38 142.545 142.086 142.545C141.349 142.594 141.25 143.868 141.938 144.309C142.233 144.505 142.135 145.191 141.594 146.171C140.955 147.396 140.71 147.543 140.562 146.857C140.317 145.681 139.629 145.828 138.253 147.298C137.319 148.327 137.172 148.768 137.565 149.307C137.958 149.748 138.302 149.797 138.744 149.454C139.186 149.062 139.579 149.258 140.169 150.14C141.152 151.658 141.152 152.099 140.267 152.834C139.923 153.128 139.481 154.01 139.285 154.745C139.137 155.48 138.548 156.607 137.958 157.244C137.122 158.273 136.877 158.322 136.484 157.734C136.238 157.391 136.041 156.558 136.041 156.019C136.041 154.892 134.321 152.393 133.535 152.393C133.24 152.393 133.191 152.687 133.388 152.981C133.584 153.324 133.584 153.471 133.388 153.275C133.191 153.128 133.044 152.834 133.093 152.638C133.142 152.442 132.552 151.658 131.815 150.874C129.309 148.278 125.918 149.405 127.098 152.491C127.393 153.324 127.54 154.206 127.393 154.402C126.901 155.235 125.132 154.843 123.658 153.618L122.135 152.344L121.004 153.422C120.366 154.01 119.825 154.353 119.825 154.157C119.825 153.912 119.481 154.01 119.088 154.353C118.646 154.696 118.203 154.843 118.007 154.696C117.565 154.255 115.894 155.284 115.894 156.019C115.894 156.754 117.565 158.371 117.958 158.028C118.105 157.881 118.351 158.175 118.449 158.665C118.646 159.4 118.498 159.547 117.81 159.4C116.729 159.106 115.255 160.135 115.746 160.87C115.894 161.115 115.796 161.213 115.55 161.066C115.255 160.87 114.714 161.066 114.37 161.507C113.83 162.144 113.879 162.83 114.567 165.476C115.452 168.906 115.353 169.543 113.879 169.543C113.339 169.543 112.749 169.935 112.601 170.376C112.405 170.866 111.963 171.503 111.52 171.797C110.439 172.63 111.176 174.149 112.356 173.512C113.584 172.875 115.304 174.639 115.894 177.039C116.238 178.656 116.189 178.754 114.714 179.097C113.879 179.293 112.847 179.44 112.356 179.391C111.225 179.244 110.685 180.371 111.569 181.008C111.963 181.302 112.405 181.939 112.601 182.38C112.749 182.87 113.339 183.262 113.83 183.262C114.911 183.262 115.894 184.193 115.894 185.173C115.894 185.663 115.746 185.761 115.501 185.467C114.764 184.438 112.11 182.87 111.619 183.164C111.373 183.36 110.98 184.144 110.783 184.879C110.538 186.006 110.734 186.545 112.012 187.77C113.682 189.485 113.486 190.857 111.619 190.857C110.243 190.906 107.687 193.895 108.424 194.63C108.818 195.022 108.474 195.757 107.294 197.325C106.41 198.501 105.23 200.46 104.739 201.636C104.248 202.959 103.609 203.743 103.265 203.596C102.331 203.253 101.938 204.331 102.626 205.507C103.068 206.389 103.019 207.222 102.429 209.525C101.987 211.093 101.496 214.621 101.299 217.316L101.004 222.216L102.822 224.567C104.002 226.135 104.542 227.262 104.346 227.85C104.198 228.34 104.297 228.879 104.592 229.075C105.427 229.565 105.181 230.006 103.363 231.231C102.429 231.868 101.643 232.701 101.643 233.044C101.643 234.024 99.7757 234.906 98.9895 234.22C98.4981 233.877 97.9084 233.877 96.9256 234.22C96.1885 234.514 95.0091 234.612 94.3212 234.465C93.6332 234.318 91.8641 234.514 90.4882 234.857C88.8666 235.298 86.4587 235.445 84.1 235.298C81.9869 235.2 80.4144 235.2 80.5618 235.396C81.1515 235.984 87.8838 236.229 89.5545 235.69C91.7659 235.004 98.3015 234.71 99.0386 235.298C99.6775 235.788 102.085 234.367 102.134 233.485C102.134 232.897 104.935 230.643 106.213 230.153C106.655 230.006 107.049 229.467 107.049 229.075C107.049 228.487 107.442 228.34 108.424 228.438C109.653 228.585 109.751 228.732 109.604 230.398C109.456 232.407 109.948 232.75 111.078 231.378C112.208 230.055 112.454 228.928 111.864 227.654C111.225 226.135 111.717 224.126 112.896 223.49C113.584 223.098 114.616 223.294 116.926 224.175C118.597 224.861 120.808 225.4 121.791 225.4C124.051 225.4 125.476 226.772 124.936 228.438C124.739 229.075 124.592 229.908 124.641 230.349C124.837 231.574 122.97 235.445 121.692 236.474C121.054 236.964 120.022 238.091 119.432 238.973C118.547 240.198 117.761 240.639 115.599 241.08C113.584 241.521 112.749 241.521 112.208 241.08C111.717 240.639 111.176 240.688 110.046 241.276C109.26 241.717 108.08 242.06 107.54 242.06C106.95 242.06 105.869 242.452 105.181 242.991C102.282 245 96.5816 244.461 93.8789 241.962C92.8961 240.982 92.0116 240.786 87.4906 240.541C84.5914 240.394 81.7904 240.1 81.2498 239.855C80.4144 239.512 80.3653 239.561 80.9058 240.149C81.3481 240.639 83.2646 240.933 86.901 241.129C91.5693 241.374 92.4047 241.521 93.8789 242.599C96.4833 244.559 99.8249 245.49 102.282 244.853C103.412 244.608 104.69 244.118 105.083 243.775C106.655 242.501 107.049 242.452 107.049 243.628C107.049 245.343 102.773 249.801 100.415 250.634C98.8912 251.124 98.3998 251.565 98.0558 252.839C97.8101 253.868 97.8593 254.652 98.2033 255.044C98.5472 255.436 98.6455 255.975 98.449 256.269C97.5644 257.69 100.562 260.189 103.117 260.189C103.609 260.189 104.641 260.973 105.378 261.904C106.95 263.962 107.589 263.815 106.115 261.757C105.476 260.826 104.1 259.944 102.134 259.258C100.513 258.67 99.1861 258.033 99.1369 257.837C99.1369 257.641 99.0386 256.955 98.9895 256.269C98.8912 255.583 98.7929 254.799 98.6947 254.554C98.6455 254.26 98.5964 253.476 98.6455 252.692C98.6947 251.712 98.9404 251.369 99.6775 251.369C100.267 251.369 101.299 251.075 102.085 250.683C103.854 249.752 108.031 244.853 108.031 243.677C108.031 242.452 111.176 241.227 112.159 242.011C112.601 242.403 113.24 242.403 114.026 242.109C114.665 241.864 115.992 241.57 116.926 241.472L118.597 241.325L119.137 244.265C119.383 245.882 120.022 247.793 120.464 248.479C121.004 249.311 121.348 250.977 121.447 253.427C121.545 256.269 121.84 257.396 122.675 258.621C124.199 260.728 125.181 260.875 127.786 259.503C129.702 258.474 130.095 258.425 130.341 259.013C130.489 259.454 130.832 259.65 131.078 259.503C131.324 259.307 131.373 259.748 131.176 260.483C130.685 262.394 131.717 267.882 132.749 268.617C133.191 268.96 133.928 270.577 134.321 272.145L135.108 275.035L133.633 276.554C132.847 277.387 131.864 278.808 131.422 279.641C130.538 281.405 129.801 281.601 127.786 280.572C126.656 279.984 123.265 276.358 123.265 275.721C123.265 275.574 123.658 275.574 124.199 275.721C125.427 276.015 125.918 275.133 125.034 274.251C124.051 273.32 124.543 271.606 125.869 271.263C127.196 270.92 129.85 266.804 129.457 265.775C128.965 264.452 127 265.187 126.459 266.902C125.968 268.274 125.869 268.372 124.985 267.735C123.658 266.755 122.429 266.902 121.594 268.078C121.201 268.666 120.366 269.401 119.776 269.695C117.761 270.724 117.515 271.704 119.039 273.026C120.366 274.153 120.366 274.251 119.628 275.035C119.137 275.476 118.253 275.868 117.614 275.868C116.926 275.868 115.501 276.358 114.37 276.897C112.307 278.024 110.98 277.975 102.233 276.505C101.103 276.309 100.316 276.505 99.6775 277.093C98.8421 277.828 98.105 277.926 94.9108 277.681C92.7978 277.534 90.3408 277.142 89.4563 276.848L87.8838 276.26L88.9649 274.496C89.9968 272.831 89.9968 272.733 89.2106 270.479C88.1786 267.588 88.1295 265.285 89.1123 264.893C89.5054 264.746 89.8494 264.158 89.8494 263.57C89.8494 262.933 90.2425 262.443 90.8813 262.296C91.7659 262.051 91.8641 261.708 91.7167 259.111C91.5693 256.269 91.6676 256.073 93.2401 254.799C94.5669 253.672 94.9108 252.986 95.0583 251.222C95.2057 249.409 95.0091 248.772 93.6823 247.058C91.471 244.216 88.8174 242.991 84.1 242.795L80.267 242.599L83.6577 243.04C90.7339 243.922 94.272 246.519 94.272 250.732C94.272 252.741 94.0263 253.231 92.503 254.603C90.7831 256.171 90.7831 256.269 91.0779 258.866C91.3727 261.267 91.3236 261.561 90.3899 261.806C89.7511 261.953 89.358 262.443 89.358 263.08C89.358 263.619 88.9157 264.305 88.3752 264.599C87.5398 265.04 87.3924 265.481 87.5889 267.049C87.7363 268.078 88.0803 269.401 88.326 269.94C89.1123 271.361 88.9649 273.124 88.0312 274.839C87.2941 276.064 86.7044 276.407 84.6896 276.701C82.5275 277.044 82.1343 277.289 81.3972 278.906C80.955 279.837 79.7756 281.16 78.7928 281.748C77.7608 282.385 76.9746 283.316 76.778 284.1C76.2375 286.697 75.5495 288.363 74.4193 290.078C73.7805 291.009 73.0925 292.577 72.9451 293.557C72.6994 294.782 72.4045 295.321 71.8149 295.272C71.3726 295.272 70.9303 295.517 70.832 295.86C70.6846 296.252 70.8812 296.35 71.4709 296.105C72.2571 295.811 72.3063 295.86 71.6674 296.497C71.0778 297.183 70.6846 297.183 68.8664 296.644C66.0654 295.811 65.3283 295.321 63.3627 293.312C61.1022 291.009 58.9401 290.862 57.4167 293.018C56.827 293.9 56.1391 294.341 55.6968 294.194C54.7631 293.802 54.1243 295.419 54.9597 295.958C55.9425 296.546 55.1071 298.162 52.7484 300.073C49.9965 302.327 48.7189 305.365 49.456 308.06L49.9474 309.922L49.9965 307.325C50.0457 304.14 50.7828 302.67 53.682 299.975C54.9106 298.848 55.9425 297.623 55.9425 297.281C55.9425 296.938 56.5813 295.615 57.4167 294.341C59.2841 291.352 60.4143 291.352 63.3627 294.194C64.9352 295.713 66.3603 296.546 68.375 297.134C70.6846 297.819 71.176 298.113 71.176 298.995C71.176 299.583 70.6355 300.661 69.9475 301.347C69.063 302.278 68.5224 303.552 68.1785 305.806C67.9328 307.521 67.2448 309.824 66.7534 310.951C66.2129 312.029 65.7706 313.401 65.7706 313.94C65.7706 314.479 65.3283 315.459 64.8369 316.096C64.0015 317.125 63.5101 317.272 61.0531 317.174C58.7435 317.076 57.7607 316.733 55.7459 315.312C52.257 312.96 51.7164 313.156 55.058 315.557C57.1219 317.027 58.4487 317.566 60.4634 317.811C63.9524 318.203 65.5249 317.272 66.262 314.381C66.5568 313.303 67.1957 311.49 67.7362 310.412C68.2767 309.285 68.8173 307.129 69.0139 305.61C69.2596 303.552 69.6527 302.474 70.4881 301.69C71.1269 301.102 71.8149 299.877 71.9623 298.995C72.3554 297.036 72.7977 296.742 73.7805 297.819C74.665 298.848 75.1073 303.307 74.321 303.307C73.6331 303.307 73.0434 304.532 73.4856 304.973C73.6822 305.12 74.2227 305.267 74.7633 305.267C75.5495 305.267 75.5987 305.414 75.1073 306.002C74.7633 306.394 74.6159 307.178 74.7633 307.717C74.9598 308.501 74.665 308.795 73.0925 309.187C70.6846 309.824 69.7018 311.294 69.7018 314.136C69.7018 316.047 69.407 316.782 68.031 318.399C66.95 319.722 66.2129 320.212 65.918 319.918C65.1809 319.183 64.0015 320.751 64.6895 321.584C65.0335 321.975 64.9843 322.465 64.4929 323.102C64.0998 323.641 63.805 324.768 63.805 325.65C63.805 326.532 63.6084 327.365 63.3627 327.561C63.117 327.708 62.5273 328.982 62.1342 330.403C61.2988 333.196 59.8737 334.96 59.0875 334.176C58.7926 333.882 58.3504 333.882 57.9081 334.176C57.3184 334.568 57.2693 334.813 57.7607 335.646C58.3504 336.528 58.203 336.724 56.4339 337.9C54.714 339.027 54.4683 339.419 54.4683 341.085C54.4683 342.555 54.1735 343.143 53.0432 343.976C51.913 344.76 51.4707 345.593 51.0285 347.797C50.2914 351.423 46.8515 356.813 45.3773 356.617C44.5911 356.519 44.2962 355.931 43.9031 353.432C43.6574 351.766 43.2151 350.247 43.0186 350.002C42.7729 349.806 42.7237 350.443 42.8712 351.423C43.0186 352.452 43.2643 354.069 43.4608 355.049C43.7065 356.813 45.2299 357.94 46.4584 357.254C47.6869 356.617 51.5199 350.1 51.5199 348.63C51.5199 346.719 52.0113 345.985 53.2398 346.083C53.9769 346.181 54.2717 345.838 54.37 344.956C54.9106 339.86 55.058 339.517 56.9253 338.292C59.2349 336.724 62.8222 331.971 62.8222 330.403C62.8222 329.717 63.2644 328.639 63.805 327.953C64.4438 327.12 64.6895 326.287 64.4929 325.552C64.1981 324.425 65.0335 323.151 68.8173 318.595C69.8492 317.37 70.1932 316.488 70.1932 314.822C70.1932 311.196 70.6355 310.853 72.208 313.352C72.9942 314.577 73.8296 315.557 74.0753 315.557C74.321 315.557 75.1564 316.733 75.9427 318.105C77.6134 321.29 78.7928 321.584 81.3972 319.673C82.38 318.889 83.3137 318.105 83.3629 317.909C83.4611 317.664 84.3457 317.076 85.3285 316.586C86.3604 316.096 87.5889 315.214 88.0803 314.626C88.8666 313.744 88.9157 313.401 88.4243 312.274C87.9329 311.147 87.982 310.804 88.7192 309.726C90.2425 307.717 91.127 307.374 92.2573 308.403C93.3384 309.383 93.7315 308.844 92.6995 307.815C91.6676 306.786 89.9968 307.178 88.67 308.746C87.2941 310.363 87.1467 310.951 87.8838 312.813C88.2769 313.891 88.1295 314.136 86.5078 315.116C85.525 315.753 83.5103 317.174 82.0852 318.35C80.611 319.526 79.1859 320.457 78.8911 320.457C78.1048 320.457 76.5815 318.938 76.5815 318.154C76.5815 317.811 75.6969 316.537 74.6159 315.361C73.4856 314.185 72.4045 312.519 72.1588 311.686C71.7657 310.314 71.864 310.118 73.0434 309.873C74.9107 309.432 75.6478 308.697 75.353 307.668C75.2055 307.227 75.353 306.639 75.6478 306.443C75.9918 306.247 76.0901 306.296 75.9427 306.541C75.5004 307.325 76.4341 308.354 77.2694 308.06C78.3505 307.619 78.2522 306.688 77.122 306.394C76.1392 306.149 75.5987 304.14 75.5987 300.759C75.5987 299.583 75.2055 298.505 74.3702 297.525C73.2891 296.203 73.1908 295.86 73.5839 293.802C74.0753 291.107 74.8124 290.078 76.0409 290.421C77.2694 290.715 77.9083 289.588 76.9255 288.853C76.3849 288.51 76.2866 288.069 76.6306 287.579C76.8763 287.187 77.0729 286.158 77.0729 285.276C77.0729 284.443 77.1712 283.708 77.2694 283.708C77.3677 283.708 77.9083 283.561 78.3997 283.414C79.1368 283.169 79.1368 283.218 78.5471 283.659C78.154 283.904 78.0065 284.296 78.2031 284.492C78.3505 284.688 78.8419 284.541 79.2842 284.198C79.8247 283.757 79.8739 283.414 79.5299 282.973C79.1368 282.483 79.2842 282.14 80.1196 281.552C80.7093 281.111 81.5447 280.033 81.9869 279.2C82.9697 277.093 85.9182 276.505 89.8494 277.534C93.9772 278.71 98.8912 278.759 100.021 277.73C100.562 277.24 101.496 276.848 102.085 276.848H103.166L102.184 278.269C101.053 279.886 100.267 282.826 99.7266 287.53C99.4318 290.274 99.1861 290.813 97.8101 291.94C96.4833 293.067 96.2376 293.606 96.2376 295.37C96.2376 297.134 95.9428 297.77 94.7634 298.897C93.4366 300.171 92.6504 302.278 93.7806 301.592C94.0263 301.445 94.272 301.004 94.272 300.71C94.272 300.367 94.9108 299.534 95.6971 298.848C96.9747 297.721 97.1222 297.33 96.8765 295.664C96.6799 293.949 96.8273 293.557 98.3998 292.087C99.9232 290.617 100.169 290.078 100.169 288.069C100.169 286.844 100.513 284.982 100.906 284.051C101.299 283.071 101.643 281.699 101.643 281.062C101.643 280.376 102.134 279.249 102.773 278.563C103.707 277.436 104.002 277.338 105.23 277.779C106.017 278.073 107.54 278.318 108.67 278.318C109.8 278.318 111.078 278.514 111.422 278.759C112.159 279.249 111.668 279.445 108.768 279.886C107.736 280.082 107.589 281.111 108.277 283.855C108.572 284.933 108.474 285.178 107.687 285.178C107.147 285.178 106.311 285.521 105.771 285.913C104.542 286.844 105.034 286.844 107.245 285.913C108.67 285.325 109.014 284.884 109.014 283.806C109.014 282.287 112.552 278.514 115.255 277.142C116.827 276.358 119.334 276.064 119.334 276.701C119.334 276.848 118.007 278.22 116.385 279.739C113.732 282.189 113.437 282.728 113.437 284.443C113.437 286.599 112.798 290.47 111.422 296.203C110.931 298.358 110.636 300.612 110.783 301.249C110.98 301.837 110.832 302.621 110.538 303.013C110.243 303.356 110.144 304.042 110.292 304.532C110.587 305.316 110.39 305.365 108.179 305.022C106.311 304.777 105.623 304.875 105.132 305.463C104.788 305.855 103.707 306.443 102.724 306.786C99.874 307.717 95.0091 311.833 93.7806 314.381C92.7978 316.341 92.503 316.586 91.471 316.292C90.6848 316.096 90.3899 316.194 90.5865 316.537C90.7339 316.782 91.4219 317.027 92.1098 317.027C93.0435 317.027 93.4858 316.586 94.1246 315.018C94.96 312.911 100.611 307.717 102.085 307.717C102.528 307.717 103.658 307.227 104.592 306.639C105.771 305.904 107.098 305.561 108.916 305.512C111.275 305.512 111.52 305.61 111.815 306.737C111.963 307.423 112.945 309.726 113.928 311.931C115.206 314.724 116.238 316.243 117.417 317.027C118.351 317.664 119.383 318.595 119.727 319.085C120.071 319.575 120.562 319.869 120.808 319.722C121.054 319.575 121.398 319.722 121.594 320.016C121.791 320.408 121.742 320.457 121.398 320.261C120.562 319.771 120.66 320.408 121.545 321.241C123.019 322.71 122.429 324.915 119.334 329.668C116.68 333.686 116.189 334.176 114.911 334.176C114.125 334.176 112.552 334.519 111.471 334.96C109.309 335.842 108.031 335.597 108.031 334.421C108.031 334.029 107.442 333.441 106.705 333.147C105.525 332.706 104.788 332.951 101.053 334.862C98.6947 336.136 96.8765 336.822 97.0239 336.43C97.1713 336.038 95.8937 334.421 93.9772 332.559C90.9796 329.619 90.6848 329.08 90.4882 326.973C90.1934 323.984 92.2573 319.33 93.6823 319.82C94.3703 320.065 94.4194 320.016 93.8789 319.428C93.0435 318.497 91.7167 319.379 91.2253 321.192C91.0288 321.975 90.2425 323.151 89.4563 323.886C88.67 324.572 87.6381 325.748 87.1467 326.483C86.7044 327.218 86.0164 327.806 85.6725 327.806C85.3285 327.806 84.9353 328.296 84.7388 328.884C84.1491 331.138 84.2965 331.334 86.8027 330.991C88.0803 330.795 89.4563 330.55 89.8985 330.452C90.3408 330.305 91.9133 331.432 93.7806 333.196C97.1713 336.381 97.1222 336.087 94.3703 339.076C93.7806 339.762 92.6012 341.428 91.815 342.849C91.0288 344.221 90.0459 345.544 89.6037 345.789C88.0803 346.67 86.4096 349.561 86.4096 351.374C86.4096 352.354 86.0656 354.118 85.6725 355.245C85.2793 356.372 84.9353 358.528 84.9353 359.949C84.9353 362.399 84.4439 363.281 83.7068 362.105C83.2154 361.321 80.611 361.517 80.1196 362.399C79.5299 363.477 76.3358 363.722 73.1416 362.987C70.4389 362.35 70.4389 362.35 70.1441 360.145C69.9475 358.92 69.9967 357.744 70.2424 357.45C70.832 356.813 70.7829 354.412 70.1441 353.236C69.8492 352.599 69.2596 352.305 68.5716 352.403C67.6379 352.55 67.4905 352.305 67.3431 350.835C67.1957 349.316 67.4905 348.826 69.1613 347.258C70.2424 346.278 71.2252 345.103 71.3726 344.613C71.5692 344.123 72.6011 343.094 73.6822 342.31C75.4021 341.085 75.6478 340.693 75.5004 339.468C75.3038 338.341 75.5495 337.851 76.4341 337.263C77.466 336.577 77.81 336.577 78.9402 337.165C81.1024 338.243 81.3481 338.243 80.0213 337.165C78.5471 335.94 77.1712 335.891 75.6969 336.92C74.8124 337.508 74.6159 337.998 74.8616 339.027C75.1073 340.203 74.8616 340.644 72.8959 342.212C71.6674 343.241 70.6846 344.27 70.6846 344.564C70.6846 344.858 69.8001 345.838 68.7682 346.768C67.6871 347.65 66.7043 349.022 66.5077 349.855C66.1146 351.717 66.9991 353.383 68.375 353.187C69.751 352.991 70.6846 355.294 69.8492 356.666C69.3087 357.548 69.3578 361.615 69.8984 362.546C70.2915 363.134 74.6159 364.065 77.0237 364.065C78.154 364.065 79.3825 363.673 80.1687 363.085C80.8567 362.546 81.6921 362.105 82.0852 362.105C83.1663 362.105 84.9353 363.575 84.9353 364.457C84.9845 365.584 86.7535 367.642 87.3924 367.25C87.6872 367.054 87.8838 367.446 87.8838 368.181C87.8838 368.867 87.6872 369.455 87.3924 369.455C87.1467 369.455 86.901 369.112 86.901 368.72C86.901 367.838 85.0828 367.74 84.7879 368.573C84.4931 369.602 84.9845 370.924 85.7216 370.924C86.1147 370.924 86.6553 371.512 86.9501 372.247C87.2449 372.982 87.7363 373.913 88.0312 374.305C88.3752 374.697 88.6209 375.775 88.6209 376.755C88.6209 378.666 90.0459 379.597 90.4882 377.931C90.6356 377.294 90.7339 377.392 90.7831 378.274C90.8322 378.96 91.0288 379.842 91.2745 380.234C92.1098 381.508 91.3236 381.704 89.2106 380.626C88.0803 380.038 87.0484 379.499 86.9501 379.401C86.8518 379.352 86.9992 378.715 87.2941 378.029C88.0312 376.412 87.1467 375.922 85.7707 377.147C84.1491 378.617 83.5594 378.862 83.1663 378.225C82.9206 377.833 83.0189 377.784 83.5103 378.029C84.0508 378.323 84.1 378.274 83.6086 377.735C83.068 377.196 82.724 377.245 81.6429 378.078C80.8567 378.617 80.0704 379.548 79.7756 380.136C79.5299 380.724 78.8419 381.214 78.3014 381.214C75.9427 381.214 71.176 385.232 69.3578 388.76C68.9647 389.593 68.1785 390.671 67.7362 391.112C66.95 391.847 66.7534 391.847 66.262 391.259C65.918 390.867 64.9843 390.524 64.1981 390.524C63.0187 390.524 62.773 390.671 63.0187 391.357C63.2644 392.092 63.2153 392.092 62.5765 391.308C61.4954 389.887 61.6919 388.76 63.1661 387.633L64.4438 386.604L65.6232 387.682C66.3111 388.319 66.6551 389.054 66.5077 389.593C66.3603 390.083 66.4586 390.573 66.7534 390.769C67.6871 391.357 67.2448 389.054 66.1637 387.535C65.2792 386.359 64.8369 386.114 63.7558 386.359C62.0851 386.751 60.7583 385.526 61.1514 383.909C61.3971 382.978 61.1514 382.635 59.6772 381.949C58.6944 381.459 57.7116 380.822 57.515 380.528C56.9745 379.646 54.9597 374.648 54.9597 374.109C54.9597 373.864 55.9916 372.639 57.2202 371.365C59.8246 368.769 60.5126 366.319 59.972 362.301C59.6772 360.194 59.4806 359.9 58.3995 359.802C57.171 359.655 57.171 359.655 58.3012 360.145C59.2841 360.537 59.3823 360.929 59.3823 364.31V367.985L56.8762 370.728C54.1243 373.766 54.1243 373.913 55.7459 378.421C56.1882 379.744 57.0727 381.116 57.7116 381.557C58.3504 381.949 58.8909 382.733 58.8909 383.223C58.8909 383.762 59.2349 384.301 59.628 384.448C60.66 384.889 60.5617 385.477 59.3332 385.771C58.0555 386.114 58.3504 387.339 59.6772 387.339C60.2669 387.339 60.5617 387.045 60.5617 386.457C60.4634 385.624 60.5126 385.624 61.3971 386.408C62.2325 387.143 62.2816 387.339 61.5937 388.074C61.2005 388.515 60.8565 389.054 60.8565 389.299C60.8565 389.495 60.5126 389.936 60.0212 390.279C59.5789 390.622 59.3332 391.21 59.5298 391.651C59.8737 392.582 64.149 392.582 63.9033 391.602C63.805 390.965 64.2964 390.867 65.4266 391.308C66.3603 391.651 65.9671 393.66 64.7386 394.738C63.5101 395.864 63.5593 396.403 65.1318 397.628L66.4094 398.706L65.3775 399.735C64.7878 400.323 64.0015 400.813 63.6575 400.764C63.2153 400.764 63.2153 400.666 63.7067 400.47C64.0015 400.372 64.1981 400.029 64.0015 399.784C63.8541 399.539 63.5101 399.441 63.2644 399.588C62.429 400.127 62.8222 401.597 64.0507 402.675C65.0826 403.557 65.1809 403.949 64.7878 404.978C64.3947 406.007 64.4929 406.301 65.2792 406.791C66.6551 407.673 66.5077 409.927 64.9843 411.74C64.149 412.769 63.805 413.553 64.0015 414.337C64.3947 415.758 63.5101 416.297 62.429 415.366C61.9868 414.974 60.3651 414.484 58.8909 414.337C57.4167 414.141 55.9425 413.749 55.5985 413.455C55.1071 413.063 54.714 413.161 54.026 413.798C52.3553 415.268 50.7828 414.239 50.881 411.691C50.9302 411.397 50.7336 411.103 50.4879 411.103C49.7508 411.103 49.9965 413.161 50.881 414.141C51.7656 415.121 53.4855 415.317 54.2717 414.533C54.6157 414.19 55.6477 414.288 57.4167 414.729C58.8909 415.121 60.2669 415.317 60.5126 415.17C61.4462 414.631 62.1342 416.15 62.2325 419.041C62.3799 421.637 62.1833 422.519 61.1514 424.381C60.4634 425.606 59.4315 427.027 58.8909 427.517C58.3504 428.007 57.9081 428.889 57.9081 429.477C57.9081 430.065 57.1219 431.535 56.1882 432.711C54.3209 435.014 53.9277 436.092 55.3528 435.063C56.0408 434.524 56.0899 434.524 55.5494 435.112C55.2054 435.504 54.5666 435.847 54.0752 435.896C53.6329 435.896 52.7484 435.945 52.1587 435.994C50.9793 436.092 49.3577 438.787 49.8982 439.718C50.0457 440.012 50.0457 440.11 49.8 439.914C49.1611 439.326 48.1783 440.453 48.424 441.482C48.5714 442.07 48.424 442.462 48.0309 442.462C47.0481 442.462 45.623 443.98 45.623 445.107C45.623 446.038 44.5911 447.263 38.9399 452.996C38.1045 453.829 37.2692 454.956 37.0726 455.495C36.9252 455.985 36.3846 456.916 35.8932 457.553C35.0578 458.582 35.0087 458.631 35.0087 457.7C35.0087 457.161 35.2544 456.769 35.5492 456.818C35.7949 456.867 36.0898 455.985 36.1881 454.809C36.2863 453.29 36.1389 452.653 35.5984 452.457C35.107 452.261 34.8121 451.575 34.8121 450.546C34.8121 448.831 33.8785 447.704 31.7163 446.92C30.5369 446.479 30.3895 446.136 30.3895 444.274C30.3895 442.56 30.6843 441.825 31.7163 440.796C33.2396 439.277 34.3699 438.934 37.3183 439.13C39.0874 439.228 39.5296 439.473 39.6279 440.355C39.8736 442.119 41.053 442.756 42.1832 441.727C42.7237 441.237 43.166 440.6 43.166 440.257C43.166 439.277 41.3478 437.905 40.6107 438.346C40.2667 438.591 38.5959 438.689 36.876 438.591C34.6647 438.493 33.4362 438.689 32.6008 439.228C31.0775 440.257 29.6033 440.208 29.2101 439.228C29.0136 438.787 29.0136 437.415 29.161 436.141C29.3575 434.916 29.161 432.221 28.7679 430.212C28.2765 427.762 28.1782 426.145 28.473 425.361C28.7679 424.724 28.817 423.205 28.6204 422.029C28.3747 420.216 28.473 419.677 29.6033 418.208C30.4878 417.081 31.3232 416.493 32.1586 416.493C33.731 416.493 36.7778 415.219 36.7778 414.533C36.7778 413.847 39.0874 411.593 41.4952 409.976C43.0186 408.947 43.854 408.702 44.7876 408.898C46.999 409.486 49.1611 408.359 50.6845 406.007C51.4707 404.782 52.5518 403.704 53.1415 403.606L54.2226 403.41L53.0924 403.312C52.3061 403.263 51.5199 403.949 50.2422 405.713C48.424 408.212 47.8343 408.457 44.3454 408.212C43.0186 408.065 39.3331 410.564 37.22 412.965C35.2544 415.219 34.0259 415.954 32.0603 416.003C29.7998 416.003 28.0308 418.502 27.8342 421.931C27.6868 424.528 27.6376 424.43 26.6057 419.188C26.016 416.199 25.4263 413.406 25.2298 412.916C24.9349 412.279 25.1315 412.083 26.016 412.083C26.9497 412.083 27.048 411.985 26.4583 411.593C25.8686 411.201 25.8686 411.103 26.704 411.103C27.5394 411.054 27.5394 410.956 26.4583 410.564C24.8366 409.927 24.7384 409.78 25.4755 408.898C26.2617 407.918 25.7703 406.693 24.5418 406.693C24.0012 406.693 23.4607 406.252 23.2641 405.713C23.1167 405.174 22.7727 404.733 22.527 404.733C22.3305 404.733 22.2322 404.341 22.3796 403.802C22.527 403.312 22.3796 402.724 22.0848 402.577C20.9054 401.842 21.5934 399.931 23.8047 397.873C25.9669 395.913 26.1143 395.864 28.4239 396.158C30.9792 396.501 33.5345 395.864 37.8097 393.66C39.8736 392.631 40.5124 391.994 41.4952 389.887C42.1341 388.466 42.6746 386.996 42.6746 386.555C42.6746 386.114 42.9694 385.477 43.3626 385.183C44.4928 384.203 46.7041 385.477 49.7017 388.809C51.2742 390.573 52.7975 391.994 53.0432 391.994C53.3381 391.994 52.1587 390.426 50.4388 388.564C48.2766 386.163 46.8024 384.938 45.4756 384.546C43.166 383.86 42.8712 384.154 41.5935 387.927C40.4141 391.455 40.1193 391.798 37.1709 393.268C33.4853 395.13 30.4878 396.011 28.8661 395.668C28.0799 395.472 27.4411 395.227 27.4411 395.081C27.4411 394.542 30.7826 391.308 32.5025 390.23C33.5345 389.544 34.5664 388.515 34.8121 387.878C35.0578 387.241 35.7949 386.604 36.4338 386.408C37.2692 386.212 38.0063 385.379 38.7434 383.909C39.3331 382.733 40.365 381.459 41.053 381.116C42.9203 380.185 44.2471 375.628 43.854 371.708C43.6574 369.896 43.8048 367.887 44.1488 366.515C44.4928 365.29 44.8859 363.526 44.9842 362.595C45.0825 361.664 45.4265 360.635 45.7213 360.292C46.5567 359.263 48.3749 359.557 48.9646 360.782C49.3577 361.566 49.5051 361.664 49.5051 361.027C49.5543 360.047 48.2766 358.675 47.2938 358.675C46.9007 358.675 46.0653 359.214 45.4265 359.9C44.0997 361.321 43.5591 364.457 43.3626 371.022C43.2643 376.412 42.3306 379.695 40.8073 380.381C40.1684 380.675 39.1365 381.949 38.4977 383.223C37.6623 384.791 36.876 385.673 35.8932 386.016C35.0087 386.31 34.3207 386.947 34.1242 387.731C33.9767 388.466 33.2396 389.152 32.3551 389.544C31.5197 389.887 30.1929 390.965 29.4067 391.896C28.2273 393.317 27.8833 393.513 27.2445 393.023C26.8514 392.68 26.2617 392.533 25.9669 392.729C25.2789 393.17 25.328 394.444 26.1143 394.444C26.4091 394.493 25.7212 395.374 24.4926 396.452L22.2813 398.363L21.8391 397.138C21.2494 395.57 20.3649 395.815 20.1683 397.53C20.07 398.412 20.2174 398.853 20.6597 398.853C21.1511 398.853 21.2494 399.392 21.1511 400.862C21.0528 401.94 20.8071 402.724 20.6597 402.528C19.9717 401.842 18.0553 394.787 17.613 391.112C16.8267 385.134 16.2862 382.537 14.7137 377.588C13.9275 375.138 13.1412 371.953 12.9447 370.533L12.6007 367.936L14.7628 368.181C16.4336 368.377 16.581 368.377 15.4017 368.034C14.124 367.691 14.0749 367.593 14.812 367.25C15.4017 367.005 16.3845 367.25 17.613 367.936C19.382 368.916 19.6769 368.965 20.9054 368.279C21.6425 367.887 22.7727 366.907 23.4116 366.074C24.8366 364.163 26.9005 363.673 33.1905 363.771C37.564 363.82 38.1045 363.722 37.5149 363.134C36.9252 362.497 36.4338 362.497 34.3699 363.036C32.9939 363.379 31.618 363.477 31.3232 363.281C30.4878 362.791 27.3428 362.987 25.672 363.575C24.9349 363.869 23.559 364.996 22.6253 366.074C20.758 368.23 19.4312 368.475 17.0724 367.054C15.6474 366.172 15.4017 366.172 14.3697 366.809C13.3378 367.495 13.1904 367.495 12.5515 366.417C12.1584 365.78 11.667 364.506 11.4704 363.575C10.979 361.272 10.2911 360.047 9.70139 360.439C9.3574 360.635 9.3574 360.341 9.70139 359.704C10.2911 358.675 9.99623 357.45 9.30826 357.891C9.01342 358.087 8.96428 357.45 9.20998 354.657C9.25912 354.069 9.65225 353.873 10.6351 353.922C11.667 354.02 11.9127 353.824 11.8144 353.089C11.6179 352.011 14.468 348.875 15.6474 348.875C16.0405 348.875 16.9742 348.483 17.613 348.042C18.5467 347.405 19.8735 347.16 22.7727 347.16L26.704 347.111L28.817 349.218C29.9964 350.394 31.1266 351.325 31.3723 351.325C31.6671 351.325 32.65 352.452 33.6328 353.775C34.6156 355.147 35.5492 356.127 35.6967 355.98C35.9915 355.686 32.9448 351.766 31.9129 351.129C31.4706 350.884 30.1929 349.708 29.0136 348.532C27.6376 347.111 26.5565 346.376 25.8194 346.425C25.2298 346.474 23.6573 346.523 22.2813 346.474L19.8243 346.376L22.0356 344.368C26.0651 340.742 27.4411 340.35 28.1782 342.653C28.3747 343.339 28.5713 343.486 28.7679 343.094C29.1118 342.212 27.5394 340.546 26.36 340.546C25.8686 340.546 24.3944 341.526 23.1167 342.702C18.1044 347.307 14.1732 349.61 14.1732 347.895C14.1732 347.601 13.8292 347.405 13.4361 347.405C13.0429 347.405 12.699 347.601 12.699 347.895C12.699 348.14 13.0921 348.385 13.5343 348.385C14.124 348.385 13.7309 349.022 12.2075 350.59C11.0282 351.815 9.79967 352.795 9.50483 352.795C9.16084 352.795 8.66944 351.864 8.32546 350.688C7.98147 349.561 7.34265 348.238 6.90038 347.748C6.50726 347.307 6.11414 346.083 6.065 345.054C6.01586 344.074 5.77015 343.29 5.52445 343.339C5.27875 343.388 5.03305 342.751 4.98391 341.918C4.88563 340.84 5.03305 340.595 5.47531 340.938C5.8193 341.183 6.99866 341.526 8.07975 341.722C9.70139 341.967 10.3894 341.82 11.4213 340.987C13.1412 339.615 16.0896 339.272 19.382 340.056C21.4459 340.546 22.183 340.595 22.6253 340.154C22.9693 339.811 24.3944 339.566 25.8194 339.566C28.3256 339.566 28.473 339.664 29.9472 341.673C30.7826 342.8 31.9129 343.976 32.5025 344.27C34.2224 345.152 38.3502 344.368 40.1684 342.849C41.053 342.114 41.4952 341.526 41.1512 341.526C40.8073 341.526 40.021 342.016 39.3822 342.604C38.5468 343.388 37.4657 343.731 35.3527 343.878C32.6991 344.074 32.4043 343.976 31.5689 342.751C28.9153 338.978 28.6696 338.831 25.8194 338.88C24.3452 338.88 22.7727 339.174 22.3305 339.517C21.7408 340.007 21.2002 340.056 20.0209 339.615C17.3673 338.684 12.9938 338.929 11.5687 340.105C10.5859 340.84 9.70139 341.036 8.17803 340.938L6.065 340.791L4.98391 337.606C3.80454 333.98 3.60798 331.677 4.44336 330.844C4.88563 330.403 4.78735 330.06 4.09938 329.276C3.60798 328.737 3.11657 327.267 2.96915 325.895C2.72345 323.053 2.72345 323.053 8.52202 322.808L12.4532 322.661L13.1904 324.327C13.8783 325.944 13.9275 325.944 16.4828 325.65C18.1535 325.454 19.4312 325.552 20.0209 325.944C20.8071 326.434 21.1511 326.385 21.8882 325.748C22.5762 325.111 23.1659 325.013 24.7384 325.356C30.7826 326.679 32.8465 327.022 35.1561 327.12C38.3994 327.218 42.2323 328.982 41.8392 330.158C41.5935 330.795 41.6918 330.844 42.1832 330.403C42.9694 329.668 42.478 328.296 41.3969 328.296C40.9547 328.296 39.9719 327.855 39.1856 327.267C38.1045 326.483 37.3183 326.336 36.0898 326.532C35.2053 326.728 33.4362 326.532 32.0603 326.091C30.7335 325.699 29.0136 325.356 28.2273 325.356C27.4411 325.356 25.9669 325.111 24.9349 324.768C23.3133 324.278 22.871 324.327 22.0848 325.062C21.2002 325.846 21.0528 325.846 19.9226 325.16C18.9889 324.523 18.4484 324.474 17.4164 324.866C15.2051 325.699 14.3697 325.454 13.6326 323.739C12.9447 322.22 12.8464 322.171 9.60311 322.024C7.78491 321.926 5.52445 322.073 4.54164 322.367C3.06743 322.759 2.77259 322.71 2.57603 322.024C2.42861 321.584 2.08462 320.8 1.83892 320.31C1.59322 319.82 1.49494 319.183 1.6915 318.938C1.83892 318.644 2.13376 317.272 2.33033 315.949C2.52689 314.283 2.92001 313.303 3.46056 313.058C3.95196 312.813 4.73821 312.421 5.18047 312.176C5.8193 311.882 6.8021 312.127 8.52202 313.009L10.979 314.283L9.01342 314.871C7.09695 315.459 7.09695 315.459 8.57116 315.508C9.3574 315.557 10.2911 315.312 10.5859 315.018C10.9299 314.675 11.7161 314.969 13.3378 316.047C15.2543 317.419 15.9914 317.615 19.0381 317.713C20.9545 317.762 22.6745 317.958 22.871 318.154C23.3624 318.693 25.2298 318.546 25.7703 318.007C26.1143 317.664 26.8514 317.909 28.129 318.742C30.1438 320.114 32.6008 320.31 34.0259 319.232C34.5664 318.84 35.5492 318.497 36.2372 318.497C38.6942 318.448 43.8048 315.753 45.279 313.744C46.0161 312.715 46.999 311.588 47.4412 311.245C47.8835 310.951 48.08 310.657 47.7852 310.657C47.0972 310.657 46.4584 311.245 45.0333 313.205C43.6574 315.018 39.1365 317.517 37.0726 317.517C36.532 317.566 35.1561 317.958 34.075 318.497C31.4706 319.771 30.7335 319.722 28.3747 318.154C26.6548 317.027 26.3108 316.929 25.2298 317.517C24.3944 317.958 23.8538 318.007 23.4116 317.664C23.0676 317.37 21.2494 317.125 19.4312 317.125C17.0724 317.125 15.6965 316.831 14.7137 316.194C13.9766 315.704 12.3058 314.626 11.0773 313.842C9.84881 313.009 7.49007 311.637 5.8193 310.706C3.16571 309.187 2.87087 308.844 2.87087 307.423C2.87087 306.541 2.67431 305.757 2.37947 305.659C2.08462 305.561 2.03548 303.797 2.28119 300.857L2.62517 296.203L4.59079 296.35C8.12889 296.546 8.76772 296.84 8.76772 298.211C8.76772 299.485 9.79967 300.661 14.812 304.875C15.9914 305.904 17.957 307.08 19.1363 307.472C20.3157 307.913 22.3796 308.991 23.7555 309.922C26.3108 311.686 30.1929 313.107 32.5025 313.107C34.3699 313.107 34.1733 312.372 32.2568 312.323C29.4067 312.225 26.3108 311.147 24.0012 309.432C22.7727 308.501 20.5123 307.325 19.0381 306.786C17.3673 306.149 15.8931 305.218 15.2543 304.287C14.6154 303.454 13.8783 302.817 13.5835 302.817C12.5515 302.817 9.75053 299.73 9.75053 298.603C9.75053 297.427 8.57116 295.958 7.63749 295.909C3.41142 295.664 2.96915 295.223 3.80454 291.646C4.14852 290.127 4.59079 287.187 4.83649 285.178C5.37703 280.229 6.11414 276.358 6.75296 274.888C7.24437 273.81 7.29351 273.859 6.99866 275.378C6.8021 276.309 6.60554 278.171 6.5564 279.445C6.50726 281.356 6.65468 281.944 7.53921 282.63C8.12889 283.071 9.01342 284.1 9.50483 284.835C9.99623 285.619 10.6842 286.109 11.0282 285.962C11.4213 285.766 12.011 285.521 12.4041 285.374C12.8464 285.227 13.5835 285.619 14.2223 286.354C14.9103 287.138 15.8439 287.628 16.6302 287.628C18.9889 287.628 21.6425 290.47 22.9693 294.537C23.2641 295.517 24.0504 296.742 24.6401 297.281C26.5074 298.946 30.0455 300.71 32.2077 301.053C33.3379 301.2 34.9104 301.739 35.7458 302.18C36.9252 302.866 37.3674 302.915 37.8588 302.425C38.3011 301.984 38.252 301.837 37.4166 301.837C36.876 301.837 35.7458 301.494 35.0087 301.102C34.2224 300.71 32.9939 300.367 32.306 300.367C30.9792 300.367 26.8514 298.407 25.328 297.036C24.8366 296.595 23.7064 294.635 22.7727 292.724C21.5442 289.98 20.7088 288.853 19.1363 287.873C18.0553 287.138 16.8267 286.648 16.4336 286.795C16.0896 286.942 15.2543 286.501 14.6154 285.864C13.7309 284.933 13.0921 284.688 12.1093 284.884C11.0773 285.08 10.4385 284.786 9.06256 283.414C7.58835 281.944 7.29351 281.258 7.19523 279.347C7.09695 276.358 9.79967 270.528 12.011 269.009C13.7309 267.833 15.4017 264.942 14.9594 263.815C14.5663 262.835 15.5 262.933 16.0896 263.962C16.3353 264.452 16.3353 265.236 16.0896 265.971C15.8439 266.657 15.7457 267.588 15.8931 268.078C16.0405 268.568 15.9914 269.352 15.6965 269.842C15.2051 270.822 16.7285 274.545 18.3501 276.358C18.8415 276.897 19.0381 277.632 18.8415 278.269C18.5467 279.298 20.2174 283.218 21.0037 283.218C21.2494 283.218 23.2641 285.08 25.5246 287.383C30.8318 292.822 33.1414 293.998 38.4485 293.998C40.5616 293.998 42.1832 293.851 42.0358 293.704C41.8884 293.508 40.2667 293.41 38.4485 293.459C33.5836 293.557 31.1266 292.234 25.2789 286.354C19.9226 280.964 19.3329 280.131 19.5295 278.171C19.5786 277.387 19.2838 276.358 18.8415 275.868C17.7604 274.692 16.1388 271.459 16.1388 270.479C16.1388 270.038 16.3845 269.45 16.7285 269.107C17.1216 268.715 17.1216 268.372 16.7285 267.931C16.0896 267.147 17.8096 262.884 18.5467 263.374C18.8415 263.521 18.9398 263.962 18.7924 264.354C18.5958 264.795 19.4803 266.216 20.8563 267.833C22.4779 269.744 23.215 270.969 23.1167 271.753C23.0184 272.537 23.7064 273.565 25.5737 275.476C28.4239 278.318 29.0136 279.347 29.9472 282.924C30.4386 284.786 30.93 285.521 32.2077 286.256C33.0922 286.795 33.8293 287.53 33.8293 287.873C33.8293 288.265 34.419 289.196 35.107 290.029C36.1389 291.254 36.7286 291.548 38.3502 291.548C39.3822 291.548 40.709 291.793 41.2495 292.087C42.3798 292.675 44.6402 297.476 44.6402 299.289C44.6402 299.926 44.8859 301.347 45.2299 302.425C45.7704 304.238 45.7213 304.385 44.2471 305.904C42.0849 308.109 42.2815 308.795 44.4437 306.688C45.967 305.218 46.1636 304.826 45.8687 303.307C45.7213 302.376 45.4265 300.465 45.1808 299.142C44.6402 295.958 43.3626 292.969 42.0358 291.94C41.3969 291.45 40.0702 291.058 38.8908 291.058C37.2692 291.058 36.6303 290.764 35.6475 289.588C34.9596 288.804 34.2716 287.726 34.1242 287.285C33.9767 286.795 33.1905 286.06 32.4534 285.619C31.4214 285.031 30.8809 284.198 30.4386 282.434C29.505 278.857 28.9153 277.877 26.0651 275.035C23.3624 272.341 23.2641 272.145 23.9521 271.018C24.2961 270.479 24.5909 270.675 25.1806 271.9C26.1634 273.761 26.4583 273.761 27.9325 272.194C28.6204 271.459 29.6524 270.969 30.4386 270.969C31.2249 270.969 32.6008 270.577 33.5836 270.136C35.6475 269.156 36.3355 269.45 40.2176 273.026C41.6918 274.349 43.4117 275.525 44.0505 275.623C45.5247 275.77 46.2127 276.75 45.9179 278.269C45.623 280.033 46.5567 282.287 48.3749 284.198C49.456 285.325 50.0457 286.452 50.0457 287.285C50.0457 288.02 50.2914 288.608 50.5371 288.608C51.7164 288.608 50.0948 284.541 48.6206 283.757C47.5886 283.169 46.6058 280.523 46.6058 278.122C46.6058 276.407 45.3773 274.888 43.9523 274.888C43.3626 274.839 41.9375 273.859 40.709 272.635C39.4805 271.41 37.7606 269.989 36.876 269.45L35.3035 268.421L33.5345 269.45C32.6008 270.038 31.0283 270.479 30.1438 270.479C28.9644 270.479 28.2273 270.773 27.8342 271.459C27.048 272.684 26.1143 272.733 25.7703 271.557C25.6229 271.116 24.6892 270.283 23.7555 269.793C22.8219 269.254 22.0356 268.666 22.0356 268.47C22.0356 268.225 21.3968 267.343 20.6106 266.461C19.6277 265.285 19.2346 264.403 19.3329 263.227C19.382 262.345 19.1363 261.463 18.7924 261.267C18.301 260.973 18.4975 260.189 19.6769 257.739C21.8882 253.133 21.9865 250.83 20.1683 246.813C19.3329 245 18.301 243.383 17.9078 243.236C16.7285 242.795 16.9742 241.913 18.5467 240.541C19.9226 239.316 20.0209 239.316 20.758 240.149C23.3624 243.236 29.8981 240.737 29.8981 236.67C29.8981 235.886 30.1438 235.102 30.3895 234.955C30.6843 234.808 30.8809 234.22 30.8809 233.681C30.8809 232.652 31.618 232.407 32.1586 233.289C32.6991 234.171 37.564 233.583 38.7434 232.505C39.7262 231.623 39.7753 231.623 40.8073 232.652C41.7409 233.583 41.8884 234.22 41.8884 238.287C41.8884 242.158 41.6918 243.138 40.8073 244.608C40.2176 245.539 39.7262 246.715 39.7262 247.156C39.7262 247.597 39.2839 248.821 38.7434 249.85C37.908 251.565 37.8588 251.81 38.5468 252.398C40.021 253.574 40.2176 254.652 39.4805 256.71C38.6451 259.111 38.9399 260.189 41.2004 262.639L42.7237 264.354L41.2495 262.051C39.5788 259.503 39.4805 258.964 40.3159 256.22C40.8073 254.456 40.7581 254.211 39.7262 253.084C38.5959 251.859 38.5959 251.81 39.3822 250.144C39.8245 249.164 40.2176 248.136 40.2176 247.793C40.2176 247.45 40.6598 246.274 41.2495 245.245C42.0849 243.677 42.2815 242.354 42.3798 238.532C42.3798 235.886 42.5763 233.73 42.7729 233.73C42.9694 233.73 44.0505 234.857 45.1808 236.18C46.311 237.552 47.7852 238.777 48.424 238.924C49.0629 239.12 49.9965 239.855 50.5371 240.639C51.0776 241.374 51.9621 242.158 52.5027 242.305C53.0432 242.501 53.4855 242.942 53.4855 243.285C53.4855 243.677 53.9769 245 54.5666 246.225L55.6477 248.43L54.5666 250.34C53.9769 251.369 53.4855 252.594 53.4855 253.035C53.4855 253.476 53.0924 254.652 52.5518 255.681C51.9621 256.906 51.569 259.16 51.3233 262.688C50.9302 268.862 50.3405 267.98 57.6624 271.9C58.7435 272.488 60.5617 273.712 61.6919 274.643C62.8222 275.574 64.0507 276.358 64.3947 276.358C65.3283 276.309 68.8664 273.761 69.1121 272.929C69.2596 272.439 68.9647 272.537 68.1785 273.222C67.5396 273.81 66.262 274.643 65.4266 275.182L63.805 276.064L61.9868 274.3C60.9548 273.32 59.1366 272.047 58.0064 271.41C53.9769 269.205 52.9941 268.666 52.3061 268.078C51.3233 267.245 51.8147 258.67 52.9941 256.269C53.4363 255.338 53.9769 253.819 54.1243 252.937C54.3209 252.055 54.9106 250.732 55.5002 249.948L56.5813 248.528L55.5002 246.813C54.9597 245.882 54.4683 244.755 54.4683 244.265C54.4683 243.775 53.4855 242.403 52.257 241.227C51.0285 240.1 50.0457 238.728 50.0457 238.189C50.0457 236.915 49.2103 236.425 48.3257 237.16C47.7361 237.65 46.999 237.111 44.198 234.171L40.8073 230.643L42.5272 227.997C43.4608 226.527 44.0505 225.106 43.854 224.763C43.6574 224.469 43.7065 224.371 43.9031 224.567C44.3945 225.008 51.0776 218.541 50.7336 218.002C50.6353 217.806 50.7828 217.463 51.0776 217.267C51.4707 217.071 51.5199 217.12 51.3233 217.463C51.1267 217.806 51.225 218.051 51.5199 218.051C51.8147 218.051 52.5027 217.267 53.0924 216.287L54.1243 214.572L54.9597 215.944C55.402 216.679 56.2865 217.757 56.8762 218.247C57.4659 218.786 57.9081 219.766 57.9081 220.599C57.9081 221.383 58.3995 222.657 58.9401 223.441C59.8246 224.616 59.9229 225.057 59.4806 226.282C59.0384 227.654 59.1366 227.997 60.7583 230.104C62.0359 231.672 63.5101 232.848 65.5249 233.828C68.9647 235.445 72.0606 237.797 73.3873 239.806C74.665 241.668 76.778 243.236 77.6134 242.942C78.0065 242.795 77.5643 242.354 76.4832 241.913C75.5004 241.521 74.3702 240.541 73.977 239.757C72.9942 237.944 68.5716 234.367 65.5249 232.995C64.0507 232.358 62.429 231.084 61.4462 229.908C60.0703 228.193 59.8737 227.605 60.1686 226.037C60.3651 224.567 60.2177 223.931 59.3823 222.951C58.6944 222.167 58.4487 221.383 58.6452 220.648C58.8418 219.864 58.4487 219.031 57.3184 217.757C55.3037 215.503 54.4192 213.102 55.1071 211.877C55.402 211.338 56.7288 209.427 58.1047 207.614C60.3651 204.478 60.66 204.282 62.0359 204.527C62.8713 204.723 64.0998 205.36 64.7878 206.046C65.4757 206.683 66.9991 207.614 68.2276 208.153C69.4561 208.692 70.7338 209.476 71.1269 209.917C71.4709 210.358 72.2571 210.701 72.8468 210.701C73.3873 210.701 74.9107 211.191 76.1392 211.779C77.9574 212.661 78.6945 213.445 79.7265 215.454C80.5618 217.169 81.299 218.051 81.8395 218.002C82.38 218.002 82.4783 217.855 82.0852 217.708C81.7412 217.561 80.9058 216.434 80.267 215.111C79.3825 213.396 78.4488 212.416 76.778 211.485C75.5004 210.799 74.0753 210.211 73.5348 210.211C72.9942 210.211 71.864 209.672 71.0286 209.035C70.1441 208.398 68.6699 207.516 67.7362 207.075C66.8025 206.634 65.2792 205.752 64.3455 205.066C63.4118 204.38 62.0359 203.841 61.2988 203.841C59.628 203.841 59.5298 203.4 60.8565 202.224C61.9868 201.293 62.0851 200.46 61.2988 198.746C60.4143 196.835 61.5937 195.414 64.0507 195.316C65.1318 195.267 66.606 195.022 67.3431 194.826C68.5716 194.483 69.0139 194.728 72.0114 197.962C75.1564 201.293 75.4021 201.44 77.0729 201.146C78.0065 200.999 79.579 200.46 80.5127 199.97C81.4464 199.481 83.2154 198.942 84.3948 198.746C86.1147 198.501 86.6553 198.599 87.1958 199.285C87.5398 199.774 87.8838 199.921 87.8838 199.628C87.8838 199.334 87.5889 198.795 87.1958 198.501C86.3604 197.766 82.2818 198.256 80.7584 199.236C80.2179 199.579 78.7437 199.97 77.5151 200.117L75.2055 200.362L72.208 197.129C69.3087 194.091 69.1121 193.944 67.3922 194.189C66.0654 194.434 65.4266 194.287 64.9352 193.65C64.3455 192.866 64.2472 192.866 63.5593 193.748C62.5765 195.022 62.0851 194.434 62.8713 192.964C63.6575 191.445 66.9008 187.231 68.375 185.712C69.063 185.026 69.8001 183.703 70.0458 182.772C70.3898 181.547 70.832 181.008 71.5692 180.91C73.1908 180.665 74.6159 181.694 74.6159 183.017C74.6159 184.389 77.7608 186.986 79.9722 187.525C81.299 187.819 81.6921 188.064 85.8199 192.033C88.1295 194.238 89.1614 196.492 87.8838 196.492C87.6381 196.492 87.3924 196.688 87.3924 196.982C87.3924 197.668 88.7683 197.031 89.0631 196.198C89.2106 195.757 89.1123 195.022 88.8174 194.434C88.0803 193.111 84.6896 189.632 84.0508 189.632C83.8051 189.632 83.2154 189.093 82.7732 188.407C82.3309 187.721 81.6921 187.182 81.299 187.182C80.4144 187.182 75.9427 184.781 75.5004 184.046C75.3038 183.752 75.1073 183.017 75.1073 182.429C75.1073 181.204 73.7805 180.322 71.9623 180.322C69.4561 180.322 70.832 178.117 74.2227 176.745C76.0409 175.961 77.8591 173.855 77.3677 173.071C77.2203 172.826 77.6626 172.091 78.3505 171.454C80.1196 169.788 81.2498 167.779 82.4783 164.153C83.8051 160.184 84.6896 159.155 84.2474 162.046C84.0017 163.761 84.1491 164.3 85.1319 165.476C85.7707 166.211 86.6553 167.681 87.0484 168.71C87.4906 169.69 88.0312 170.523 88.2769 170.523C88.5717 170.523 89.9477 171.748 91.3727 173.267C94.3703 176.353 98.9404 180.322 98.6455 179.538C98.5472 179.244 96.1394 176.843 93.2892 174.198C90.4391 171.552 87.9329 168.906 87.6381 168.367C87.3924 167.779 86.6553 166.603 86.0656 165.77C84.1982 163.271 84.5422 160.919 87.1467 157.538C89.8002 154.157 90.2425 152.785 89.1614 151.217C88.5226 150.189 88.4735 149.797 89.014 148.523C89.702 146.955 92.8961 143.427 95.0091 141.957C95.7462 141.418 96.1885 140.781 96.0902 140.438C95.9428 140.095 96.4342 139.801 97.3679 139.752C99.3826 139.605 99.9723 139.017 100.906 136.175C101.545 134.264 101.987 133.725 103.019 133.431C103.756 133.284 104.837 132.794 105.427 132.402C106.361 131.814 106.557 131.814 106.754 132.353C106.852 132.745 107.196 133.97 107.54 135.097C108.768 139.066 106.311 144.603 102.675 146.269C101.25 146.906 100.562 147.543 100.365 148.425C100.12 149.601 96.0411 157.979 94.3703 160.723C93.7315 161.899 93.7315 162.144 94.5177 163.859C95.0091 164.839 95.4023 166.358 95.4514 167.142C95.5005 167.926 95.6971 168.563 95.9428 168.563C96.4833 168.563 95.8445 164.545 95.2057 163.957C94.3212 163.026 94.8126 161.311 97.4661 156.411C98.9404 153.618 100.415 150.532 100.709 149.503C101.152 148.033 101.692 147.445 103.412 146.612C106.803 144.946 109.014 139.752 108.621 134.411C108.424 131.618 108.523 131.275 109.751 130.148C112.405 127.698 114.665 129.119 114.469 133.137C114.42 134.509 114.665 134.803 117.073 136.175C118.547 137.057 120.366 137.694 121.152 137.694C121.889 137.694 124.493 137.596 126.852 137.449C130.931 137.253 131.275 137.155 132.896 135.636C134.616 134.068 135.255 132.99 135.845 130.589C136.041 129.854 135.943 129.364 135.599 129.364C135.304 129.364 135.108 129.511 135.157 129.707C135.403 130.883 133.83 134.166 132.454 135.293C131.029 136.42 130.341 136.616 125.476 136.861C120.267 137.155 119.972 137.106 117.614 135.832C115.452 134.656 115.157 134.313 115.304 133.137C115.402 132.402 115.206 131.471 114.911 131.079C114.616 130.687 114.469 130.148 114.665 129.903C114.813 129.609 114.518 129.119 113.977 128.776C113.24 128.335 113.142 127.992 113.486 127.306C114.174 126.033 113.682 125.494 111.422 125.151C109.063 124.759 108.621 124.22 109.997 123.387C110.538 123.044 110.98 122.26 110.98 121.574C110.98 120.937 111.815 119.418 112.847 118.144C115.746 114.714 115.992 111.137 113.388 109.765C112.651 109.324 112.208 109.373 111.668 109.814C110.488 110.745 110.292 109.961 110.98 107.119C111.324 105.649 111.471 103.983 111.324 103.444C111.176 102.856 111.422 102.17 111.864 101.828C112.454 101.338 112.552 101.338 112.257 101.779C112.061 102.121 112.11 102.415 112.405 102.415C113.339 102.415 113.584 99.7696 112.995 96.0457C112.651 94.0368 112.159 90.313 111.864 87.8141L111.275 83.3063L112.847 81.6893C113.682 80.8564 114.714 79.2884 115.157 78.3085C116.041 76.1526 117.663 75.5156 120.169 76.3975C121.054 76.7405 122.233 76.8385 122.773 76.6915C123.412 76.4955 124.592 76.8385 125.968 77.6715C128.621 79.1904 128.965 80.8564 126.852 82.1793C124.936 83.3553 124.69 83.8942 125.525 84.8252C125.869 85.2172 126.213 85.9522 126.213 86.3931C126.213 87.5691 127 87.8141 127.884 86.9321C128.621 86.2461 128.719 86.2461 128.965 86.9321C129.113 87.3731 129.555 87.7161 129.948 87.7161C130.341 87.7161 130.636 88.1571 130.636 88.696C130.636 89.382 130.98 89.676 131.766 89.676C132.405 89.676 133.191 89.97 133.486 90.264C133.977 90.754 134.223 90.754 134.518 90.215C134.862 89.725 135.157 89.725 135.943 90.117C136.484 90.411 137.761 90.656 138.695 90.656C140.955 90.656 140.955 91.4889 138.793 93.8408C137.86 94.8208 136.926 95.8497 136.68 96.0947C136.484 96.3397 135.501 97.0747 134.567 97.6627C132.847 98.7896 132.061 99.9656 131.275 102.66C130.931 103.836 130.587 104.13 129.555 104.13C127.933 104.13 125.23 106.629 125.23 108.099C125.23 108.736 125.034 109.324 124.788 109.52C124.543 109.667 124.199 110.402 124.002 111.186C123.855 111.97 123.363 112.901 122.97 113.244C122.577 113.538 122.282 114.322 122.282 114.959C122.282 115.645 121.889 116.184 121.25 116.38C119.727 116.87 120.169 119.124 122.036 120.006C122.872 120.349 124.149 120.986 124.936 121.378C125.722 121.721 126.41 121.966 126.557 121.868C126.901 121.525 125.427 120.594 123.511 119.957C120.955 119.075 120.218 117.85 121.692 116.87C122.282 116.429 122.773 115.596 122.773 114.959C122.773 113.538 123.265 113.048 124.002 113.685C125.034 114.518 125.869 112.852 125.968 110.01C126.066 106.727 127.196 104.865 129.063 104.865C129.801 104.865 130.636 104.669 130.882 104.473C131.668 103.934 132.602 102.023 132.602 100.995C132.602 100.456 133.29 99.5246 134.125 98.8876C136.828 96.8297 141.398 92.0279 141.152 91.4399C141.005 91.0969 141.643 90.656 142.528 90.411C144.1 89.921 144.15 89.872 144.002 87.5691C143.855 85.7072 143.953 85.2662 144.592 85.2662C145.034 85.2662 145.378 84.8742 145.378 84.3352C145.378 83.1103 146.656 81.8363 147.835 81.8363C148.474 81.8363 148.67 82.0813 148.523 82.5713C148.13 83.6003 149.801 84.1392 150.489 83.2573C150.783 82.8653 151.422 82.6203 151.865 82.7183C152.307 82.8163 153.781 82.3753 155.157 81.7873C156.533 81.1993 157.958 80.8564 158.4 81.0524C158.793 81.1993 159.137 81.1014 159.137 80.8564C159.137 80.1214 156.779 80.2684 155.108 81.1504C153.879 81.7873 152.847 81.8853 150.145 81.5913C146.508 81.2483 144.887 81.9343 144.887 83.8942C144.887 84.3842 144.543 84.7762 144.1 84.7762C143.511 84.7762 143.363 85.2662 143.462 86.9811C143.56 88.1571 143.511 89.235 143.363 89.382C143.265 89.48 141.889 89.725 140.267 89.921C138.056 90.117 137.122 90.019 136.189 89.431C135.403 88.892 134.813 88.794 134.42 89.088C133.535 89.823 131.127 89.235 131.127 88.2551C131.078 87.0791 128.719 85.5112 128.031 86.1971C127.196 87.0301 126.705 86.8341 126.705 85.8052C126.705 85.2662 126.508 84.6782 126.213 84.5312C125.427 84.0412 125.624 83.6003 127.196 82.7183C128.375 82.0323 128.67 81.5423 128.67 80.2194C128.67 78.5045 126.852 75.9076 125.28 75.4176C124.837 75.2706 124.69 74.9276 124.985 74.5356C125.28 74.0456 126.164 73.9476 128.425 74.1436C130.243 74.3396 131.668 74.2416 131.963 73.9476C132.258 73.6537 133.339 73.3597 134.371 73.2617C137.417 73.0167 139.973 72.4777 140.022 71.9877C140.071 71.7427 140.12 71.3508 140.169 71.1058C140.366 69.4888 142.626 70.0768 143.511 71.9387C143.904 72.6737 144.887 73.5067 145.968 73.8986C147.589 74.5356 148.032 74.4866 150.046 73.7027C152.012 72.9677 152.503 72.4777 153.29 70.7138C153.781 69.5378 154.076 68.3129 153.928 67.9699C153.83 67.6269 156.042 65.03 158.843 62.1391C161.988 59.0033 164.15 56.4063 164.346 55.5734C164.543 54.7894 164.985 53.5645 165.378 52.8295C165.968 51.6045 166.164 51.5555 167.393 51.9965C168.13 52.2905 171.472 53.2705 174.862 54.2014ZM223.511 54.4464C225.821 55.2794 229.064 56.0144 230.833 56.1614C235.993 56.5533 237.074 56.7983 238.499 57.9253C240.121 59.1992 239.433 59.7382 236.583 59.4442C234.912 59.2482 233.88 59.4932 231.521 60.7182C229.9 61.5512 227.787 62.4821 226.902 62.7761C224.396 63.5601 216.877 64.148 214.912 63.7071C213.487 63.3641 212.848 63.5601 210.931 64.785C209.703 65.569 208.769 66.304 208.917 66.451C209.064 66.5979 210.047 66.157 211.128 65.422C212.651 64.393 213.438 64.197 214.715 64.442C215.649 64.589 218.646 64.54 221.398 64.246C225.673 63.8541 227.099 63.4621 230.833 61.7961C234.617 60.0322 235.502 59.7872 237.369 60.0812C240.17 60.5222 240.71 61.0122 240.71 63.2171C240.71 65.52 242.725 68.3129 245.821 70.3218C248.327 71.9387 248.524 72.4777 247.148 73.7027C246.214 74.5356 246.018 74.5356 243.659 73.7517C242.086 73.2127 240.858 72.4287 240.317 71.6447C239.875 70.9098 239.138 70.0278 238.745 69.6848C237.811 68.9009 232.209 69.1458 230.047 70.0768C228.622 70.7138 228.376 70.6648 226.509 69.4398C225.428 68.7049 224.298 68.1169 224.003 68.1169C223.167 68.1169 218.106 70.6648 218.106 71.1058C218.106 71.3018 219.433 70.8118 221.054 69.9788L224.003 68.5089L225.87 69.7828C227.885 71.1548 229.359 71.3508 230.931 70.5178C232.602 69.6358 237.369 69.5378 238.597 70.3708C239.236 70.7628 239.728 71.3508 239.728 71.6447C239.728 71.9387 240.17 72.7227 240.76 73.3107L241.792 74.3886L240.661 74.9766C239.58 75.5646 239.58 75.6136 240.465 76.2506C240.956 76.6425 241.988 76.9365 242.676 76.9365C243.413 76.9365 244.396 77.3775 244.937 77.9655L245.87 78.9944L243.511 78.6515C241.251 78.3085 240.268 78.8964 241.988 79.5824C242.578 79.8274 242.676 80.2194 242.43 81.2483C241.89 83.4043 241.3 83.8452 239.187 83.5023C237.074 83.1593 236.828 83.5023 238.106 84.8742C238.843 85.6582 238.843 85.9032 238.253 86.2461C237.467 86.7361 237.516 86.8341 239.384 87.6181C242.283 88.843 239.089 90.117 235.895 88.99C234.912 88.647 234.764 88.745 234.912 89.48C235.01 90.019 235.698 90.705 236.435 91.0479C237.664 91.6359 237.762 91.8809 237.467 93.4978C237.025 95.8497 237.025 95.8497 236.288 94.1348C235.993 93.3509 235.354 92.5669 234.961 92.4199C234.371 92.1749 234.273 92.4689 234.568 94.1838C234.764 95.3598 234.961 96.4867 235.01 96.7807C235.01 97.0257 234.47 97.3197 233.683 97.4177C232.258 97.6137 230.882 99.5736 231.226 100.995C231.325 101.436 231.079 102.023 230.686 102.366C230.145 102.856 229.85 102.758 229.261 101.926C228.425 100.75 227.688 101.387 228.13 102.807C228.524 104.032 228.868 107.903 228.524 107.56C228.376 107.462 227.148 108.295 225.772 109.471C224.396 110.647 222.823 111.676 222.283 111.774C221.103 112.019 220.661 113.685 221.742 113.685C222.185 113.685 222.528 113.881 222.528 114.077C222.528 114.959 221.3 115.596 220.071 115.302C218.253 114.959 217.664 115.988 219.334 116.625C221.005 117.262 221.349 118.389 220.415 120.251C219.334 122.309 219.285 122.946 219.924 124.955C220.956 128.09 221.202 132.059 220.415 132.745C219.58 133.382 217.123 132.696 217.123 131.814C217.123 131.52 216.386 130.981 215.452 130.589C214.519 130.197 213.143 129.021 212.356 128.041C211.619 127.012 210.833 126.082 210.587 126.033C210.391 125.935 210.391 125.641 210.538 125.347C210.735 125.053 211.03 125.102 211.275 125.494C211.57 126.033 211.816 126.033 212.258 125.592C212.75 125.102 212.7 124.906 212.062 124.661C211.57 124.514 210.784 124.465 210.243 124.612C209.506 124.808 209.015 124.367 208.081 122.799C206.705 120.447 206.46 119.271 207 117.654C207.246 116.919 207.148 116.086 206.754 115.351C206.214 114.322 206.263 113.979 207.148 112.803C208.917 110.402 209.752 108.393 209.752 106.433C209.752 105.306 210.047 104.228 210.489 103.885C210.882 103.542 211.226 103.003 211.226 102.709C211.226 102.415 211.668 101.338 212.209 100.309C212.75 99.2796 213.339 97.1727 213.536 95.5558C213.781 93.0569 213.978 92.6649 215.01 92.3709C216.337 92.0769 218.106 89.48 218.106 87.9121C218.106 87.3241 218.794 86.0502 219.58 85.0212C220.415 83.9922 221.054 83.1103 221.054 83.0123C221.054 82.9633 220.17 81.8363 219.089 80.6114C218.008 79.3864 217.123 78.0635 217.074 77.7695C217.074 76.8385 213.487 71.8897 212.7 71.6447C212.16 71.4977 212.258 71.7427 212.995 72.5757C214.224 73.9966 216.239 77.2305 216.976 78.9944C217.32 79.7294 218.155 80.6604 218.843 81.1504C220.415 82.1793 220.415 83.4043 218.843 84.9722C218.155 85.6582 217.614 86.6871 217.614 87.2261C217.614 88.892 216.239 91.0479 214.813 91.7339C213.732 92.2239 213.388 92.7629 213.29 94.2328C213.143 96.1927 212.455 96.6337 211.963 95.0658C211.816 94.5268 210.587 93.2039 209.31 92.1259C207.197 90.362 206.902 89.823 206.116 86.5401C205.575 84.1392 205.378 82.1303 205.624 80.5134C205.87 78.6025 205.722 77.6225 204.887 75.8096C204.297 74.5846 203.855 73.2127 203.855 72.8207C203.855 72.4287 203.511 71.0568 203.069 69.8318C202.184 67.1369 202.823 64.589 204.691 63.7561C206.263 63.0211 206.165 63.0211 207.541 64.491C208.229 65.226 208.769 65.618 208.769 65.324C208.769 64.491 206.804 62.7271 205.821 62.7271C205.329 62.7271 204.297 63.2661 203.511 63.9031C202.43 64.834 202.184 65.471 202.184 67.1859C202.233 69.7338 203.609 75.3196 204.494 76.3485C204.838 76.7895 205.084 78.7984 205.084 81.5423C205.084 87.3241 205.821 89.676 208.327 91.9789C209.457 93.0079 210.784 94.4288 211.324 95.2128C212.209 96.4377 212.209 96.5847 211.472 97.3197C210.931 97.8587 210.833 98.2996 211.226 98.7406C211.767 99.4266 211.03 102.121 209.949 103.395C209.605 103.836 209.113 105.404 208.867 106.923C208.622 108.54 207.885 110.549 207.197 111.578C205.477 114.077 205.133 115.449 206.017 115.792C207.049 116.184 206.41 117.997 204.936 118.781C203.265 119.663 200.464 118.83 199.875 117.262C199.334 115.792 198.007 115.253 197.27 116.184C196.14 117.752 195.108 117.605 194.076 115.841C193.241 114.469 193.044 113.195 192.995 109.226C192.946 105.355 192.749 104.081 192.061 103.248C191.275 102.317 191.029 102.268 189.457 102.758C187.983 103.199 187.59 103.15 187 102.464C185.673 100.946 185.575 100.407 186.41 99.4756C187.197 98.5936 187.344 97.8097 187.934 90.411C188.228 86.7851 188.376 86.3931 189.948 84.9232C190.882 84.0412 191.865 83.3063 192.16 83.3063C192.405 83.3063 192.504 82.7183 192.307 81.8853C192.111 80.9054 192.307 79.9744 192.995 78.8474C193.585 77.9165 194.027 76.5445 194.027 75.8096C194.027 75.0256 194.518 73.9476 195.206 73.2617C198.351 70.1258 198.794 67.8719 196.631 66.206C195.944 65.618 195.452 65.128 195.55 65.03C197.713 63.7071 205.182 60.7182 207.049 60.4732C209.261 60.1792 209.801 59.7872 213.044 56.5533C217.221 52.2905 217.516 52.2415 223.511 54.4464ZM127.54 73.3107C127.393 73.4577 126.95 73.5067 126.606 73.3597C126.213 73.2127 126.361 73.0657 126.901 73.0657C127.442 73.0167 127.737 73.1637 127.54 73.3107ZM86.901 77.6225C86.901 78.0145 87.5889 78.8964 88.4243 79.5824C89.358 80.3664 89.6528 80.8564 89.1614 80.8564C88.7683 80.8564 88.2769 80.6114 88.1295 80.3664C87.9329 80.0724 87.5889 80.0234 87.2941 80.1704C86.9992 80.3664 86.901 80.2684 87.0484 80.0234C87.3924 79.4844 85.7707 77.7205 85.3285 78.1615C85.2302 78.3085 85.0828 78.0635 85.0828 77.6715C85.0828 77.2795 85.525 76.9365 86.0164 76.9365C86.5078 76.9365 86.901 77.2305 86.901 77.6225ZM96.729 81.9343C96.729 82.1303 97.1713 82.3753 97.6627 82.5713C98.5472 82.8653 98.5472 82.9633 97.3679 85.0212C96.3851 86.8341 96.2376 87.5691 96.5325 89.529C96.6799 90.803 97.073 92.1749 97.3187 92.4689C97.8593 93.1549 97.5153 96.6827 96.6799 99.3776C95.9919 101.436 96.5816 102.17 99.2843 102.611C102.085 103.052 102.675 103.591 101.938 105.11C101.643 105.796 101.201 106.286 100.906 106.286C99.1861 106.09 98.4981 107.413 99.7266 108.638C100.759 109.667 99.3335 109.765 98.0558 108.736C97.0239 107.952 96.8273 107.462 97.0239 106.335C97.2696 105.257 97.1222 104.816 96.2868 104.375C95.4023 103.934 94.96 104.032 93.7806 104.865C92.159 106.041 92.0116 106.335 92.8961 107.217C93.2892 107.609 93.2892 107.805 92.9452 107.805C92.6504 107.805 92.159 107.462 91.815 107.07C90.7831 105.796 89.1614 106.384 88.6209 108.148C88.3752 109.03 88.0312 109.765 87.8346 109.765C87.6381 109.765 87.2941 109.03 87.0975 108.148C86.9501 107.315 86.0164 104.375 85.1319 101.681C83.2646 96.1927 83.1663 95.5558 84.1982 95.5558C84.5422 95.5558 85.0828 95.2128 85.3285 94.7228C85.6725 94.1348 86.1639 94.0368 87.3924 94.2328C88.67 94.5268 88.8666 94.4288 88.4243 93.9388C87.7363 93.1059 84.9353 93.4488 84.9353 94.3798C84.9353 94.7718 84.4931 95.0658 83.9525 95.0658C81.5938 95.0658 83.9525 91.6359 88.1295 88.941C91.1762 87.0301 91.7167 85.8542 90.6356 83.6982C90.1934 82.8653 89.8494 82.0323 89.8494 81.8363C89.8494 81.6403 91.3727 81.4933 93.2892 81.5423C95.1565 81.5423 96.729 81.7383 96.729 81.9343ZM150.292 82.5223C150.292 82.6693 150.096 82.9143 149.801 83.0613C149.555 83.2083 149.309 83.1103 149.309 82.8653C149.309 82.5713 149.555 82.3263 149.801 82.3263C150.096 82.3263 150.292 82.4243 150.292 82.5223ZM239.678 84.2372C240.121 84.5312 240.17 84.7762 239.777 84.9722C239.138 85.3642 238.253 84.9232 238.253 84.2372C238.253 83.6982 238.794 83.6982 239.678 84.2372ZM237.565 90.411C238.057 90.803 238.253 91.1459 237.959 91.1459C237.713 91.1459 237.025 90.803 236.484 90.411C235.993 90.019 235.796 89.676 236.091 89.676C236.337 89.676 237.025 90.019 237.565 90.411ZM235.846 94.3798C236.091 95.1148 236.239 95.8008 236.091 95.8987C235.993 95.9967 235.698 95.4088 235.403 94.6248C234.764 92.7629 235.158 92.6159 235.846 94.3798ZM96.4342 105.257C96.5816 105.502 96.5325 106.335 96.2868 107.07C95.9919 108.197 95.8445 108.344 95.5988 107.658C95.4514 107.217 94.8126 106.825 94.272 106.825C93.1418 106.825 92.9944 106.335 93.8789 105.453C94.5669 104.767 96.0411 104.669 96.4342 105.257ZM125.329 111.235C125.23 112.068 124.936 112.852 124.641 112.999C124.395 113.146 124.346 112.705 124.543 111.872C125.132 109.422 125.673 108.981 125.329 111.235ZM223.02 112.705C223.02 112.95 222.676 113.195 222.283 113.195C221.89 113.195 221.546 112.95 221.546 112.705C221.546 112.411 221.89 112.215 222.283 112.215C222.676 112.215 223.02 112.411 223.02 112.705ZM172.897 121.868C172.356 122.701 172.356 122.701 172.602 121.868C172.749 121.378 172.946 120.496 172.946 119.908C173.044 118.83 173.044 118.83 173.241 119.908C173.339 120.496 173.192 121.378 172.897 121.868ZM206.066 119.565C206.214 119.81 206.116 120.055 205.87 120.055C205.575 120.055 205.329 119.81 205.329 119.565C205.329 119.271 205.428 119.075 205.526 119.075C205.673 119.075 205.919 119.271 206.066 119.565ZM167.737 132.304C168.228 132.843 168.376 133.284 168.081 133.284C167.786 133.284 167.295 132.843 167 132.304C166.705 131.765 166.558 131.324 166.656 131.324C166.754 131.324 167.246 131.765 167.737 132.304ZM155.452 134.166C155.157 134.95 155.059 134.901 154.42 134.068C153.535 132.794 153.535 132.402 154.616 132.206C155.55 132.01 155.943 132.892 155.452 134.166ZM142.921 143.574C142.921 143.819 142.724 144.064 142.43 144.064C142.184 144.064 141.938 143.819 141.938 143.574C141.938 143.28 142.184 143.084 142.43 143.084C142.724 143.084 142.921 143.28 142.921 143.574ZM140.267 148.082C140.464 148.425 140.415 148.474 140.022 148.278C139.727 148.082 139.137 148.18 138.744 148.474C138.302 148.866 138.007 148.866 138.007 148.572C138.007 148.131 138.744 147.641 139.579 147.543C139.776 147.494 140.071 147.739 140.267 148.082ZM118.941 156.313C117.81 157.391 116.877 157.587 116.877 156.803C116.877 156.509 116.827 156.166 116.778 155.97C116.631 155.578 119.383 154.892 119.776 155.186C119.923 155.284 119.53 155.774 118.941 156.313ZM112.454 180.322C112.454 180.567 112.208 180.812 111.913 180.812C111.668 180.812 111.569 180.567 111.717 180.322C111.864 180.028 112.11 179.832 112.257 179.832C112.356 179.832 112.454 180.028 112.454 180.322ZM113.928 186.496C113.928 186.888 113.732 187.182 113.437 187.182C113.191 187.182 112.945 187.084 112.945 186.986C112.945 186.888 112.798 186.398 112.651 186.006C112.405 185.418 112.552 185.271 113.142 185.516C113.584 185.663 113.928 186.104 113.928 186.496ZM110.488 193.258C110.488 193.356 110.144 193.601 109.702 193.748C109.309 193.895 109.112 193.846 109.26 193.552C109.555 193.062 110.488 192.866 110.488 193.258ZM110.734 230.741C109.948 231.476 109.899 231.476 110.439 230.447C110.734 229.859 110.98 229.173 110.931 228.977C110.734 227.948 111.127 227.752 111.324 228.781C111.471 229.467 111.225 230.251 110.734 230.741ZM106.115 228.977C106.066 229.565 105.378 229.418 105.181 228.781C105.034 228.487 105.23 228.291 105.574 228.389C105.869 228.536 106.115 228.781 106.115 228.977ZM128.916 266.069C129.113 266.363 128.67 267.245 127.982 268.078C127.294 268.911 126.705 269.793 126.705 270.038C126.705 270.283 126.459 270.479 126.115 270.479C125.23 270.479 123.756 271.998 123.756 272.929C123.756 273.418 123.314 274.3 122.773 274.937C122.233 275.574 121.889 275.77 122.036 275.378C122.233 274.888 121.594 274.104 120.366 273.173C118.597 271.802 118.498 271.655 119.186 270.822C119.628 270.381 120.267 269.989 120.562 269.989C120.906 269.989 121.545 269.45 121.987 268.764C122.921 267.343 123.609 267.245 124.788 268.323C125.968 269.352 127.196 268.862 127.196 267.392C127.196 265.726 128.228 264.942 128.916 266.069ZM121.299 274.888C121.299 275.133 121.103 275.378 120.808 275.378C120.562 275.378 120.316 275.133 120.316 274.888C120.316 274.594 120.562 274.398 120.808 274.398C121.103 274.398 121.299 274.594 121.299 274.888ZM109.456 281.307C109.112 281.993 108.768 282.189 108.424 281.846C107.786 281.209 108.326 280.278 109.309 280.278C109.899 280.278 109.948 280.474 109.456 281.307ZM55.9425 294.978C55.9425 295.223 55.7459 295.468 55.4511 295.468C55.2054 295.468 54.9597 295.223 54.9597 294.978C54.9597 294.684 55.2054 294.488 55.4511 294.488C55.7459 294.488 55.9425 294.684 55.9425 294.978ZM5.08219 311.539C3.90282 311.784 2.87087 311.294 2.87087 310.412C2.87087 309.726 3.06743 309.726 4.39422 310.51C5.47531 311.147 5.67187 311.441 5.08219 311.539ZM65.7706 320.947C65.7706 321.192 65.6723 321.437 65.574 321.437C65.4266 321.437 65.1809 321.192 65.0335 320.947C64.8861 320.653 64.9843 320.457 65.23 320.457C65.5249 320.457 65.7706 320.653 65.7706 320.947ZM89.9477 327.169C90.0951 328.492 90.0951 329.619 89.9968 329.717C89.8494 329.913 85.2302 330.697 85.0828 330.55C84.7388 330.256 85.6725 328.296 86.1639 328.296C86.5078 328.296 87.2941 327.512 87.9329 326.581C88.5717 325.65 89.2597 324.866 89.4071 324.866C89.6037 324.866 89.8494 325.895 89.9477 327.169ZM53.9769 345.152C53.9769 345.299 53.7803 345.544 53.4855 345.691C53.2398 345.838 52.9941 345.74 52.9941 345.495C52.9941 345.201 53.2398 344.956 53.4855 344.956C53.7803 344.956 53.9769 345.054 53.9769 345.152ZM11.2247 353.285C11.2247 353.53 10.979 353.775 10.6842 353.775C10.4385 353.775 10.3402 353.53 10.4876 353.285C10.6351 352.991 10.8808 352.795 11.0282 352.795C11.1265 352.795 11.2247 352.991 11.2247 353.285ZM86.4587 365.143C86.9992 366.172 86.9992 366.221 86.2621 365.584C85.7707 365.241 85.4267 364.751 85.4267 364.506C85.4267 363.771 85.869 364.016 86.4587 365.143ZM86.8027 369.455C87.3432 370.337 87.2941 370.435 86.4096 370.435C85.7707 370.435 85.4267 370.092 85.4267 369.455C85.4267 368.916 85.5742 368.475 85.8199 368.475C86.0164 368.475 86.4587 368.916 86.8027 369.455ZM89.9968 377.343C89.8494 377.931 89.5545 378.176 89.2597 377.882C88.7683 377.392 89.2597 375.726 89.8494 376.069C90.0951 376.216 90.1442 376.755 89.9968 377.343ZM86.6061 378.029C86.4096 378.421 86.0656 378.764 85.8199 378.764C85.525 378.764 85.5742 378.47 85.9182 378.029C86.2621 377.637 86.6061 377.294 86.7044 377.294C86.8027 377.294 86.7535 377.637 86.6061 378.029ZM61.348 390.916C61.348 391.553 60.7583 391.994 60.2669 391.7C59.7755 391.406 60.2177 390.524 60.9057 390.524C61.1514 390.524 61.348 390.72 61.348 390.916ZM21.5442 397.579C21.5442 397.726 21.3477 397.971 21.0528 398.118C20.8071 398.265 20.5614 398.167 20.5614 397.922C20.5614 397.628 20.8071 397.383 21.0528 397.383C21.3477 397.383 21.5442 397.481 21.5442 397.579ZM24.5418 407.575C25.1315 407.82 25.2789 408.163 25.0332 408.604C24.6892 409.143 24.3944 409.045 23.559 408.212C22.9693 407.624 22.2322 407.281 21.9373 407.477C21.5442 407.722 21.4951 407.526 21.6916 406.987C21.8882 406.497 22.0356 405.86 22.0356 405.566C22.0356 405.272 22.3796 405.517 22.8219 406.105C23.2641 406.742 24.0012 407.428 24.5418 407.575ZM25.4755 411.103C25.4755 411.348 25.2789 411.593 24.9841 411.593C24.7384 411.593 24.4926 411.348 24.4926 411.103C24.4926 410.809 24.7384 410.613 24.9841 410.613C25.2789 410.613 25.4755 410.809 25.4755 411.103ZM42.3306 440.796C42.1832 441.188 41.7409 441.482 41.3969 441.482C40.5124 441.482 40.021 440.306 40.4141 439.228C40.709 438.493 40.8073 438.493 41.6918 439.277C42.1832 439.718 42.478 440.404 42.3306 440.796ZM30.3895 440.992C30.3895 441.237 30.1438 441.482 29.849 441.482C29.6033 441.482 29.505 441.237 29.6524 440.992C29.7998 440.698 30.0455 440.502 30.1929 440.502C30.2912 440.502 30.3895 440.698 30.3895 440.992Z" fill="#00A551" fill-opacity="0.26"/>
<path d="M190.588 291.058C190.195 291.352 189.015 291.401 187.983 291.254C186.312 291.009 185.968 291.156 184.15 292.969C182.037 295.076 181.841 296.448 183.757 296.448C185.477 296.448 187.934 297.869 188.671 299.29C189.949 301.886 191.669 303.846 192.406 303.601C192.799 303.454 192.946 303.552 192.799 303.797C192.406 304.385 196.337 307.227 198.106 307.57C198.843 307.717 199.433 308.011 199.433 308.256C199.433 309.138 202.824 311.245 203.856 310.902C205.232 310.461 205.133 308.452 203.512 305.267C202.48 303.258 201.743 302.474 200.563 302.082C199.089 301.592 194.568 297.379 193.585 295.517C193.29 295.027 193.241 294.145 193.389 293.557C193.536 292.92 193.34 292.136 192.799 291.548C191.767 290.421 191.62 290.372 190.588 291.058ZM191.816 293.508C191.374 294.88 192.455 296.987 194.814 299.388C196.042 300.612 197.32 301.886 197.713 302.278C198.106 302.67 199.138 303.258 199.973 303.503C201.202 303.944 201.743 304.532 202.48 306.443C203.757 309.775 203.315 310.265 201.153 307.962C200.121 306.884 198.942 306.051 198.499 306.149C198.057 306.198 196.534 305.365 195.109 304.287C193.634 303.16 192.258 302.474 191.914 302.621C191.57 302.817 191.472 302.817 191.669 302.572C191.865 302.376 191.472 301.249 190.833 300.123C190.145 298.996 189.654 297.526 189.703 296.889C189.851 295.909 189.654 295.713 188.622 295.811C187.934 295.86 186.804 295.664 186.067 295.37C184.74 294.88 184.74 294.831 185.575 293.704C186.312 292.724 186.706 292.577 188.425 292.822C189.703 293.018 190.588 292.92 190.833 292.577C191.325 291.744 192.16 292.479 191.816 293.508ZM189.605 296.448C189.605 296.693 189.408 296.938 189.113 296.938C188.868 296.938 188.622 296.693 188.622 296.448C188.622 296.154 188.868 295.958 189.113 295.958C189.408 295.958 189.605 296.154 189.605 296.448Z" fill="#BCE7D1"/>
<path d="M215.992 299.977C213.928 301.104 215.55 303.26 220.317 305.612C221.938 306.445 224.838 307.915 226.803 308.895C230.391 310.708 231.865 310.806 231.865 309.189C231.865 307.915 226.41 303.848 224.543 303.652C223.707 303.554 222.872 303.309 222.626 303.064C222.43 302.819 222.577 302.819 222.97 303.064C223.462 303.358 223.56 303.26 223.265 302.868C222.97 302.329 221.791 301.692 217.565 299.83C217.172 299.634 216.435 299.683 215.992 299.977ZM220.661 302.819C221.054 302.819 221.791 303.26 222.282 303.799C222.774 304.338 223.511 304.779 223.904 304.779C224.641 304.779 229.899 308.111 229.899 308.601C229.899 308.699 228.671 308.111 227.196 307.278C225.722 306.445 224.101 305.759 223.658 305.759C223.167 305.759 222.233 305.318 221.545 304.779C220.857 304.24 220.12 303.799 219.924 303.799C219.186 303.799 216.631 301.79 216.631 301.3C216.631 301.006 217.368 301.251 218.302 301.79C219.186 302.378 220.268 302.819 220.661 302.819Z" fill="#BCE7D1"/>
</svg>
