<svg width="80" height="133" viewBox="0 0 80 133" fill="none" xmlns="http://www.w3.org/2000/svg">
<mask id="path-1-inside-1_2010_3690" fill="white">
<path d="M26.5908 0.0861359C26.8796 0.162415 27.5027 0.375992 27.9586 0.559067C30.5421 1.56598 31.0437 2.63393 30.9677 7.01246C30.9373 8.91949 30.9677 9.59077 31.1044 9.57551C31.1956 9.56025 31.8947 9.45345 32.6546 9.36192C33.4144 9.25512 34.1135 9.11782 34.2199 9.05679C34.3263 8.99577 34.4327 8.40077 34.4934 7.66847C34.615 6.09708 34.7518 5.74619 35.5573 5.05966C35.9068 4.75453 36.3475 4.19005 36.5451 3.77814C37.4569 1.79483 39.6149 0.864197 42.9584 1.01675C44.7364 1.10829 45.7395 1.36765 47.6543 2.29828C49.8883 3.38147 50.2835 3.88493 51.2105 6.89041C51.7424 8.69064 51.6968 8.62961 54.5995 10.5977C55.8001 11.4062 56.332 11.8639 56.4384 12.1691C56.8031 13.2065 55.6177 13.9845 52.8214 14.549L51.0737 14.9152L51.0281 15.8458L50.9825 16.7764L50.2075 16.8222C49.5084 16.868 49.3716 16.929 48.9461 17.463C48.6877 17.7833 48.3382 18.1037 48.171 18.1495C47.9735 18.2105 47.8671 18.3631 47.8975 18.5156C47.9279 18.6682 47.7607 19.0038 47.5176 19.2785C47.2896 19.5531 47.1072 19.8582 47.1072 19.965C47.1072 20.0718 46.9401 20.3159 46.7273 20.5142C46.241 20.9719 45.1468 21.0787 44.0678 20.7583C43.0495 20.4532 42.9128 20.4532 42.7912 20.7583C42.6392 21.1397 42.9432 21.5211 43.5814 21.7805C43.9766 21.9331 44.3565 22.2839 44.706 22.7569C45.5571 23.9621 47.8215 28.0203 48.0039 28.6763C48.2014 29.4391 48.2166 31.102 48.0191 31.4682C47.9431 31.6055 47.7303 32.0632 47.548 32.4903C47.3656 32.9023 46.9553 33.6651 46.6513 34.1685C46.3322 34.672 46.0282 35.3127 45.9674 35.6026C45.8307 36.2586 45.5571 36.8689 44.9796 37.83C44.3565 38.8369 43.6574 40.3473 43.5359 40.8965C43.4751 41.1406 43.3687 41.522 43.2927 41.7356C43.2015 41.9492 43.1103 42.8188 43.0951 43.6426C43.0343 45.3666 42.776 47.1668 42.5328 47.4567C42.4417 47.5635 42.3353 48.0517 42.2897 48.5399C42.2289 49.2417 42.3049 49.6994 42.6392 50.7215C43.0343 51.9878 43.0799 52.415 43.0039 54.3067C42.9432 55.8934 43.8854 59.326 45.162 62.1484C46.393 64.864 46.9553 66.4354 46.9553 67.1067C46.9553 67.4424 46.7729 67.8085 46.3474 68.3272C46.013 68.7239 45.7395 69.09 45.7395 69.1358C45.7395 69.2426 46.9401 70.7682 48.475 72.6142C49.2349 73.5296 50.1619 74.7348 50.5266 75.284C50.8914 75.8333 51.4385 76.5198 51.7424 76.8097C53.019 78.0149 54.7363 80.3339 55.4658 81.8137C56.3472 83.6139 56.2104 84.5446 54.7211 86.5584C53.8548 87.7179 53.2773 88.2976 50.5266 90.7386C49.4324 91.6997 48.2926 92.8287 47.9887 93.2406C47.3352 94.1102 45.6331 98.0463 44.4173 101.525C43.3383 104.591 43.3231 104.637 43.5662 105.72C43.6878 106.239 43.7334 106.864 43.6878 107.17C43.4143 108.619 43.3839 111.929 43.627 112.891C43.855 113.699 44.4325 114.218 46.6665 115.545C47.6999 116.171 48.8701 116.934 49.2652 117.254C49.9035 117.788 50.0555 117.849 50.861 117.849C51.3473 117.849 52.5175 117.986 53.4749 118.154C56.0433 118.612 55.7697 118.749 56.5904 116.644C56.9703 115.637 57.2894 114.706 57.2894 114.584C57.2894 114.462 57.3654 114.309 57.4414 114.264C57.6542 114.126 58.3532 112.738 58.3532 112.448C58.3532 112.082 58.642 112.006 59.3563 112.204C59.7362 112.311 60.0705 112.357 60.1161 112.311C60.1617 112.265 60.0401 111.945 59.8426 111.594C59.5842 111.121 59.5386 110.923 59.6754 110.877C59.9946 110.755 59.9034 110.541 59.2651 109.931C58.3836 109.092 58.4444 108.848 59.569 108.848H60.4657L60.5569 108.268C60.7088 107.276 60.9368 106.605 61.1647 106.407C61.2863 106.3 61.3927 106.132 61.3927 106.041C61.3927 105.751 62.031 105.217 62.5021 105.11C62.8213 105.018 62.9732 105.079 63.2012 105.354C63.4443 105.659 63.5355 105.69 63.8699 105.537C64.2194 105.369 64.3106 105.4 64.6449 105.812C64.8729 106.071 65.0401 106.437 65.0401 106.651C65.0401 107.093 65.1465 107.109 65.572 106.712C65.8607 106.437 65.9367 106.437 66.6814 106.636C67.6844 106.895 67.9276 107.093 67.9276 107.642C67.9276 107.978 68.0187 108.1 68.3227 108.176C68.9762 108.344 69.7816 108.115 70.2831 107.627C70.5415 107.383 70.8151 107.17 70.9062 107.17C70.9974 107.17 71.2862 107.002 71.5749 106.788C72.1068 106.391 72.4564 106.376 73.277 106.727C73.5962 106.849 73.7025 107.002 73.7025 107.307C73.7025 107.52 73.7785 107.963 73.8697 108.268C74.0065 108.787 74.0673 108.848 74.5384 108.848C74.8119 108.848 75.1463 108.893 75.2831 108.939C75.6174 109.077 75.587 109.565 75.2375 109.687C75.0703 109.733 74.8879 109.931 74.8271 110.099C74.7512 110.358 74.8423 110.526 75.2071 110.816C75.4654 111.029 75.6782 111.319 75.6782 111.441C75.6782 111.563 75.3742 111.975 74.9943 112.341C74.6144 112.708 74.3104 113.074 74.3104 113.135C74.3104 113.196 74.508 113.409 74.7512 113.608C75.2679 114.05 75.7086 114.706 75.587 114.843C75.435 114.996 75.8302 115.423 76.2861 115.591C76.4989 115.683 77.3499 115.85 78.1706 115.957C79.979 116.201 80.3134 116.415 79.7511 116.979C79.5535 117.178 79.2952 117.376 79.1736 117.422C79.0064 117.467 79.0216 117.574 79.2952 117.925C79.6751 118.413 79.7359 119.039 79.4015 119.161C79.2648 119.222 78.1098 119.146 76.818 118.993C74.3712 118.719 73.2466 118.764 72.3804 119.176C72.1068 119.298 71.8485 119.527 71.8029 119.68C71.6509 120.137 70.7695 120.32 68.7786 120.305C67.1373 120.29 66.7422 120.336 65.268 120.763C63.1252 121.373 59.5082 122.121 58.7332 122.121C58.3988 122.121 57.1375 122.288 55.9217 122.502C54.7059 122.716 52.943 123.006 52.0008 123.158C50.7546 123.341 50.3139 123.463 50.3747 123.6C50.4202 123.707 50.4962 123.89 50.5418 124.012C50.6026 124.165 50.3747 124.363 49.8123 124.653C47.8215 125.66 46.0434 125.813 45.2228 125.035C44.7972 124.638 43.7182 124.607 42.624 124.989L41.8641 125.248V125.98C41.8489 126.682 41.8945 126.728 42.3505 126.926C43.5055 127.415 42.5784 128.33 41.1043 128.147C40.4508 128.055 40.0861 128.116 39.159 128.437C37.8065 128.91 36.3323 129.139 35.3901 129.032C33.7488 128.849 30.7093 129.947 30.2534 130.878C30.071 131.274 29.995 131.305 29.4631 131.213C29.0832 131.152 28.7185 131.198 28.3841 131.366C27.9282 131.58 27.7458 131.58 26.7124 131.381L25.5574 131.168L24.0681 131.656C22.3812 132.22 18.9314 132.693 16.819 132.647C16.1351 132.632 14.7521 132.708 13.7491 132.815C12.7461 132.922 11.3479 133.014 10.6337 132.998C9.37228 132.998 8.20208 132.754 8.20208 132.495C8.20208 132.297 8.6428 131.9 9.15951 131.641C9.43306 131.503 9.91937 131.122 10.2689 130.801C10.6033 130.466 11.2263 130.069 11.6367 129.901L12.3813 129.611L11.2719 129.596C10.0713 129.596 10.0106 129.535 10.4665 128.772C11.3479 127.354 13.354 126.103 15.6032 125.553C16.6518 125.309 16.9709 125.05 16.5606 124.79C16.4694 124.745 16.4086 124.592 16.4086 124.455C16.4086 124.272 16.5302 124.241 17.0925 124.333L17.7764 124.424L17.4421 123.738C16.9405 122.685 17.2141 122.548 18.3539 123.265C19.0226 123.677 19.3873 123.814 19.7672 123.768C20.3599 123.723 20.3295 123.875 20.132 121.19C20.0256 119.97 20.056 119.649 20.2839 119.176C20.4207 118.871 20.6031 118.612 20.6791 118.612C20.7551 118.612 20.8159 119.344 20.8311 120.244C20.8614 122.944 21.135 123.341 21.7885 121.663C22.518 119.817 23.4602 119.054 23.1107 120.61C22.7915 121.953 22.6699 122.96 22.7763 123.082C22.8523 123.158 23.1107 122.96 23.369 122.639C23.9617 121.938 24.3112 122.014 24.3112 122.853V123.448L25.5878 123.646L26.8644 123.845L27.4723 123.356C27.9738 122.975 28.3537 122.838 29.5087 122.639C31.0741 122.365 33.1713 121.785 34.1287 121.373C34.7366 121.098 34.7518 121.068 34.8582 120.137C34.919 119.619 34.9342 119.161 34.9038 119.13C34.8734 119.085 34.4479 119.161 33.9463 119.298C33.46 119.42 32.8521 119.527 32.5786 119.527C31.4844 119.527 28.9616 117.254 25.8462 113.47C25.0103 112.463 24.0377 111.396 23.6882 111.106C21.4238 109.305 20.7095 108.299 21.0134 107.414C21.1046 107.109 22.9283 105.186 26.1349 101.982C28.8704 99.2516 31.226 96.7801 31.378 96.4902C31.8187 95.6053 32.6242 94.7205 33.2777 94.3848C33.7488 94.156 34.1591 93.7136 34.9342 92.5846C35.5117 91.7455 36.7123 90.1131 37.5937 88.9384C38.5511 87.6568 39.2046 86.6652 39.2046 86.4516C39.2046 85.4599 37.0314 81.7985 35.5117 80.2423C35.0254 79.7389 34.4783 79.1286 34.2959 78.8845C33.6728 78.0149 31.5604 75.6655 31.3476 75.6197C31.0741 75.5434 28.8097 76.291 27.9586 76.7334C27.5787 76.9165 26.8644 77.2979 26.3629 77.5572C25.3599 78.0759 24.4176 78.1675 23.9313 77.8166C23.6578 77.6182 23.6426 77.5572 23.8553 76.8554C23.9617 76.4588 24.0681 75.8638 24.0833 75.5587C24.0833 75.0705 24.2201 74.8721 25.0407 74.0788C25.8766 73.2702 25.9829 73.1177 25.9829 72.5837C25.9829 72.2633 25.8766 71.8514 25.755 71.6683C25.6334 71.5005 25.1319 70.2953 24.6304 69.0137C24.1289 67.717 23.445 65.9778 23.0955 65.1387C22.1836 62.9418 22.062 62.5909 21.5757 60.6076C21.059 58.5937 20.9982 58.2734 20.983 57.7394C20.9526 57.0529 20.8159 56.9766 19.98 57.2054C19.5545 57.3122 18.5819 57.6936 17.7916 58.0445C14.2658 59.6007 12.8525 59.4786 10.3297 57.3885C9.66102 56.8393 9.12912 56.5341 8.73399 56.4579C7.98932 56.3206 6.04406 55.5272 5.28419 55.0543C4.32677 54.444 3.65808 53.7728 3.27814 53.01C2.82223 52.0946 2.42709 50.3706 2.42709 49.2874V48.4331H1.69762C0.952957 48.4178 0.49704 48.1585 0.162697 47.5635C-0.278023 46.7091 0.177887 45.5649 1.51525 44.1766L2.42709 43.246V42.3001C2.42709 41.7661 2.53348 40.6524 2.67025 39.8133C2.80702 38.9742 2.89822 37.7537 2.89822 37.113C2.86782 35.8009 3.38453 33.2226 4.114 30.98C4.35715 30.2324 4.55473 29.4696 4.55473 29.2865C4.55473 28.6915 5.11702 25.6556 5.48176 24.313C5.66412 23.6112 6.08965 22.3755 6.424 21.5822C6.86472 20.5295 7.06228 19.7972 7.13827 18.9123C7.36623 16.5934 9.1899 10.3536 10.2233 8.41603C10.4817 7.92783 10.9072 7.33284 11.1808 7.11926C11.4391 6.89041 11.8494 6.32593 12.0774 5.86824C12.7157 4.58672 13.7339 3.24417 14.9953 1.97791C16.2871 0.696381 16.743 0.498047 18.901 0.238693C20.7399 0.00985718 25.9678 -0.0816803 26.5908 0.0861359ZM33.3081 12.5047C32.7154 13.1607 32.2138 14.8236 32.2138 16.0289C32.2138 17.3257 32.305 17.4019 33.2321 16.929C33.6576 16.7154 34.2047 16.5476 34.4631 16.5476C34.8582 16.5476 34.9646 16.4561 35.2381 15.8611C35.618 15.0372 35.6332 14.8236 35.3141 14.549C34.9342 14.2439 34.6454 13.5574 34.6454 12.9776C34.6454 12.6878 34.5998 12.3521 34.5542 12.2148C34.4023 11.8029 33.7944 11.9402 33.3081 12.5047ZM35.694 104.271C35.5421 104.362 35.2989 104.637 35.1773 104.881C35.0406 105.14 34.5846 105.537 34.1439 105.796C32.7913 106.575 32.4722 106.895 32.4722 107.49C32.4874 108.146 33.3233 111.243 33.5512 111.472C33.6728 111.594 33.8704 111.487 34.2655 111.09L34.8278 110.526L34.7214 109.031C34.6606 108.207 34.6606 107.368 34.7062 107.2C34.767 107.017 35.1317 106.681 35.4965 106.468C36.2563 106.025 36.4691 105.629 36.4691 104.713C36.4691 104.073 36.2715 103.966 35.694 104.271Z"/>
</mask>
<path d="M26.5908 0.0861359C26.8796 0.162415 27.5027 0.375992 27.9586 0.559067C30.5421 1.56598 31.0437 2.63393 30.9677 7.01246C30.9373 8.91949 30.9677 9.59077 31.1044 9.57551C31.1956 9.56025 31.8947 9.45345 32.6546 9.36192C33.4144 9.25512 34.1135 9.11782 34.2199 9.05679C34.3263 8.99577 34.4327 8.40077 34.4934 7.66847C34.615 6.09708 34.7518 5.74619 35.5573 5.05966C35.9068 4.75453 36.3475 4.19005 36.5451 3.77814C37.4569 1.79483 39.6149 0.864197 42.9584 1.01675C44.7364 1.10829 45.7395 1.36765 47.6543 2.29828C49.8883 3.38147 50.2835 3.88493 51.2105 6.89041C51.7424 8.69064 51.6968 8.62961 54.5995 10.5977C55.8001 11.4062 56.332 11.8639 56.4384 12.1691C56.8031 13.2065 55.6177 13.9845 52.8214 14.549L51.0737 14.9152L51.0281 15.8458L50.9825 16.7764L50.2075 16.8222C49.5084 16.868 49.3716 16.929 48.9461 17.463C48.6877 17.7833 48.3382 18.1037 48.171 18.1495C47.9735 18.2105 47.8671 18.3631 47.8975 18.5156C47.9279 18.6682 47.7607 19.0038 47.5176 19.2785C47.2896 19.5531 47.1072 19.8582 47.1072 19.965C47.1072 20.0718 46.9401 20.3159 46.7273 20.5142C46.241 20.9719 45.1468 21.0787 44.0678 20.7583C43.0495 20.4532 42.9128 20.4532 42.7912 20.7583C42.6392 21.1397 42.9432 21.5211 43.5814 21.7805C43.9766 21.9331 44.3565 22.2839 44.706 22.7569C45.5571 23.9621 47.8215 28.0203 48.0039 28.6763C48.2014 29.4391 48.2166 31.102 48.0191 31.4682C47.9431 31.6055 47.7303 32.0632 47.548 32.4903C47.3656 32.9023 46.9553 33.6651 46.6513 34.1685C46.3322 34.672 46.0282 35.3127 45.9674 35.6026C45.8307 36.2586 45.5571 36.8689 44.9796 37.83C44.3565 38.8369 43.6574 40.3473 43.5359 40.8965C43.4751 41.1406 43.3687 41.522 43.2927 41.7356C43.2015 41.9492 43.1103 42.8188 43.0951 43.6426C43.0343 45.3666 42.776 47.1668 42.5328 47.4567C42.4417 47.5635 42.3353 48.0517 42.2897 48.5399C42.2289 49.2417 42.3049 49.6994 42.6392 50.7215C43.0343 51.9878 43.0799 52.415 43.0039 54.3067C42.9432 55.8934 43.8854 59.326 45.162 62.1484C46.393 64.864 46.9553 66.4354 46.9553 67.1067C46.9553 67.4424 46.7729 67.8085 46.3474 68.3272C46.013 68.7239 45.7395 69.09 45.7395 69.1358C45.7395 69.2426 46.9401 70.7682 48.475 72.6142C49.2349 73.5296 50.1619 74.7348 50.5266 75.284C50.8914 75.8333 51.4385 76.5198 51.7424 76.8097C53.019 78.0149 54.7363 80.3339 55.4658 81.8137C56.3472 83.6139 56.2104 84.5446 54.7211 86.5584C53.8548 87.7179 53.2773 88.2976 50.5266 90.7386C49.4324 91.6997 48.2926 92.8287 47.9887 93.2406C47.3352 94.1102 45.6331 98.0463 44.4173 101.525C43.3383 104.591 43.3231 104.637 43.5662 105.72C43.6878 106.239 43.7334 106.864 43.6878 107.17C43.4143 108.619 43.3839 111.929 43.627 112.891C43.855 113.699 44.4325 114.218 46.6665 115.545C47.6999 116.171 48.8701 116.934 49.2652 117.254C49.9035 117.788 50.0555 117.849 50.861 117.849C51.3473 117.849 52.5175 117.986 53.4749 118.154C56.0433 118.612 55.7697 118.749 56.5904 116.644C56.9703 115.637 57.2894 114.706 57.2894 114.584C57.2894 114.462 57.3654 114.309 57.4414 114.264C57.6542 114.126 58.3532 112.738 58.3532 112.448C58.3532 112.082 58.642 112.006 59.3563 112.204C59.7362 112.311 60.0705 112.357 60.1161 112.311C60.1617 112.265 60.0401 111.945 59.8426 111.594C59.5842 111.121 59.5386 110.923 59.6754 110.877C59.9946 110.755 59.9034 110.541 59.2651 109.931C58.3836 109.092 58.4444 108.848 59.569 108.848H60.4657L60.5569 108.268C60.7088 107.276 60.9368 106.605 61.1647 106.407C61.2863 106.3 61.3927 106.132 61.3927 106.041C61.3927 105.751 62.031 105.217 62.5021 105.11C62.8213 105.018 62.9732 105.079 63.2012 105.354C63.4443 105.659 63.5355 105.69 63.8699 105.537C64.2194 105.369 64.3106 105.4 64.6449 105.812C64.8729 106.071 65.0401 106.437 65.0401 106.651C65.0401 107.093 65.1465 107.109 65.572 106.712C65.8607 106.437 65.9367 106.437 66.6814 106.636C67.6844 106.895 67.9276 107.093 67.9276 107.642C67.9276 107.978 68.0187 108.1 68.3227 108.176C68.9762 108.344 69.7816 108.115 70.2831 107.627C70.5415 107.383 70.8151 107.17 70.9062 107.17C70.9974 107.17 71.2862 107.002 71.5749 106.788C72.1068 106.391 72.4564 106.376 73.277 106.727C73.5962 106.849 73.7025 107.002 73.7025 107.307C73.7025 107.52 73.7785 107.963 73.8697 108.268C74.0065 108.787 74.0673 108.848 74.5384 108.848C74.8119 108.848 75.1463 108.893 75.2831 108.939C75.6174 109.077 75.587 109.565 75.2375 109.687C75.0703 109.733 74.8879 109.931 74.8271 110.099C74.7512 110.358 74.8423 110.526 75.2071 110.816C75.4654 111.029 75.6782 111.319 75.6782 111.441C75.6782 111.563 75.3742 111.975 74.9943 112.341C74.6144 112.708 74.3104 113.074 74.3104 113.135C74.3104 113.196 74.508 113.409 74.7512 113.608C75.2679 114.05 75.7086 114.706 75.587 114.843C75.435 114.996 75.8302 115.423 76.2861 115.591C76.4989 115.683 77.3499 115.85 78.1706 115.957C79.979 116.201 80.3134 116.415 79.7511 116.979C79.5535 117.178 79.2952 117.376 79.1736 117.422C79.0064 117.467 79.0216 117.574 79.2952 117.925C79.6751 118.413 79.7359 119.039 79.4015 119.161C79.2648 119.222 78.1098 119.146 76.818 118.993C74.3712 118.719 73.2466 118.764 72.3804 119.176C72.1068 119.298 71.8485 119.527 71.8029 119.68C71.6509 120.137 70.7695 120.32 68.7786 120.305C67.1373 120.29 66.7422 120.336 65.268 120.763C63.1252 121.373 59.5082 122.121 58.7332 122.121C58.3988 122.121 57.1375 122.288 55.9217 122.502C54.7059 122.716 52.943 123.006 52.0008 123.158C50.7546 123.341 50.3139 123.463 50.3747 123.6C50.4202 123.707 50.4962 123.89 50.5418 124.012C50.6026 124.165 50.3747 124.363 49.8123 124.653C47.8215 125.66 46.0434 125.813 45.2228 125.035C44.7972 124.638 43.7182 124.607 42.624 124.989L41.8641 125.248V125.98C41.8489 126.682 41.8945 126.728 42.3505 126.926C43.5055 127.415 42.5784 128.33 41.1043 128.147C40.4508 128.055 40.0861 128.116 39.159 128.437C37.8065 128.91 36.3323 129.139 35.3901 129.032C33.7488 128.849 30.7093 129.947 30.2534 130.878C30.071 131.274 29.995 131.305 29.4631 131.213C29.0832 131.152 28.7185 131.198 28.3841 131.366C27.9282 131.58 27.7458 131.58 26.7124 131.381L25.5574 131.168L24.0681 131.656C22.3812 132.22 18.9314 132.693 16.819 132.647C16.1351 132.632 14.7521 132.708 13.7491 132.815C12.7461 132.922 11.3479 133.014 10.6337 132.998C9.37228 132.998 8.20208 132.754 8.20208 132.495C8.20208 132.297 8.6428 131.9 9.15951 131.641C9.43306 131.503 9.91937 131.122 10.2689 130.801C10.6033 130.466 11.2263 130.069 11.6367 129.901L12.3813 129.611L11.2719 129.596C10.0713 129.596 10.0106 129.535 10.4665 128.772C11.3479 127.354 13.354 126.103 15.6032 125.553C16.6518 125.309 16.9709 125.05 16.5606 124.79C16.4694 124.745 16.4086 124.592 16.4086 124.455C16.4086 124.272 16.5302 124.241 17.0925 124.333L17.7764 124.424L17.4421 123.738C16.9405 122.685 17.2141 122.548 18.3539 123.265C19.0226 123.677 19.3873 123.814 19.7672 123.768C20.3599 123.723 20.3295 123.875 20.132 121.19C20.0256 119.97 20.056 119.649 20.2839 119.176C20.4207 118.871 20.6031 118.612 20.6791 118.612C20.7551 118.612 20.8159 119.344 20.8311 120.244C20.8614 122.944 21.135 123.341 21.7885 121.663C22.518 119.817 23.4602 119.054 23.1107 120.61C22.7915 121.953 22.6699 122.96 22.7763 123.082C22.8523 123.158 23.1107 122.96 23.369 122.639C23.9617 121.938 24.3112 122.014 24.3112 122.853V123.448L25.5878 123.646L26.8644 123.845L27.4723 123.356C27.9738 122.975 28.3537 122.838 29.5087 122.639C31.0741 122.365 33.1713 121.785 34.1287 121.373C34.7366 121.098 34.7518 121.068 34.8582 120.137C34.919 119.619 34.9342 119.161 34.9038 119.13C34.8734 119.085 34.4479 119.161 33.9463 119.298C33.46 119.42 32.8521 119.527 32.5786 119.527C31.4844 119.527 28.9616 117.254 25.8462 113.47C25.0103 112.463 24.0377 111.396 23.6882 111.106C21.4238 109.305 20.7095 108.299 21.0134 107.414C21.1046 107.109 22.9283 105.186 26.1349 101.982C28.8704 99.2516 31.226 96.7801 31.378 96.4902C31.8187 95.6053 32.6242 94.7205 33.2777 94.3848C33.7488 94.156 34.1591 93.7136 34.9342 92.5846C35.5117 91.7455 36.7123 90.1131 37.5937 88.9384C38.5511 87.6568 39.2046 86.6652 39.2046 86.4516C39.2046 85.4599 37.0314 81.7985 35.5117 80.2423C35.0254 79.7389 34.4783 79.1286 34.2959 78.8845C33.6728 78.0149 31.5604 75.6655 31.3476 75.6197C31.0741 75.5434 28.8097 76.291 27.9586 76.7334C27.5787 76.9165 26.8644 77.2979 26.3629 77.5572C25.3599 78.0759 24.4176 78.1675 23.9313 77.8166C23.6578 77.6182 23.6426 77.5572 23.8553 76.8554C23.9617 76.4588 24.0681 75.8638 24.0833 75.5587C24.0833 75.0705 24.2201 74.8721 25.0407 74.0788C25.8766 73.2702 25.9829 73.1177 25.9829 72.5837C25.9829 72.2633 25.8766 71.8514 25.755 71.6683C25.6334 71.5005 25.1319 70.2953 24.6304 69.0137C24.1289 67.717 23.445 65.9778 23.0955 65.1387C22.1836 62.9418 22.062 62.5909 21.5757 60.6076C21.059 58.5937 20.9982 58.2734 20.983 57.7394C20.9526 57.0529 20.8159 56.9766 19.98 57.2054C19.5545 57.3122 18.5819 57.6936 17.7916 58.0445C14.2658 59.6007 12.8525 59.4786 10.3297 57.3885C9.66102 56.8393 9.12912 56.5341 8.73399 56.4579C7.98932 56.3206 6.04406 55.5272 5.28419 55.0543C4.32677 54.444 3.65808 53.7728 3.27814 53.01C2.82223 52.0946 2.42709 50.3706 2.42709 49.2874V48.4331H1.69762C0.952957 48.4178 0.49704 48.1585 0.162697 47.5635C-0.278023 46.7091 0.177887 45.5649 1.51525 44.1766L2.42709 43.246V42.3001C2.42709 41.7661 2.53348 40.6524 2.67025 39.8133C2.80702 38.9742 2.89822 37.7537 2.89822 37.113C2.86782 35.8009 3.38453 33.2226 4.114 30.98C4.35715 30.2324 4.55473 29.4696 4.55473 29.2865C4.55473 28.6915 5.11702 25.6556 5.48176 24.313C5.66412 23.6112 6.08965 22.3755 6.424 21.5822C6.86472 20.5295 7.06228 19.7972 7.13827 18.9123C7.36623 16.5934 9.1899 10.3536 10.2233 8.41603C10.4817 7.92783 10.9072 7.33284 11.1808 7.11926C11.4391 6.89041 11.8494 6.32593 12.0774 5.86824C12.7157 4.58672 13.7339 3.24417 14.9953 1.97791C16.2871 0.696381 16.743 0.498047 18.901 0.238693C20.7399 0.00985718 25.9678 -0.0816803 26.5908 0.0861359ZM33.3081 12.5047C32.7154 13.1607 32.2138 14.8236 32.2138 16.0289C32.2138 17.3257 32.305 17.4019 33.2321 16.929C33.6576 16.7154 34.2047 16.5476 34.4631 16.5476C34.8582 16.5476 34.9646 16.4561 35.2381 15.8611C35.618 15.0372 35.6332 14.8236 35.3141 14.549C34.9342 14.2439 34.6454 13.5574 34.6454 12.9776C34.6454 12.6878 34.5998 12.3521 34.5542 12.2148C34.4023 11.8029 33.7944 11.9402 33.3081 12.5047ZM35.694 104.271C35.5421 104.362 35.2989 104.637 35.1773 104.881C35.0406 105.14 34.5846 105.537 34.1439 105.796C32.7913 106.575 32.4722 106.895 32.4722 107.49C32.4874 108.146 33.3233 111.243 33.5512 111.472C33.6728 111.594 33.8704 111.487 34.2655 111.09L34.8278 110.526L34.7214 109.031C34.6606 108.207 34.6606 107.368 34.7062 107.2C34.767 107.017 35.1317 106.681 35.4965 106.468C36.2563 106.025 36.4691 105.629 36.4691 104.713C36.4691 104.073 36.2715 103.966 35.694 104.271Z" fill="#00A551" stroke="#00A551" stroke-width="2" mask="url(#path-1-inside-1_2010_3690)"/>
</svg>
