<svg width="114" height="71" viewBox="0 0 114 71" fill="none" xmlns="http://www.w3.org/2000/svg">
<path d="M90.2725 48.6084L89.9402 48.9824L89.9402 48.9824L90.2725 48.6084ZM104.582 61.7682C104.858 61.7517 105.068 61.5149 105.052 61.2393L104.787 56.7495C104.77 56.474 104.534 56.2641 104.258 56.2807C103.982 56.2973 103.772 56.534 103.788 56.8096L104.024 60.8005L100.029 61.0406C99.7529 61.0571 99.5426 61.2939 99.5588 61.5694C99.5751 61.845 99.8118 62.0549 100.088 62.0383L104.582 61.7682ZM89.9402 48.9824L104.22 61.6433L104.885 60.8954L90.6048 48.2344L89.9402 48.9824ZM1.21389 36.3822C30.6644 22.4311 65.5873 27.3905 89.9402 48.9824L90.6048 48.2344C65.9521 26.3767 30.5992 21.3562 0.786126 35.4791L1.21389 36.3822Z" fill="#00A551"/>
<path d="M31.0001 33.6106L32.8684 33.4144C44.0668 32.2385 55.3683 34.2067 65.5001 39.0974V39.0974" stroke="#00A551" stroke-linecap="round"/>
</svg>
